<?xml version="1.0" encoding="UTF-8" standalone="no"?>
<!-- Created with Inkscape (http://www.inkscape.org/) -->

<svg
   xmlns:dc="http://purl.org/dc/elements/1.1/"
   xmlns:cc="http://creativecommons.org/ns#"
   xmlns:rdf="http://www.w3.org/1999/02/22-rdf-syntax-ns#"
   xmlns:svg="http://www.w3.org/2000/svg"
   xmlns="http://www.w3.org/2000/svg"
   xmlns:sodipodi="http://sodipodi.sourceforge.net/DTD/sodipodi-0.dtd"
   xmlns:inkscape="http://www.inkscape.org/namespaces/inkscape"
   width="300"
   height="300"
   viewBox="0 0 79.374999 79.375002"
   version="1.1"
   id="svg8"
   inkscape:version="0.92.2 (5c3e80d, 2017-08-06)"
   sodipodi:docname="ring-3.svg">
  <defs
     id="defs2">
    <pattern
       y="0"
       x="0"
       height="6"
       width="6"
       patternUnits="userSpaceOnUse"
       id="EMFhbasepattern" />
  </defs>
  <sodipodi:namedview
     id="base"
     pagecolor="#ffffff"
     bordercolor="#666666"
     borderopacity="1.0"
     inkscape:pageopacity="0.0"
     inkscape:pageshadow="2"
     inkscape:zoom="2"
     inkscape:cx="81.118129"
     inkscape:cy="130.41327"
     inkscape:document-units="mm"
     inkscape:current-layer="layer1"
     showgrid="false"
     units="px"
     inkscape:window-width="1920"
     inkscape:window-height="1001"
     inkscape:window-x="-9"
     inkscape:window-y="-9"
     inkscape:window-maximized="1"
     inkscape:snap-bbox="true"
     inkscape:bbox-paths="true"
     inkscape:bbox-nodes="true"
     inkscape:snap-bbox-midpoints="true"
     inkscape:snap-bbox-edge-midpoints="true"
     inkscape:snap-nodes="true"
     inkscape:object-paths="true"
     inkscape:snap-intersection-paths="true"
     inkscape:object-nodes="true"
     inkscape:snap-smooth-nodes="true"
     inkscape:snap-midpoints="true"
     inkscape:snap-global="false"
     showguides="false"
     showborder="true" />
  <metadata
     id="metadata5">
    <rdf:RDF>
      <cc:Work
         rdf:about="">
        <dc:format>image/svg+xml</dc:format>
        <dc:type
           rdf:resource="http://purl.org/dc/dcmitype/StillImage" />
        <dc:title></dc:title>
      </cc:Work>
    </rdf:RDF>
  </metadata>
  <g
     inkscape:label="Layer 1"
     inkscape:groupmode="layer"
     id="layer1"
     transform="translate(0,-217.62498)">
    <g
       id="g57"
       transform="translate(7.4146961,-7.5911667)">
      <path
         inkscape:connector-curvature="0"
         style="fill:#d40000;fill-opacity:1;fill-rule:nonzero;stroke:none;stroke-width:0.26458332"
         d="m 11.6037,264.90369 v 0 c 0,1.62982 9.249765,2.94215 20.67968,2.94215 11.408748,0 19.960017,-1.31233 19.960017,-2.94215 v 0 h -2.857479 v 0 c 0,1.03716 -9.800091,1.88382 -17.102538,1.88382 -7.323611,0 -17.314205,-0.84666 -17.314205,-1.88382 v 0 z"
         id="path24" />
      <path
         inkscape:connector-curvature="0"
         style="fill:#0000ff;fill-opacity:1;fill-rule:nonzero;stroke:none;stroke-width:0.26458332"
         d="m 6.9894005,264.90369 v 0 c 0,1.98965 11.3240835,4.2333 25.2939795,4.2333 13.948729,0 25.272811,-2.24365 25.272811,-4.2333 v 0 h -5.312794 v 0 c 0,1.26999 -11.02775,2.94215 -19.960017,2.94215 -8.953434,0 -20.67968,-1.67216 -20.67968,-2.94215 v 0 z"
         id="path28" />
      <path
         inkscape:connector-curvature="0"
         style="fill:#00ff00;fill-opacity:1;fill-rule:nonzero;stroke:none;stroke-width:0.26458332"
         d="m 6.9894005,264.90369 v 0 c 0,1.98965 11.3240835,4.2333 25.2939795,4.2333 13.948729,0 25.272811,-2.24365 25.272811,-4.2333 v 0 h -4.614299 1.566323 c 0,1.26999 -8.889934,3.59831 -22.224835,3.59831 -13.356068,0 -22.2883355,-2.32832 -22.2883355,-3.59831 v 0 z"
         id="path32" />
      <path
         inkscape:connector-curvature="0"
         style="fill:#ff00ff;fill-opacity:1;fill-rule:nonzero;stroke:none;stroke-width:0.26458332"
         d="m -4.4616815,264.90369 v 0 c 0,2.87865 16.4463785,6.13829 36.7450615,6.13829 20.277515,0 36.723894,-3.25964 36.723894,-6.13829 v 0 h -6.688617 2.264818 c 0,1.86265 -12.932739,5.22813 -32.300095,5.22813 -19.388523,0 -32.36359447,-3.38664 -32.36359447,-5.22813 v 0 z"
         id="path36" />
    </g>
  </g>
</svg>
