<?xml version="1.0"?>
<svg xmlns="http://www.w3.org/2000/svg" xmlns:lc="http://www.librecad.org" xmlns:xlink="http://www.w3.org/1999/xlink" width="200mm" height="200mm" viewBox="-1 -1 202 202">
    <g lc:layername="0" lc:is_locked="false" lc:is_construction="false" fill="none" stroke="white" stroke-width="1">
        <line x1="0" y1="20" x2="0" y2="180"/>
        <line x1="20" y1="200" x2="180" y2="200"/>
        <line x1="200" y1="180" x2="200" y2="20"/>
        <line x1="180" y1="0" x2="20" y2="0"/>
        <path d="M20,0 A20,20 0 0,0 0,20 "/>
        <path d="M0,180 A20,20 0 0,0 20,200 "/>
        <path d="M180,200 A20,20 0 0,0 200,180 "/>
        <path d="M200,20 A20,20 0 0,0 180,0 "/>
        <line x1="120" y1="180" x2="80" y2="180"/>
        <line x1="60" y1="80" x2="60" y2="40"/>
        <line x1="80" y1="20" x2="120" y2="20"/>
        <line x1="140" y1="160" x2="140" y2="120"/>
        <path d="M120,180 A20,20 0 0,0 140,160 "/>
        <path d="M60,160 A20,20 0 0,0 80,180 "/>
        <path d="M80,20 A20,20 0 0,0 60,40 "/>
        <path d="M140,40 A20,20 0 0,0 120,20 "/>
        <line x1="80" y1="40" x2="80" y2="60"/>
        <line x1="80" y1="160" x2="120" y2="160"/>
        <line x1="120" y1="160" x2="120" y2="120"/>
        <line x1="120" y1="90" x2="80" y2="90"/>
        <path d="M140,110 A20,20 0 0,0 120,90 "/>
        <line x1="120" y1="110" x2="80" y2="110"/>
        <line x1="140" y1="110" x2="140" y2="120"/>
        <line x1="120" y1="120" x2="120" y2="110"/>
        <line x1="80" y1="90" x2="80" y2="60"/>
        <path d="M60,90 A20,20 0 0,0 80,110 "/>
        <line x1="60" y1="80" x2="60" y2="90"/>
        <line x1="80" y1="40" x2="120" y2="40"/>
        <line x1="120" y1="40" x2="140" y2="40"/>
        <line x1="80" y1="160" x2="60" y2="160"/>
    </g>
</svg>
