<?xml version="1.0"?>
<svg xmlns="http://www.w3.org/2000/svg" xmlns:lc="http://www.librecad.org" xmlns:xlink="http://www.w3.org/1999/xlink" width="200mm" height="200mm" viewBox="-1 -1 202 202">
    <g lc:layername="0" lc:is_locked="false" lc:is_construction="false" fill="none" stroke="black" stroke-width="1">
        <line x1="0" y1="20" x2="0" y2="180"/>
        <line x1="20" y1="200" x2="180" y2="200"/>
        <line x1="200" y1="180" x2="200" y2="20"/>
        <line x1="180" y1="0" x2="20" y2="0"/>
        <path d="M20,0 A20,20 0 0,0 0,20 "/>
        <path d="M0,180 A20,20 0 0,0 20,200 "/>
        <path d="M180,200 A20,20 0 0,0 200,180 "/>
        <path d="M200,20 A20,20 0 0,0 180,0 "/>
        <line x1="130" y1="110" x2="120" y2="110"/>
        <line x1="135.71428571" y1="90" x2="130" y2="110"/>
        <line x1="135.71428571" y1="90" x2="125.71428571" y2="90"/>
        <line x1="140" y1="40" x2="125.71428571" y2="90"/>
        <line x1="120" y1="110" x2="100" y2="180"/>
        <line x1="65.71428571" y1="20" x2="60" y2="40"/>
        <line x1="145.71428571" y1="20" x2="140" y2="40"/>
        <line x1="65.71428571" y1="20" x2="145.71428571" y2="20"/>
        <line x1="94.28571429" y1="110" x2="84.28571429" y2="110"/>
        <line x1="74.28571429" y1="180" x2="94.28571429" y2="110"/>
        <line x1="100" y1="90" x2="114.28571429" y2="40"/>
        <line x1="74.28571429" y1="180" x2="100" y2="180"/>
        <line x1="60" y1="40" x2="114.28571429" y2="40"/>
        <line x1="70" y1="110" x2="84.28571429" y2="110"/>
        <line x1="75.71428571" y1="90" x2="70" y2="110"/>
        <line x1="75.71428571" y1="90" x2="100" y2="90"/>
    </g>
</svg>
