<?xml version="1.0"?>
<svg xmlns="http://www.w3.org/2000/svg" xmlns:lc="http://www.librecad.org" xmlns:xlink="http://www.w3.org/1999/xlink" width="282.84271247mm" height="282.84271247mm" viewBox="-5 -5 292.84271247 292.84271247">
    <g lc:layername="0" lc:is_locked="false" lc:is_construction="false" fill="none" stroke="white" stroke-width="5">
        <circle cx="141.42135624" cy="141.42135624" r="141.42135624"/>
        <path fill="white" d="M131.42135624,171.42135624 L81.42135624,171.42135624 A30,30 0 1,1 81.42135624,111.42135624 L131.42135624,111.42135624 L131.42135624,91.42135624 L81.42135624,91.42135624 A50,50 0 0,0 81.42135624,191.42135624 L131.42135624,191.42135624 L131.42135624,171.42135624 Z "/>
        <path fill="white" d="M191.42135624,131.42135624 L191.42135624,151.42135624 L91.42135624,151.42135624 L91.42135624,131.42135624 L191.42135624,131.42135624 Z "/>
        <path fill="white" d="M201.42135624,191.42135624 L151.42135624,191.42135624 L151.42135624,171.42135624 L201.42135624,171.42135624 A30,30 0 0,0 201.42135624,111.42135624 L151.42135624,111.42135624 L151.42135624,91.42135624 L201.42135624,91.42135624 A50,50 0 1,1 201.42135624,191.42135624 Z "/>
    </g>
</svg>
