<?xml version="1.0"?>
<svg xmlns="http://www.w3.org/2000/svg" xmlns:lc="http://www.librecad.org" xmlns:xlink="http://www.w3.org/1999/xlink" width="282.84271247mm" height="282.84271247mm" viewBox="-1 -1 284.84271247 284.84271247">
    <g lc:layername="0" lc:is_locked="false" lc:is_construction="false" fill="none" stroke="white" stroke-width="1">
        <circle cx="141.42135624" cy="141.42135624" r="141.42135624"/>
        <line x1="91.42135624" y1="131.42135624" x2="191.42135624" y2="131.42135624"/>
        <line x1="191.42135624" y1="131.42135624" x2="191.42135624" y2="151.42135624"/>
        <line x1="191.42135624" y1="151.42135624" x2="91.42135624" y2="151.42135624"/>
        <line x1="91.42135624" y1="151.42135624" x2="91.42135624" y2="131.42135624"/>
        <path d="M201.42135624,191.42135624 A50,50 0 0,0 201.42135624,91.42135624 "/>
        <path d="M201.42135624,171.42135624 A30,30 0 0,0 201.42135624,111.42135624 "/>
        <path d="M81.42135624,91.42135624 A50,50 0 0,0 81.42135624,191.42135624 "/>
        <path d="M81.42135624,111.42135624 A30,30 0 0,0 81.42135624,171.42135624 "/>
        <line x1="131.42135624" y1="111.42135624" x2="131.42135624" y2="91.42135624"/>
        <line x1="151.42135624" y1="111.42135624" x2="151.42135624" y2="91.42135624"/>
        <line x1="131.42135624" y1="191.42135624" x2="131.42135624" y2="171.42135624"/>
        <line x1="151.42135624" y1="191.42135624" x2="151.42135624" y2="171.42135624"/>
        <line x1="131.42135624" y1="111.42135624" x2="81.42135624" y2="111.42135624"/>
        <line x1="131.42135624" y1="91.42135624" x2="81.42135624" y2="91.42135624"/>
        <line x1="151.42135624" y1="91.42135624" x2="201.42135624" y2="91.42135624"/>
        <line x1="201.42135624" y1="111.42135624" x2="151.42135624" y2="111.42135624"/>
        <line x1="201.42135624" y1="171.42135624" x2="151.42135624" y2="171.42135624"/>
        <line x1="151.42135624" y1="191.42135624" x2="201.42135624" y2="191.42135624"/>
        <line x1="81.42135624" y1="191.42135624" x2="131.42135624" y2="191.42135624"/>
        <line x1="131.42135624" y1="171.42135624" x2="81.42135624" y2="171.42135624"/>
    </g>
</svg>
