<?xml version="1.0"?>
<svg xmlns="http://www.w3.org/2000/svg" xmlns:lc="http://www.librecad.org" xmlns:xlink="http://www.w3.org/1999/xlink" width="282.84271247mm" height="282.84271247mm" viewBox="-5 -5 292.84271247 292.84271247">
    <g lc:layername="0" lc:is_locked="false" lc:is_construction="false" fill="none" stroke="white" stroke-width="1">
        <circle cx="141.42135624" cy="141.42135624" r="141.42135624" stroke-width="5"/>
        <circle fill="white" cx="141.42135624" cy="141.42135624" r="20"/>
        <circle fill="white" cx="199.88281934" cy="175.55263618" r="9.41614739"/>
        <circle fill="white" cx="82.23755284" cy="135.33921522" r="9.03952305"/>
        <path d="M194.06840345,179.06840345 C162.43970389,196.34604542 114.1494439,195.26147229 84.58656116,176.60950048 C55.02367841,157.95752867 53.74408642,127.76722614 81.68551882,108.16319389 C109.62695122,88.55916165 157.75761251,85.8782119 190.80552502,102.08504651 C223.85343752,118.29188112 231.13618585,148.14779887 207.31669526,169.77324863 " stroke-width="5"/>
        <path d="M86.06441232,127.1497022 C97.95804282,109.6063256 129.94404427,100.42781928 159.36733416,106.11514641 C188.79062406,111.80247354 206.55760774,130.59790249 200.08426522,149.18898487 C193.61092271,167.78006725 164.89791244,180.42102247 134.28211889,178.15850001 C103.66632534,175.89597754 80.60989969,159.42923508 81.44327405,140.42135624 " stroke-width="5"/>
        <path fill="white" d="M111.42135624,221.42135624 L141.42135624,241.42135624 A100,100 0 0,1 41.42135624,141.42135624 L51.42135624,141.42135624 A90,90 0 0,0 109.82024649,225.69098222 L111.42135624,221.42135624 Z " stroke-width="5"/>
        <path fill="white" d="M231.42135624,141.42135624 L241.42135624,141.42135624 A100,100 0 0,0 141.42135624,41.42135624 L171.42135624,61.42135624 L173.02246598,57.15173026 A90,90 0 0,1 231.42135624,141.42135624 Z " stroke-width="5"/>
    </g>
</svg>
