<?xml version="1.0"?>
<svg xmlns="http://www.w3.org/2000/svg" xmlns:lc="http://www.librecad.org" xmlns:xlink="http://www.w3.org/1999/xlink" width="282.84271247mm" height="282.84271247mm" viewBox="-5 -5 292.84271247 292.84271247">
    <g lc:layername="0" lc:is_locked="false" lc:is_construction="false" fill="none" stroke="white" stroke-width="5">
        <circle cx="141.42135624" cy="141.42135624" r="141.42135624"/>
        <path fill="white" d="M41.42135624,151.42135624 A78.28427125,78.28427125 0 0,0 119.70562748,229.70562748 L141.42135624,229.70562748 A8.28427125,8.28427125 0 0,0 147.27922061,215.56349186 A20,20 0 0,1 161.42135624,181.42135624 L211.42135624,181.42135624 A30,30 0 0,0 241.42135624,151.42135624 A100,100 0 0,0 41.42135624,151.42135624 Z "/>
        <circle fill="black" cx="84.79016663" cy="110.27638858" r="14.14213562"/>
        <circle fill="black" cx="71.42135624" cy="151.42135624" r="14.14213562"/>
        <circle fill="black" cx="119.79016663" cy="84.8474001" r="14.14213562"/>
        <circle fill="black" cx="163.05254584" cy="84.8474001" r="14.14213562"/>
        <circle fill="black" cx="198.05254584" cy="110.27638858" r="14.14213562"/>
        <circle fill="black" cx="211.42135624" cy="151.42135624" r="14.14213562"/>
    </g>
</svg>
