<?xml version="1.0"?>
<svg xmlns="http://www.w3.org/2000/svg" xmlns:lc="http://www.librecad.org" xmlns:xlink="http://www.w3.org/1999/xlink" width="282.84271247mm" height="282.84271247mm" viewBox="-1 -1 284.84271247 284.84271247">
    <g lc:layername="0" lc:is_locked="false" lc:is_construction="false" fill="none" stroke="black" stroke-width="1">
        <circle cx="141.42135624" cy="141.42135624" r="141.42135624"/>
        <path d="M241.42135624,151.42135624 A100,100 0 0,0 41.42135624,151.42135624 "/>
        <path d="M211.42135624,181.42135624 A30,30 0 0,0 241.42135624,151.42135624 "/>
        <path d="M161.42135624,181.42135624 A20,20 0 0,0 147.27922061,215.56349186 "/>
        <path d="M141.42135624,229.70562748 A8.28427125,8.28427125 0 0,0 147.27922061,215.56349186 "/>
        <line x1="161.42135624" y1="181.42135624" x2="211.42135624" y2="181.42135624"/>
        <path d="M141.42135624,229.70562748 C128.28947656,229.70562748 115.28528786,227.68065297 103.153013,223.74659216 C91.02073814,219.81253135 79.99631929,214.04589182 70.71067812,206.7766953 C61.42503695,199.50749877 54.05875578,190.87711282 49.03340299,181.37944986 C44.0080502,171.8817869 41.42135624,161.70155255 41.42135624,151.42135624 "/>
        <circle cx="84.79016663" cy="110.27638858" r="14.14213562"/>
        <circle cx="71.42135624" cy="151.42135624" r="14.14213562"/>
        <circle cx="119.79016663" cy="84.8474001" r="14.14213562"/>
        <circle cx="163.05254584" cy="84.8474001" r="14.14213562"/>
        <circle cx="198.05254584" cy="110.27638858" r="14.14213562"/>
        <circle cx="211.42135624" cy="151.42135624" r="14.14213562"/>
    </g>
</svg>
