<?xml version="1.0"?>
<svg xmlns="http://www.w3.org/2000/svg" xmlns:lc="http://www.librecad.org" xmlns:xlink="http://www.w3.org/1999/xlink" width="282.832mm" height="282.832mm" viewBox="-5 -5 292.832 292.832">
    <g lc:layername="0" lc:is_locked="false" lc:is_construction="false" fill="none" stroke="white" stroke-width="1">
        <circle cx="141.416" cy="141.416" r="141.416" stroke-width="5"/>
        <path fill="white" d="M173.80590985,193.99106446 L195.4112,206.9816 A113.00641357,113.00641357 0 0,1 141.416,221.1232 A113.00641357,113.00641357 0 0,1 87.4208,206.9816 L109.02609015,193.99106446 A57.98469777,57.98469777 0 0,0 173.80590985,193.99106446 Z "/>
        <path fill="white" d="M109.02609015,193.99106446 A3.58281369,3.58281369 0 0,1 112.9449553,187.99200523 L109.81820119,170.15844082 A14.47844991,14.47844991 0 1,1 109.81820119,141.20154099 L83.564,127.2744 A19.85036399,19.85036399 0 1,0 61.7088,159.4144 A50.51486917,50.51486917 0 0,0 87.4208,206.9816 L109.02609015,193.99106446 Z "/>
        <path fill="white" d="M169.8870447,187.99200523 A3.58281369,3.58281369 0 1,1 173.80590985,193.99106446 L195.4112,206.9816 A50.51486917,50.51486917 0 0,0 221.1232,159.4144 A19.85036399,19.85036399 0 1,0 199.268,127.2744 L173.01379881,141.20154099 A14.47844991,14.47844991 0 1,1 173.01379881,170.15844082 L169.8870447,187.99200523 Z "/>
        <path fill="white" d="M199.268,127.2744 L173.01379881,141.20154099 A14.47844991,14.47844991 0 0,0 173.01379881,170.15844082 L169.8870447,187.99200523 A52.05917772,52.05917772 0 0,1 112.9449553,187.99200523 L109.81820119,170.15844082 A14.47844991,14.47844991 0 0,0 109.81820119,141.20154099 L83.564,127.2744 A105.88388929,105.88388929 0 0,1 137.5592,110.5616 L149.1296,59.1376 L185.99937103,67.10774444 A14.05363663,14.05363663 0 1,1 184.57713124,73.43110321 L154.27261134,66.94110868 L145.2728,110.5616 A105.88388929,105.88388929 0 0,1 199.268,127.2744 Z "/>
    </g>
</svg>
