<?xml version="1.0"?>
<svg xmlns="http://www.w3.org/2000/svg" xmlns:lc="http://www.librecad.org" xmlns:xlink="http://www.w3.org/1999/xlink" width="282.84271247mm" height="282.84271247mm" viewBox="-1 -1 284.84271247 284.84271247">
    <g lc:layername="0" lc:is_locked="false" lc:is_construction="false" fill="none" stroke="white" stroke-width="1">
        <circle cx="141.42135624" cy="141.42135624" r="141.42135624"/>
        <path d="M51.42135624,121.42135624 A30.8468769,30.8468769 0 0,0 79.10084816,73.4790699 "/>
        <path d="M51.42135624,161.42135624 A30.8468769,30.8468769 0 0,1 79.10084816,209.36364258 "/>
        <path d="M113.74186431,229.36364258 A30.8468769,30.8468769 0 0,1 169.10084816,229.36364258 "/>
        <path d="M203.74186431,209.36364258 A30.8468769,30.8468769 0 0,1 231.42135624,161.42135624 "/>
        <path d="M231.42135624,121.42135624 A30.8468769,30.8468769 0 0,1 203.74186431,73.4790699 "/>
        <path d="M169.10084816,53.4790699 A30.8468769,30.8468769 0 0,1 113.74186431,53.4790699 "/>
        <circle cx="141.42135624" cy="141.42135624" r="42.42640687"/>
        <line x1="51.42135624" y1="121.42135624" x2="41.42135624" y2="121.42135624"/>
        <line x1="41.42135624" y1="121.42135624" x2="41.42135624" y2="161.42135624"/>
        <line x1="41.42135624" y1="161.42135624" x2="51.42135624" y2="161.42135624"/>
        <line x1="231.42135624" y1="121.42135624" x2="241.42135624" y2="121.42135624"/>
        <line x1="241.42135624" y1="121.42135624" x2="241.42135624" y2="161.42135624"/>
        <line x1="241.42135624" y1="161.42135624" x2="231.42135624" y2="161.42135624"/>
        <line x1="79.10084816" y1="209.36364258" x2="74.10084816" y2="218.02389662"/>
        <line x1="74.10084816" y1="218.02389662" x2="108.74186431" y2="238.02389662"/>
        <line x1="108.74186431" y1="238.02389662" x2="113.74186431" y2="229.36364258"/>
        <line x1="169.10084816" y1="53.4790699" x2="174.10084816" y2="44.81881586"/>
        <line x1="174.10084816" y1="44.81881586" x2="208.74186431" y2="64.81881586"/>
        <line x1="208.74186431" y1="64.81881586" x2="203.74186431" y2="73.4790699"/>
        <line x1="113.74186431" y1="53.4790699" x2="108.74186431" y2="44.81881586"/>
        <line x1="108.74186431" y1="44.81881586" x2="74.10084816" y2="64.81881586"/>
        <line x1="74.10084816" y1="64.81881586" x2="79.10084816" y2="73.4790699"/>
        <line x1="203.74186431" y1="209.36364258" x2="208.74186431" y2="218.02389662"/>
        <line x1="208.74186431" y1="218.02389662" x2="174.10084816" y2="238.02389662"/>
        <line x1="174.10084816" y1="238.02389662" x2="169.10084816" y2="229.36364258"/>
    </g>
</svg>
