<?xml version="1.0"?>
<svg xmlns="http://www.w3.org/2000/svg" xmlns:lc="http://www.librecad.org" xmlns:xlink="http://www.w3.org/1999/xlink" width="282.84271247mm" height="282.84271247mm" viewBox="-5 -5 292.84271247 292.84271247">
    <g lc:layername="0" lc:is_locked="false" lc:is_construction="false" fill="none" stroke="white" stroke-width="5">
        <circle cx="141.42135624" cy="141.42135624" r="141.42135624"/>
        <circle fill="black" cx="141.42135624" cy="141.42135624" r="42.42640687"/>
        <path fill="white" d="M203.74186431,73.4790699 A30.8468769,30.8468769 0 0,0 231.42135624,121.42135624 L241.42135624,121.42135624 L241.42135624,161.42135624 L231.42135624,161.42135624 A30.8468769,30.8468769 0 0,0 203.74186431,209.36364258 L208.74186431,218.02389662 L174.10084816,238.02389662 L169.10084816,229.36364258 A30.8468769,30.8468769 0 0,0 113.74186431,229.36364258 L108.74186431,238.02389662 L74.10084816,218.02389662 L79.10084816,209.36364258 A30.8468769,30.8468769 0 0,0 51.42135624,161.42135624 L41.42135624,161.42135624 L41.42135624,121.42135624 L51.42135624,121.42135624 A30.8468769,30.8468769 0 0,0 79.10084816,73.4790699 L74.10084816,64.81881586 L108.74186431,44.81881586 L113.74186431,53.4790699 A30.8468769,30.8468769 0 0,0 169.10084816,53.4790699 L174.10084816,44.81881586 L208.74186431,64.81881586 L203.74186431,73.4790699 Z "/>
    </g>
</svg>
