<?xml version="1.0"?>
<svg xmlns="http://www.w3.org/2000/svg" xmlns:lc="http://www.librecad.org" xmlns:xlink="http://www.w3.org/1999/xlink" width="284.76547851mm" height="284.76547851mm" viewBox="-5 -5 294.76547851 294.76547851">
    <g lc:layername="0" lc:is_locked="false" lc:is_construction="false" fill="none" stroke="white" stroke-width="1">
        <circle cx="142.38273926" cy="142.38273926" r="142.38273926" stroke-width="5"/>
        <path fill="white" d="M207.30553926,76.81713926 A39.11400148,39.11400148 0 0,0 141.09713926,112.81393926 A112.26173588,112.26173588 0 0,1 60.10433926,72.31753926 A39.06562947,39.06562947 0 0,0 72.31753926,124.38433926 A36.00101637,36.00101637 0 0,1 54.31913926,119.24193926 A39.89859053,39.89859053 0 0,0 85.81633926,158.45273926 A61.52942576,61.52942576 0 0,1 68.46073926,159.73833926 A38.71412154,38.71412154 0 0,0 105.10033926,186.09313926 A75.25692439,75.25692439 0 0,1 47.89113926,202.80593926 A111.41396291,111.41396291 0 0,0 218.87593926,103.17193926 A70.8426663,70.8426663 0 0,0 237.51713926,83.24513926 A58.74799028,58.74799028 0 0,1 215.66193926,89.03033926 A37.58322633,37.58322633 0 0,0 232.37473926,67.81793926 A68.54464174,68.54464174 0 0,1 207.30553926,76.81713926 Z "/>
    </g>
</svg>
