<?xml version="1.0"?>
<svg xmlns="http://www.w3.org/2000/svg" xmlns:lc="http://www.librecad.org" xmlns:xlink="http://www.w3.org/1999/xlink" width="282.84271247mm" height="282.84271247mm" viewBox="-5 -5 292.84271247 292.84271247">
    <g lc:layername="0" lc:is_locked="false" lc:is_construction="false" fill="none" stroke="white" stroke-width="5">
        <circle cx="141.42135624" cy="141.42135624" r="141.42135624"/>
        <path fill="white" d="M146.42135624,106.42135624 L76.42135624,106.42135624 L76.42135624,116.42135624 L146.42135624,116.42135624 L146.42135624,106.42135624 Z "/>
        <path fill="white" d="M162.65241249,142.65241249 L221.42135624,201.42135624 L231.42135624,211.42135624 L211.42135624,231.42135624 L201.42135624,221.42135624 L142.65241249,162.65241249 "/>
        <path fill="white" d="M161.42135624,111.42135624 A50,50 0 1,1 61.42135624,111.42135624 L51.42135624,111.42135624 A60,60 0 0,0 171.42135624,111.42135624 L161.42135624,111.42135624 Z "/>
        <path fill="white" d="M61.42135624,111.42135624 A50,50 0 1,1 161.42135624,111.42135624 L171.42135624,111.42135624 A60,60 0 0,0 51.42135624,111.42135624 L61.42135624,111.42135624 Z "/>
    </g>
</svg>
