<?xml version="1.0" encoding="UTF-8" standalone="no"?>
<!-- Created with Inkscape (http://www.inkscape.org/) -->

<svg
   xmlns:dc="http://purl.org/dc/elements/1.1/"
   xmlns:cc="http://creativecommons.org/ns#"
   xmlns:rdf="http://www.w3.org/1999/02/22-rdf-syntax-ns#"
   xmlns:svg="http://www.w3.org/2000/svg"
   xmlns="http://www.w3.org/2000/svg"
   xmlns:sodipodi="http://sodipodi.sourceforge.net/DTD/sodipodi-0.dtd"
   xmlns:inkscape="http://www.inkscape.org/namespaces/inkscape"
   width="100"
   height="100"
   viewBox="0 0 26.458333 26.458334"
   version="1.1"
   id="svg8"
   inkscape:version="0.92.2 (5c3e80d, 2017-08-06)"
   sodipodi:docname="planet-5.svg">
  <defs
     id="defs2" />
  <sodipodi:namedview
     id="base"
     pagecolor="#ffffff"
     bordercolor="#666666"
     borderopacity="1.0"
     inkscape:pageopacity="0.0"
     inkscape:pageshadow="2"
     inkscape:zoom="2.8"
     inkscape:cx="13.692484"
     inkscape:cy="36.458725"
     inkscape:document-units="mm"
     inkscape:current-layer="layer1"
     showgrid="false"
     units="px"
     inkscape:snap-global="false"
     inkscape:window-width="1920"
     inkscape:window-height="1017"
     inkscape:window-x="-8"
     inkscape:window-y="-8"
     inkscape:window-maximized="1"
     inkscape:snap-bbox="true"
     inkscape:bbox-nodes="true"
     inkscape:bbox-paths="true"
     inkscape:snap-bbox-edge-midpoints="true"
     inkscape:snap-bbox-midpoints="true"
     inkscape:object-paths="true"
     inkscape:snap-intersection-paths="true"
     inkscape:snap-smooth-nodes="true"
     inkscape:snap-midpoints="true" />
  <metadata
     id="metadata5">
    <rdf:RDF>
      <cc:Work
         rdf:about="">
        <dc:format>image/svg+xml</dc:format>
        <dc:type
           rdf:resource="http://purl.org/dc/dcmitype/StillImage" />
        <dc:title></dc:title>
      </cc:Work>
    </rdf:RDF>
  </metadata>
  <g
     inkscape:label="Layer 1"
     inkscape:groupmode="layer"
     id="layer1"
     transform="translate(0,-270.54165)">
    <circle
       style="opacity:1;fill:#0000ff;stroke:none;stroke-width:0.34537715;stroke-opacity:1"
       id="path815"
       cx="13.323661"
       cy="283.81805"
       r="13.229167" />
    <path
       style="opacity:1;fill:#550000;stroke:none;stroke-width:0.34537715;stroke-opacity:1"
       d="m 16.536951,274.7748 c -0.117823,0.41607 -0.873827,0.65443 -1.111542,1.07213 -0.157084,0.27602 0.01364,1.01926 -0.274835,0.89684 -0.508702,-0.21589 -1.336996,-0.0103 -1.991877,0.45788 -0.732503,0.52368 -1.280675,1.31658 -1.578113,1.02277 -0.286675,-0.28318 -0.131129,-0.75107 -0.267992,-1.02013 -0.49515,-0.97344 -0.784638,-0.2652 -0.876298,-1.07821 -0.01328,-0.11783 0.164082,-1.21755 0.372143,-1.81615 0.154017,-0.44311 0.330803,-0.17275 0.358004,-0.61202 0.04595,-0.74207 -0.618797,-1.3542 -0.291994,-1.68702 0.769951,-0.78412 1.452475,-1.3189 2.35472,-1.46924 2.382739,0 4.618349,0.62994 6.549375,1.73235 -0.781812,1.75824 -2.990468,1.614 -3.241591,2.5008 z"
       id="circle817"
       inkscape:connector-curvature="0"
       sodipodi:nodetypes="ssssssssssccs" />
    <path
       style="fill:#550000;stroke:none;stroke-width:0.26458332px;stroke-linecap:butt;stroke-linejoin:miter;stroke-opacity:1"
       d="m 9.9679493,272.95383 c -0.1465955,-0.003 -0.367806,0.0639 -0.455736,0.15673 -0.043785,0.0462 -0.1635008,0.45148 -0.3484503,0.57847 -0.1863834,0.12798 -0.3609528,0.36755 -0.3317091,0.43411 0.058262,0.13261 0.4925878,-0.0633 0.5973032,-0.12993 0.1047154,-0.0666 0.3055728,-0.0645 0.2713225,-0.3378 -0.03425,-0.27335 0.9876134,-0.0261 1.0022614,-0.16704 0.0089,-0.0853 -0.279232,-0.43331 -0.484686,-0.56025 -0.134146,-0.0829 -0.192402,0.0268 -0.2503057,0.0258 z"
       id="path820"
       inkscape:connector-curvature="0"
       sodipodi:nodetypes="cssszzsssc" />
    <path
       style="opacity:1;fill:#550000;stroke:none;stroke-width:0.34537715;stroke-opacity:1"
       d="m 26.552828,283.81805 c 2e-6,7.30627 -5.922899,13.22917 -13.229167,13.22917 -1.600889,-0.71394 -0.291511,-2.25285 -0.416335,-2.72389 -0.215092,-0.8117 -0.798441,-0.14748 -0.521755,-1.06094 0.240752,-0.79483 -2.126272,-0.64258 -1.65815,-1.26307 0.114366,-0.15159 -0.02415,-0.67281 0.08052,-0.79158 0.210669,-0.23903 0.391479,-0.19259 0.501292,-0.26685 0.51514,-0.34839 0.213222,0.3442 0.758387,-0.22924 0.33984,-0.35746 0.80399,-1.45868 1.121686,-2.07906 0.167748,-0.32757 0.06972,-1.10059 -0.63169,-1.23665 -0.146527,-0.0284 -0.350324,-0.003 -0.551994,-0.0334 -0.146003,-0.022 -0.288081,-0.0928 -0.41999,-0.14009 -0.348131,-0.12467 0.0447,-0.50069 -0.12236,-0.72688 -0.373493,-0.50568 -0.72974,-1.49966 -0.885275,-2.02599 -0.134479,-0.45507 -0.447816,-0.54251 -0.7030772,-0.68051 -0.1752448,-0.0947 -0.3716887,-0.30164 -0.2694603,-0.31381 1.8159725,-0.21624 2.0451795,1.38694 2.5982835,1.34782 0.316853,-0.0224 0.627439,-0.25082 0.810325,-0.54161 0.137803,-0.2191 0.02593,-0.43025 0.282749,-0.24302 0.239094,0.17431 0.0729,0.61758 0.302606,0.83404 0.757294,0.71363 1.861062,1.27 2.487095,1.13149 0.190102,-0.0421 1.109123,-0.0534 1.900012,-0.85349 0.266696,-0.2698 0.393197,-1.38304 0.640991,-1.60501 0.347511,-0.31131 0.565551,-0.22886 0.785201,-0.43519 0.586335,-0.55078 0.385303,0.96627 0.485854,0.96115 0.505436,-0.0258 0.367614,0.45421 0.872798,0.74133 0.721101,0.40983 1.683957,0.40613 2.191594,0.36753 0.896067,-0.0681 1.157178,-1.31475 1.712868,-1.55694 0.616886,-0.26886 0.481223,-1.22899 1.369087,-0.87388 0.261782,0.1047 0.362634,0.6795 0.507904,1.0686 z"
       id="circle822"
       inkscape:connector-curvature="0"
       sodipodi:nodetypes="ccssssssssssssssssssssssssssscc" />
    <path
       style="opacity:1;fill:#550000;stroke:none;stroke-width:0.34537715;stroke-opacity:1"
       d="m 6.440796,283.6176 c 0.010158,0.16538 -0.2051799,0.49134 -0.1206953,0.95916 0.057304,0.31731 -0.1874797,0.0154 -0.4953985,0.30956 -0.7406352,0.70761 -1.8009601,1.8015 -2.206266,2.07147 -0.3033649,0.20206 -0.5106543,0.40018 -0.5745524,0.98232 -0.021703,0.19773 0.2458762,0.41528 0.1138804,0.63699 -0.2003051,0.33645 -0.3102854,0.35525 -0.4051363,0.58359 -0.1825395,0.43942 -0.2716134,0.99352 -0.7111396,1.56917 -1.23491879,-2.01146 -1.946995,-4.37848 -1.94699443,-6.91181 2.1e-7,-0.94286 -0.01326493,-1.44484 0.34151405,-2.00111 0.35383728,-0.55479 1.07527038,-1.16485 1.41315468,-1.38023 0.5470336,-0.34871 0.6762732,-0.16755 0.9781075,-0.56308 0.3470519,-0.45479 0.5468601,-0.73061 0.6347432,-0.34196 0.089142,0.39422 0.065172,1.45981 0.2546046,1.96547 0.2174789,0.58052 1.047482,0.71611 1.2474594,0.78886 0.383977,0.13967 0.2893172,0.81686 0.6660584,1.12087 0.2381516,0.19218 0.7877736,-0.16187 0.8106603,0.21073 z"
       id="circle825"
       inkscape:connector-curvature="0"
       sodipodi:nodetypes="ssssssscsssssssss" />
    <path
       style="fill:#550000;stroke:none;stroke-width:0.26458332px;stroke-linecap:butt;stroke-linejoin:miter;stroke-opacity:1"
       d="m 20.345893,277.58953 c -0.193084,-0.004 -0.722142,0.0414 -0.78772,0.17418 -0.106929,0.21637 0.273892,0.58526 -0.181132,0.76127 -0.734083,0.28395 -2.812316,-0.84665 -3.374278,-0.10023 -0.386054,0.51277 -0.762003,-0.0769 -0.632382,0.34428 0.05534,0.1798 0.268718,0.41531 0.480213,0.75414 0.206859,0.33139 0.369428,0.97549 0.486256,1.10655 0.389956,0.43745 1.278209,0.44555 1.896237,0.43521 0.19989,-0.003 0.304205,0.28305 0.442371,0.19956 0.445659,-0.26929 0.24216,-0.78177 0.309243,-1.16657 0.01802,-0.10335 -0.07597,-0.27421 0.02484,-0.33682 0.34374,-0.2135 0.845938,0.22691 1.292149,0.40224 0.1719,0.0675 0.421507,0.007 0.537571,-0.0979 0.256587,-0.23227 0.576912,0.49571 0.685759,0.37589 0.180518,-0.19871 -0.115033,-0.70435 -0.179217,-1.12564 -0.02955,-0.19396 0.185413,-0.37005 0.169417,-0.49007 -0.02339,-0.17549 -0.101911,-0.36682 -0.214742,-0.54538 -0.233014,-0.36874 -0.872882,-0.8328 -0.954562,-0.69075 z"
       id="path828"
       inkscape:connector-curvature="0"
       sodipodi:nodetypes="csssssssssssssssssc" />
    <path
       style="opacity:1;fill:#550000;stroke:none;stroke-width:0.34537715;stroke-opacity:1"
       d="m 7.7771437,292.11176 c 0.00771,0.70283 0.7612945,0.88211 0.3347615,1.17698 -0.5928386,0.40985 0.4437507,2.16654 0.1555471,2.75786 -1.8591015,-0.76955 -3.50462,-1.95071 -4.8229267,-3.42985 1.1152557,-0.20905 0.8089069,-0.43716 1.2687198,-0.41312 0.4598129,0.024 0.4634579,-0.40634 0.9180645,0.15102 0.7490245,0.91833 2.1378076,-0.97493 2.1458338,-0.24289 z"
       id="circle830"
       inkscape:connector-curvature="0"
       sodipodi:nodetypes="sscczss" />
    <path
       style="opacity:1;fill:#550000;stroke:none;stroke-width:1.30536246;stroke-opacity:1"
       d="m 23.535821,7.9811789 c -4.068493,2.5943151 -7.74313,5.7358841 -10.903495,9.3821431 0.65561,0.672524 1.376922,1.482352 1.93994,2.716756 1.845252,4.04572 5.009788,0.710742 5.167968,4.677734 0.135165,3.389821 -2.27157,6.236432 -1.423828,8.181641 0.354798,0.812523 0.504168,0.353016 1.166016,-0.02539 0.465298,-0.265322 2.538978,-0.499455 4.126953,-0.285156 1.114071,0.150425 1.243635,-3.000006 1.697266,-3.5 1.214382,-1.338482 -0.182023,-1.46795 0.04297,-2.302734 0.353621,-1.31195 -3.372475,-4.181999 -1.061835,-6.038352 -0.07506,-0.584542 -1.373763,-2.17976 -1.128906,-3.164063 0.396253,-1.592957 1.727677,-3.345329 0.08203,-4.099609 -0.871728,-0.399575 -0.293099,-2.955696 0.294922,-5.5429691 z"
       transform="matrix(0.26458333,0,0,0.26458333,0,270.54165)"
       id="circle833"
       inkscape:connector-curvature="0"
       sodipodi:nodetypes="cccscccccccccc" />
  </g>
</svg>
