<svg version="1" xmlns="http://www.w3.org/2000/svg" width="933.333" height="933.333" viewBox="0 0 700.000000 700.000000"><path d="M299.8 29c-7.9 7.5-14.6 11-37.3 19.5-9.8 3.7-20.6 8.2-24 10-5.1 2.8-12 4.8-23.5 6.9-8.3 1.5-16 5.5-21.5 11-2.3 2.3-7.9 9.9-12.5 16.9-6.5 10-9.6 13.7-14.6 17.6-10.6 8.1-17.3 14.1-28.6 25.3-5.9 5.9-10.8 10.6-10.8 10.3 0-.2.4-1.4.9-2.8.5-1.3 1.2-4.8 1.6-7.8.4-3 .9-5.8 1.3-6.3.3-.5 0-.6-.5-.3-.9.6-1.5 2.4-2.9 9.5-.7 3.8-6.7 13.8-16.6 27.9-11.7 16.7-17.2 24.9-19.8 29.8-.9 1.6-3.1 5.7-5 9-6.4 11.6-15 30.1-15 32.4 0 .6-.3 1.1-.7 1.1-1.2 0-.6-16.9.8-21.9 1.9-7.4 7.5-18.1 13.2-25.6 6.3-8.4 8.6-12.2 11.5-19.5 4-10.2 5.8-21.1 5.3-33.9-.2-5.1-.7-3.6-2.5 6.4-1.9 11.1-8.4 30.3-12 35.3-1.4 2-4.6 5.9-7.1 8.7-2.5 2.7-6.6 9.1-9.1 14.2-2.5 5-4.8 9.4-5.1 9.7-.9.8-6-2.2-6.7-3.9-.9-2.4-.7-7.5.4-11.4.6-2.1.6-3.1 0-2.5-2.9 2.9-4.5 20.4-2.5 29.4.2 1.4.8 6.7 1.2 11.9.5 8.2.4 9.6-1.1 10.7-1.3.9-1.6 2-1.1 4.6 1.1 5.6 1.5 30.1.6 34.3-1.6 7-4.6 26.5-5.7 36.5-1.2 11.9-1.1 45.2.3 57 .7 6.3 1.5 13.1 1.7 15 .2 1.9 1.1 7.3 2.1 11.8.9 4.6 1.5 8.5 1.3 8.7-.5.5-13.2-16.2-21.4-28.1-7.6-11-12.1-22-13.1-32.2-.7-6.6-1.9-7.7-1.6-1.4 1 19 9.1 40.4 21.5 57.2 5 6.8 18.2 23.6 18.9 24 .8.5 6.9 17.7 6.9 19.3 0 1.4-4.5-1.5-7.8-5.2-1.9-2-4.5-5.8-5.9-8.6-2.1-4.1-2.4-5.4-1.5-7.7.7-1.8.7-3 0-3.4-1.4-.9-4.8 2.6-4.8 5 0 2.8 4.8 10.9 10.2 17.2C71.1 466.9 76 473 76 474.1c0 .5 1.1 3.3 2.5 6.2 1.9 4.1 2.1 4.7.6 2.9-1.1-1.2-2.1-2.8-2.4-3.5-.2-.6-.7-1-1-.7-1 1 4.1 10.2 7.9 14.3 2.3 2.3 6 7.6 8.4 11.7 5.3 9 13.5 21.2 20.2 29.8 2.7 3.5 4.7 6.6 4.4 6.9-1.5 1.5-5.9-2.3-10.5-9-7.4-11-12.7-16-22.7-21.5-5.9-3.1-7.9-2.7-2.4.5 6.4 3.7 8 5.1 13.5 11.4 6.3 7 7.9 9 13.7 16.4 2.5 3.3 6.3 7.6 8.3 9.5 2.1 1.9 7.5 8.4 12 14.5 4.5 6 9.6 12.3 11.2 13.8 2.6 2.4 22.8 11.7 25.5 11.7.5 0 3.5 1.9 6.6 4.3 13.7 10.5 33 22 50.3 30 16.5 7.7 18.6 8.8 16.4 8.3-1.9-.4-6.7-1-19-2.1-16.5-1.6-35-4.4-40.2-6.1-6.1-2.1-16.7-7.8-21.4-11.5-5.6-4.4-5.6-3.5-.1 1.4 18.9 16.4 39.1 23.2 77.7 26.2 19.2 1.5 25.9 2.9 28 5.8 2.3 3.3-.2 5.1-7.2 5.2-9.3.2-17.5-2.4-19.2-6.3-.6-1.3-1.6-2-2.1-1.7-1.6 1-1.2 5.1.8 6.7 3.5 3.1 8.8 4 34.2 5.3 5.2.3 12.9.8 17 1.1 4.1.3 9.5.8 11.9.9 7.2.5 17.5 1.6 19.1 2 1.5.4 4.4.8 20.5 2.9 5 .7 14.9 1.2 22 1.1 12.6-.2 13.4-.4 26.5-4.8 8.7-3 16-4.9 20.5-5.2 3.9-.3 8.1-.7 9.5-.9 1.4-.1 6.8-1.9 12-3.8 5.2-2 13.3-5 18-6.8 4.7-1.7 11.7-5.1 15.5-7.4 3.9-2.4 12.9-7.2 20-10.6 19.8-9.5 36.3-19.6 53-32.4 10.9-8.4 10.9-8.4 6.6-1.9-3.8 5.8-6.9 12.7-7.8 17.2-.2 1.4-.7 2.9-1 3.5-.3.6-.3.8 0 .5.4-.3 2.8-4.1 5.5-8.5 5.7-9.6 15.9-22.8 18.7-24.3 12.6-6.7 17.8-10.3 24.9-17.3 2.7-2.6 5.3-4.8 5.7-4.8.4 0 1.7 1.2 2.8 2.7 2.4 2.9 2.2 4.1-1.5 11.8l-2.3 5 2.5-3c4.4-5.2 8.7-16.2 9.9-25.5 1.3-9.2 3.5-15.9 5.9-17.5 1.4-1.1 2.6-4.3 4.2-11.5 1.9-8.1 4.1-13.8 11.8-29.3 10.4-21.2 15.9-34.9 20.5-50.7 3.3-11.4 6.7-25.4 7.5-31.1.3-2 .7-4.2 1-5 .5-1.4.9-4.5 2.2-15.8 1.1-9.8 1.1-10.4 1.3-13 .1-2.5 1-2.4 1.5.1.2.7.5 2 .9 2.8.3.8 1.9 7.1 3.7 13.9 4.1 15.9 4.2 26.2.6 40.2-.8 2.8-1 4.7-.6 4.2 1.1-1.2 3.1-7.7 5.1-16.7 2.2-9.7 1.9-29.6-.5-40.1-.9-3.9-1.9-8.1-2.2-9.5-.6-3-5.1-18.5-6.5-22-.5-1.4-1.1-4.8-1.3-7.5-.3-2.8-.8-8.8-1.1-13.5-.7-8.5-.7-8.5 1.3-6.7 5.2 4.7 8.6 19.2 5.8 24.8-2 4-2 3.9.3 3.9 2.6 0 4.2-2.3 4.6-6.6.4-3.7-.8-7.8-12.5-41.9-3.3-9.9-6.9-21.1-8-24.8l-1.9-6.9 2.4 1.6c2.9 1.9 4.7 2.1 2.3.3-.9-.7-2.5-3.1-3.7-5.3-1.7-3.3-2-5.5-1.8-14.1.2-10.1.2-10.2-3.2-15-6.1-8.6-4-12.2 3-5.1 4.1 4.2 4.1 4.2 2.3.9-1-1.8-3.6-4.7-5.7-6.5-2.6-2-5.1-5.7-7.7-11.1-6.8-14.5-19-29.4-30.5-37.5-2.2-1.5-6.2-5.6-9-9.1-2.7-3.5-5.2-6.6-5.5-6.9-.3-.3-3.4-3.9-7-8-7.5-8.7-17.3-18.4-28.5-28.2-4.4-3.9-8.7-7.7-9.5-8.5-.8-.8 1-.3 4.1 1.1 7.5 3.3 14.1 5 23.7 6.1 4.4.5 2.1-1-5.2-3.3-12.6-4.1-27.6-12.4-33-18.4-10.2-11.2-13.1-13.9-19.2-18.1-3.5-2.3-6.4-4.7-6.4-5.3 0-1.9 4.6-5.4 7.2-5.4 1.4 0 4.5.7 6.8 1.5 6.4 2.2 5.9 1.2-.7-1.8-6.3-2.8-15.4-4.1-27.8-3.9-9.3.1-15.5-1.1-16.7-3.1-.6-1.1-3-1.5-9.3-1.6-14.8-.3-22-1.8-24-5.1-1.2-1.9-10.7-6.1-18.3-8.1-5-1.3-10.5-2-15.7-1.9-4.4.1-10.5.2-13.5.2-3 .1-8-.2-11-.7-6.5-.9-8.8-.9-15.5.5-2.8.6-12 1.3-20.5 1.5-8.5.3-18.4.7-22 1l-6.5.5 3-2.4c6.5-5.3 17.9-9.7 27.5-10.6 3.6-.3-2.7-1.6-6.7-1.4-6.9.5-11.6 2.1-18.1 6.4-3.4 2.1-7.6 4.7-9.3 5.5-3.9 2.1-17.1 6.1-22.4 6.8-3.8.6-21.6 5.1-31.5 8-2.5.7-5.1 1.2-5.7 1.1-.7-.1-1.7-.2-2.3-.3-1.4-.1-1.2-3.3.3-5.1 1-1.4 6.2-4 9.2-4.7 10.9-2.6 17.8-4.9 24.4-8.3 3.7-1.8 13.8-11.1 17.1-15.5.8-1.1 2.1-2.8 2.9-3.8 2.8-3.5-.1-1.5-6.1 4.3zm202.8 53.6c5.7 2.8 10 6 16.3 12.1l8.6 8.4-9-5.9c-9.9-6.4-24.8-15.2-25.8-15.2-.4 0-2.1-.9-3.9-2.1l-3.3-2.1 4.7.5c2.5.2 8.1 2.1 12.4 4.3zM82.8 488.5c-.3.3-.9-.2-1.2-1.2-.6-1.4-.5-1.5.5-.6.7.7 1 1.5.7 1.8zm503.1 57.1c-4.3 7.2-10.8 14.1-17.9 19-6 4.1-5.5 3.1 3.3-6.1 3.2-3.3 8.3-9 11.5-12.7 3.1-3.6 5.9-6.5 6.1-6.3.2.3-1.1 3-3 6.1z"/></svg>