<?xml version="1.0"?>
<svg xmlns="http://www.w3.org/2000/svg" xmlns:lc="http://www.librecad.org" xmlns:xlink="http://www.w3.org/1999/xlink" width="282.84271247mm" height="282.84271247mm" viewBox="-5 -5 292.84271247 292.84271247">
    <g lc:layername="0" lc:is_locked="false" lc:is_construction="false" fill="none" stroke="white" stroke-width="1">
        <circle cx="141.42135624" cy="141.42135624" r="141.42135624" stroke-width="5"/>
        <path fill="white" d="M176.42135624,86.42135624 A25,25 0 0,0 151.42135624,111.42135624 L151.42135624,131.42135624 L131.42135624,131.42135624 L131.42135624,151.42135624 L151.42135624,151.42135624 L151.42135624,221.42135624 L81.42135624,221.42135624 A20,20 0 0,1 61.42135624,201.42135624 L61.42135624,81.42135624 A20,20 0 0,1 81.42135624,61.42135624 L201.42135624,61.42135624 A20,20 0 0,1 221.42135624,81.42135624 L221.42135624,201.42135624 A20,20 0 0,1 201.42135624,221.42135624 L171.42135624,221.42135624 L171.42135624,151.42135624 L191.42135624,151.42135624 L195.42135624,131.42135624 L171.42135624,131.42135624 L171.42135624,111.42135624 A5,5 0 0,1 176.42135624,106.42135624 L195.42135624,106.42135624 L195.42135624,86.42135624 L175.42135624,86.42135624 "/>
    </g>
</svg>
