<?xml version="1.0" encoding="UTF-8" standalone="no"?>
<svg
   xmlns:lc="http://www.librecad.org"
   xmlns:dc="http://purl.org/dc/elements/1.1/"
   xmlns:cc="http://creativecommons.org/ns#"
   xmlns:rdf="http://www.w3.org/1999/02/22-rdf-syntax-ns#"
   xmlns:svg="http://www.w3.org/2000/svg"
   xmlns="http://www.w3.org/2000/svg"
   xmlns:sodipodi="http://sodipodi.sourceforge.net/DTD/sodipodi-0.dtd"
   xmlns:inkscape="http://www.inkscape.org/namespaces/inkscape"
   width="282.84271247mm"
   height="282.84271247mm"
   viewBox="-5 -5 292.84271247 292.84271247"
   version="1.1"
   id="svg24"
   sodipodi:docname="move.svg"
   inkscape:version="0.92.2 (5c3e80d, 2017-08-06)">
  <metadata
     id="metadata30">
    <rdf:RDF>
      <cc:Work
         rdf:about="">
        <dc:format>image/svg+xml</dc:format>
        <dc:type
           rdf:resource="http://purl.org/dc/dcmitype/StillImage" />
      </cc:Work>
    </rdf:RDF>
  </metadata>
  <defs
     id="defs28" />
  <sodipodi:namedview
     pagecolor="#ffffff"
     bordercolor="#666666"
     borderopacity="1"
     objecttolerance="10"
     gridtolerance="10"
     guidetolerance="10"
     inkscape:pageopacity="0"
     inkscape:pageshadow="2"
     inkscape:window-width="1920"
     inkscape:window-height="1017"
     id="namedview26"
     showgrid="false"
     inkscape:zoom="0.22076463"
     inkscape:cx="-201.57215"
     inkscape:cy="534.50591"
     inkscape:window-x="-8"
     inkscape:window-y="-8"
     inkscape:window-maximized="1"
     inkscape:current-layer="svg24" />
  <g
     lc:layername="0"
     lc:is_locked="false"
     lc:is_construction="false"
     fill="none"
     stroke="white"
     stroke-width="1"
     id="g22">
    <circle
       cx="141.42135624"
       cy="141.42135624"
       r="141.42135624"
       stroke-width="5"
       id="circle2" />
    <circle
       fill="white"
       cx="141.42135624"
       cy="141.42135624"
       r="20"
       stroke-width="5"
       id="circle4" />
    <circle
       fill="white"
       cx="199.88281934"
       cy="175.55263618"
       r="9.41614739"
       id="circle6" />
    <circle
       fill="white"
       cx="82.23755284"
       cy="135.33921522"
       r="9.03952305"
       id="circle8" />
    <path
       d="M194.06840345,179.06840345 C162.43970389,196.34604542 114.1494439,195.26147229 84.58656116,176.60950048 C55.02367841,157.95752867 53.74408642,127.76722614 81.68551882,108.16319389 C109.62695122,88.55916165 157.75761251,85.8782119 190.80552502,102.08504651 C223.85343752,118.29188112 231.13618585,148.14779887 207.31669526,169.77324863 "
       stroke-width="5"
       id="path10" />
    <path
       d="M86.06441232,127.1497022 C97.95804282,109.6063256 129.94404427,100.42781928 159.36733416,106.11514641 C188.79062406,111.80247354 206.55760774,130.59790249 200.08426522,149.18898487 C193.61092271,167.78006725 164.89791244,180.42102247 134.28211889,178.15850001 C103.66632534,175.89597754 80.60989969,159.42923508 81.44327405,140.42135624 "
       stroke-width="5"
       id="path12" />
    <path
       fill="white"
       d="M231.42135624,151.42135624 L231.42135624,131.42135624 L241.42135624,131.42135624 L241.42135624,121.42135624 L261.42135624,141.42135624 L241.42135624,161.42135624 L241.42135624,151.42135624 L231.42135624,151.42135624 Z "
       stroke-width="5"
       id="path14" />
    <path
       fill="white"
       d="M161.42135624,241.42135624 L141.42135624,261.42135624 L121.42135624,241.42135624 L131.42135624,241.42135624 L131.42135624,231.42135624 L151.42135624,231.42135624 L151.42135624,241.42135624 L161.42135624,241.42135624 Z "
       stroke-width="5"
       id="path16" />
    <path
       fill="white"
       d="M51.42135624,131.42135624 L41.42135624,131.42135624 L41.42135624,121.42135624 L21.42135624,141.42135624 L41.42135624,161.42135624 L41.42135624,151.42135624 L51.42135624,151.42135624 L51.42135624,131.42135624 Z "
       stroke-width="5"
       id="path18" />
    <path
       fill="white"
       d="M131.42135624,41.42135624 L121.42135624,41.42135624 L141.42135624,21.42135624 L161.42135624,41.42135624 L151.42135624,41.42135624 L151.42135624,51.42135624 L131.42135624,51.42135624 L131.42135624,41.42135624 Z "
       stroke-width="5"
       id="path20" />
  </g>
</svg>
