<?xml version="1.0" encoding="UTF-8" standalone="no"?>
<svg
   xmlns:dc="http://purl.org/dc/elements/1.1/"
   xmlns:cc="http://creativecommons.org/ns#"
   xmlns:rdf="http://www.w3.org/1999/02/22-rdf-syntax-ns#"
   xmlns:svg="http://www.w3.org/2000/svg"
   xmlns="http://www.w3.org/2000/svg"
   xmlns:sodipodi="http://sodipodi.sourceforge.net/DTD/sodipodi-0.dtd"
   xmlns:inkscape="http://www.inkscape.org/namespaces/inkscape"
   width="282.84271247mm"
   height="282.84271247mm"
   viewBox="-5 -5 292.84271247 292.84271247"
   version="1.1"
   id="svg24"
   sodipodi:docname="move.svg"
   inkscape:version="0.92.2 (5c3e80d, 2017-08-06)">
  <metadata
     id="metadata30">
    <rdf:RDF>
      <cc:Work
         rdf:about="">
        <dc:format>image/svg+xml</dc:format>
        <dc:type
           rdf:resource="http://purl.org/dc/dcmitype/StillImage" />
      </cc:Work>
    </rdf:RDF>
  </metadata>
  <defs
     id="defs28" />
  <sodipodi:namedview
     pagecolor="#ffffff"
     bordercolor="#666666"
     borderopacity="1"
     objecttolerance="10"
     gridtolerance="10"
     guidetolerance="10"
     inkscape:pageopacity="0"
     inkscape:pageshadow="2"
     inkscape:window-width="1920"
     inkscape:window-height="1017"
     id="namedview26"
     showgrid="false"
     inkscape:zoom="0.44152926"
     inkscape:cx="270.03759"
     inkscape:cy="537.41181"
     inkscape:window-x="-8"
     inkscape:window-y="-8"
     inkscape:window-maximized="1"
     inkscape:current-layer="svg24" />
  <circle
     style="fill:none;stroke:#ffffff;stroke-width:5"
     id="circle2"
     r="141.42136"
     cy="141.42136"
     cx="141.42136" />
  <circle
     style="fill:#008000;stroke:#008000;stroke-width:5;stroke-opacity:1"
     id="circle4"
     r="20"
     cy="141.42136"
     cx="141.42136" />
  <circle
     style="fill:#a02c2c;stroke:#a02c2c;stroke-width:1;stroke-opacity:1"
     id="circle6"
     r="9.4161472"
     cy="175.55264"
     cx="199.88281" />
  <circle
     style="fill:#0044aa;stroke:#0044aa;stroke-width:1;stroke-opacity:1"
     id="circle8"
     r="9.0395231"
     cy="135.33922"
     cx="82.237556" />
  <path
     style="fill:none;stroke:#ffffff;stroke-width:5"
     inkscape:connector-curvature="0"
     id="path10"
     d="M 194.0684,179.0684 C 162.4397,196.34605 114.14944,195.26147 84.586561,176.6095 55.023678,157.95753 53.744086,127.76723 81.685519,108.16319 109.62695,88.559162 157.75761,85.878212 190.80553,102.08505 c 33.04791,16.20683 40.33066,46.06275 16.51117,67.6882" />
  <path
     style="fill:none;stroke:#ffffff;stroke-width:5"
     inkscape:connector-curvature="0"
     id="path12"
     d="m 86.064412,127.1497 c 11.893631,-17.54337 43.879628,-26.72188 73.302918,-21.03455 29.42329,5.68732 47.19028,24.48275 40.71694,43.07383 -6.47335,18.59109 -35.18636,31.23204 -65.80215,28.96952 -30.61579,-2.26252 -53.67222,-18.72926 -52.838846,-37.73714" />
  <path
     style="fill:#808080;stroke:#808080;stroke-width:5;stroke-opacity:1"
     inkscape:connector-curvature="0"
     id="path14"
     d="m 231.42136,151.42136 v -20 h 10 v -10 l 20,20 -20,20 v -10 z" />
  <path
     style="fill:#808080;stroke:#808080;stroke-width:5;stroke-opacity:1"
     inkscape:connector-curvature="0"
     id="path16"
     d="m 161.42136,241.42136 -20,20 -20,-20 h 10 v -10 h 20 v 10 z" />
  <path
     style="fill:#808080;stroke:#808080;stroke-width:5;stroke-opacity:1"
     inkscape:connector-curvature="0"
     id="path18"
     d="m 51.421356,131.42136 h -10 v -10 l -20,20 20,20 v -10 h 10 z" />
  <path
     style="fill:#808080;stroke:#808080;stroke-width:5;stroke-opacity:1"
     inkscape:connector-curvature="0"
     id="path20"
     d="m 131.42136,41.421356 h -10 l 20,-20 20,20 h -10 v 10 h -20 z" />
</svg>
