<?xml version="1.0"?>
<svg xmlns="http://www.w3.org/2000/svg" xmlns:lc="http://www.librecad.org" xmlns:xlink="http://www.w3.org/1999/xlink" width="282.84271247mm" height="282.84271247mm" viewBox="-5 -5 292.84271247 292.84271247">
    <g lc:layername="0" lc:is_locked="false" lc:is_construction="false" fill="none" stroke="white" stroke-width="1">
        <circle cx="141.42135624" cy="141.42135624" r="141.42135624" stroke-width="5"/>
        <path fill="white" d="M225.56349186,151.42135624 A14.14213562,14.14213562 0 1,1 211.42135624,137.27922061 L198.05254584,124.4185242 A14.14213562,14.14213562 0 1,1 198.05254584,96.13425295 L177.19468147,84.8474001 A14.14213562,14.14213562 0 1,1 148.91041022,84.8474001 L133.93230225,84.8474001 A14.14213562,14.14213562 0 1,1 105.64803101,84.8474001 L84.79016663,96.13425295 A14.14213562,14.14213562 0 1,1 84.79016663,124.4185242 L71.42135624,137.27922061 A14.14213562,14.14213562 0 1,1 57.27922061,151.42135624 L41.42135624,151.42135948 A78.28427125,78.28427125 0 0,0 119.70562748,229.70563072 L141.42135624,229.70563072 A8.28427125,8.28427125 0 0,0 147.27922061,215.5634951 A20,20 0 0,1 161.42135624,181.42135948 L211.42135624,181.42135948 A30.00000162,30.00000162 0 0,0 241.42135624,151.42135624 L225.56349186,151.42135624 Z "/>
        <path fill="white" d="M133.93230225,84.8474001 L148.91041022,84.8474001 A14.14213562,14.14213562 0 1,1 177.19468147,84.8474001 L198.05254584,96.13425295 A14.14213562,14.14213562 0 1,1 198.05254584,124.4185242 L211.42135624,137.27922061 A14.14213562,14.14213562 0 0,1 225.56349186,151.42135624 L241.42135624,151.42135624 A100,100 0 0,0 41.42135624,151.42135948 L57.27922061,151.42135624 A14.14213562,14.14213562 0 0,1 71.42135624,137.27922061 L84.79016663,124.4185242 A14.14213562,14.14213562 0 1,1 84.79016663,96.13425295 L105.64803101,84.8474001 A14.14213562,14.14213562 0 1,1 133.93230225,84.8474001 Z "/>
    </g>
</svg>
