<?xml version="1.0" encoding="UTF-8" standalone="no"?>
<!-- Created with Inkscape (http://www.inkscape.org/) -->

<svg
   xmlns:dc="http://purl.org/dc/elements/1.1/"
   xmlns:cc="http://creativecommons.org/ns#"
   xmlns:rdf="http://www.w3.org/1999/02/22-rdf-syntax-ns#"
   xmlns:svg="http://www.w3.org/2000/svg"
   xmlns="http://www.w3.org/2000/svg"
   xmlns:sodipodi="http://sodipodi.sourceforge.net/DTD/sodipodi-0.dtd"
   xmlns:inkscape="http://www.inkscape.org/namespaces/inkscape"
   width="100"
   height="100"
   viewBox="0 0 26.458333 26.458334"
   version="1.1"
   id="svg8"
   inkscape:version="0.92.2 (5c3e80d, 2017-08-06)"
   sodipodi:docname="planet-1.svg"
   inkscape:export-filename="C:\Users\hoove_000\Desktop\Art\Planets\planet-1-ink.png"
   inkscape:export-xdpi="96"
   inkscape:export-ydpi="96">
  <defs
     id="defs2" />
  <sodipodi:namedview
     id="base"
     pagecolor="#ffffff"
     bordercolor="#666666"
     borderopacity="1.0"
     inkscape:pageopacity="0.0"
     inkscape:pageshadow="2"
     inkscape:zoom="2.8284271"
     inkscape:cx="-30.679598"
     inkscape:cy="43.987242"
     inkscape:document-units="mm"
     inkscape:current-layer="layer1"
     showgrid="false"
     showborder="true"
     inkscape:window-width="1920"
     inkscape:window-height="1017"
     inkscape:window-x="-8"
     inkscape:window-y="-8"
     inkscape:window-maximized="1"
     units="px"
     inkscape:snap-global="false"
     inkscape:snap-bbox="true"
     inkscape:bbox-nodes="true"
     inkscape:bbox-paths="true"
     inkscape:snap-bbox-edge-midpoints="true"
     inkscape:snap-bbox-midpoints="true"
     inkscape:object-paths="true"
     inkscape:object-nodes="true"
     inkscape:snap-intersection-paths="true"
     inkscape:snap-smooth-nodes="true"
     inkscape:snap-midpoints="true" />
  <metadata
     id="metadata5">
    <rdf:RDF>
      <cc:Work
         rdf:about="">
        <dc:format>image/svg+xml</dc:format>
        <dc:type
           rdf:resource="http://purl.org/dc/dcmitype/StillImage" />
        <dc:title />
      </cc:Work>
    </rdf:RDF>
  </metadata>
  <g
     inkscape:label="Layer 1"
     inkscape:groupmode="layer"
     id="layer1"
     transform="translate(0,-270.54165)">
    <ellipse
       id="path3699"
       cx="13.229167"
       cy="283.77084"
       style="fill:#00ccff;stroke-width:0.05399659"
       rx="13.229167"
       ry="13.229161" />
    <path
       style="fill:#c87137;stroke-width:0.05399659"
       d="m 4.8595889,286.30908 c -0.2419086,-7.9e-4 -0.4943108,0.0329 -0.7558472,0.10757 -0.5611499,0.16017 -2.0003326,0.62911 -2.5848282,1.25592 -0.4300916,0.46123 -0.046942,1.03832 -0.3557736,1.52246 0.6256525,1.40517 1.5057008,2.68152 2.5729612,3.78917 0.00238,0.002 0.00478,0.005 0.00717,0.007 0.3055275,0.31438 0.6264932,0.61339 0.9617091,0.8959 0.00124,0.001 0.00246,0.002 0.00369,0.003 0.7841653,0.65398 1.6372625,1.22942 2.5504626,1.68623 0.083429,-0.24898 -0.158295,-0.82493 -0.028837,-1.20224 0.1682908,-0.49049 0.7127048,-0.83104 0.7888295,-1.42567 0.028688,-0.22409 0.6538176,-0.42488 0.7232903,-0.63962 0.1876346,-0.57999 -0.3065938,-0.0425 -0.3556347,-0.66713 -0.014778,-0.18822 -0.6475964,-0.20429 -0.6840528,-0.40765 -0.131995,-0.73628 0.3060376,-1.6946 0.2557568,-1.97307 -0.084929,-0.47036 0.2018036,-1.23829 -0.1901421,-1.67029 -0.4706175,-0.5187 -1.6717785,-0.67703 -2.35598,-0.9112 -0.2540635,-0.087 -0.2675155,-0.36993 -0.5527761,-0.37093 z"
       id="circle3709"
       inkscape:connector-curvature="0"
       sodipodi:nodetypes="ccsccccccsssssssscc" />
    <path
       style="fill:#c87137;stroke-width:0.05399659"
       d="m 13.229167,270.54166 c -2.985587,3e-5 -5.8833783,1.00997 -8.2222478,2.86561 l -0.00201,0.002 c -0.3432034,0.27254 -0.6726515,0.56197 -0.9871255,0.86722 -0.00412,0.004 -0.00822,0.008 -0.012338,0.012 -0.3109273,0.30247 -0.6067895,0.62005 -0.8865145,0.95159 -0.00489,0.006 -0.00978,0.0116 -0.01466,0.0174 C 1.0995694,277.64133 2.813552e-4,280.65609 2.032406e-7,283.77082 0.51179306,283.10441 1.0253321,282.66008 1.5289814,282.33941 c 0.2460159,-0.15664 0.2262868,-2.8e-4 0.4898339,-0.004 0.2154546,-0.003 0.5452583,-0.62587 0.7484391,-0.70839 1.5294836,-0.62118 2.9199423,-0.71076 3.6458966,-3.73587 0.1138291,-0.47434 0.6230532,-0.45384 0.7244477,-0.97056 0.1466003,-0.74711 -0.3849848,-0.92272 0.065528,-1.51288 0.1961024,-0.25689 0.7379523,0.25923 1.0039314,0.0293 0.4441806,-0.38398 0.9775275,-1.74231 1.4802032,-2.10524 0.9281317,-0.67011 2.5582587,-0.75931 3.4215137,-1.11382 1.263707,-0.51895 1.635073,-1.19412 1.918921,-1.55344 -0.594809,-0.0867 -1.197452,-0.11746 -1.798529,-0.12259 z"
       id="circle3718"
       inkscape:connector-curvature="0"
       sodipodi:nodetypes="ccccccccsssssssssccc" />
    <path
       style="fill:#c87137;stroke-width:0.05399659"
       d="m 21.409246,273.37387 c -0.364167,0.52147 -0.727363,-0.21762 -1.110905,1.99306 -0.213355,1.22975 -1.448292,2.11805 -2.029257,3.11666 -0.2551,0.43849 0.145472,1.26372 -0.419938,1.41255 -0.893897,0.2353 -1.664357,0.0855 -2.507445,0.14632 -0.805316,0.0581 -1.690262,0.33036 -2.269581,0.34204 -1.370114,0.0276 -2.027905,-0.3605 -2.394868,0.0559 -0.315747,0.35825 0.308023,0.95725 0.441516,1.8462 0.0221,0.14717 -0.626992,0.63227 -0.812081,1.01482 -0.149066,0.3081 0.153906,0.52062 0.19283,0.65923 0.05223,0.186 0.35223,0.0927 0.869785,-0.0157 0.185894,-0.0389 0.534342,0.38098 1.022547,0.22332 0.630628,-0.20366 1.428114,-0.99513 1.717194,-1.06007 0.951322,-0.21372 0.578868,0.1408 0.687701,0.5047 0.405575,1.35611 1.692152,2.8677 1.271147,3.94758 -0.355856,0.91277 1.032015,1.37258 1.302521,1.42362 0.384209,0.0725 -0.153354,-0.58449 0.31358,-1.12116 0.518342,-0.59576 0.702917,-1.44107 1.336568,-2.07102 0.253136,-0.25166 0.785875,0.10539 1.056748,-0.11289 0.341354,-0.27507 0.236586,-1.22595 0.532365,-1.49087 0.767118,-0.68708 1.766428,-0.54784 1.907332,-0.22721 0.104046,0.23676 0.446475,-0.0346 0.514821,0.17008 0.128807,0.38568 -0.05944,1.20871 -0.03669,1.49914 0.148545,1.89671 -1.675878,2.02372 -1.700225,3.79941 -0.003,0.21549 0.29549,0.51739 0.312279,0.71544 0.02486,0.29322 -0.316135,0.63972 -0.207557,0.86804 0.183286,0.38542 0.385523,0.88209 0.702482,1.11959 0.211635,0.15858 0.778907,-0.4277 1.196836,-0.50496 0.377748,-0.0698 0.23551,0.11124 0.614723,-0.0561 1.656715,-2.26148 2.53961,-4.99732 2.544661,-7.80071 -0.0057,-4.05406 -1.860704,-7.89308 -5.049089,-10.39701 z"
       id="circle3725"
       inkscape:connector-curvature="0"
       sodipodi:nodetypes="csssssssssssssssssssssssssssccc" />
    <path
       style="fill:#c87137;stroke:none;stroke-width:0.28950113px;stroke-linecap:butt;stroke-linejoin:miter;stroke-opacity:1"
       d="m 10.178454,275.16437 c 0.05027,0.27622 0.121598,-0.0615 0.486832,0.11729 0.133795,0.0655 0.282734,0.3886 0.531263,0.54659 0.233627,0.14849 0.565291,0.12856 0.750027,0.29835 0.155374,0.14226 -0.03557,0.32118 0.15966,0.41919 0.234501,0.11767 0.636164,0.33984 1.106683,0.36726 0.326887,0.019 0.722552,-0.15356 0.97055,-0.11396 0.422819,0.0674 0.40098,0.32638 0.670674,0.25899 0.655573,-0.1638 0.800517,-0.18128 0.983615,-0.78598 0.04972,-0.16427 -0.513573,-0.23191 -0.54139,-0.48904 -0.02726,-0.25041 0.15733,-0.0698 0.151945,-0.36061 -0.0055,-0.29557 -0.582451,-0.80258 -0.73018,-1.16502 -0.106696,-0.26177 0.24769,-0.42096 0.07519,-0.4999 -0.723495,-0.33111 -1.50457,1.01545 -2.101472,1.33894 -0.135243,0.0732 -0.08066,-0.23898 -0.204371,-0.27552 -0.50938,-0.15048 -0.737419,-0.31625 -1.000487,-0.52162 -0.263045,-0.20541 -0.07345,-0.23079 -0.360385,-0.42191 -0.286685,-0.19123 -0.453736,-0.0844 -0.585937,0.0551 -0.182773,0.19275 -0.118005,0.58291 -0.196285,0.80792 -0.0336,0.10804 -0.216141,0.14773 -0.165842,0.42388 z"
       id="path828"
       inkscape:connector-curvature="0"
       sodipodi:nodetypes="csssssssssssssszzsczc" />
    <path
       style="fill:#c87137;stroke:none;stroke-width:0.99999994px;stroke-linecap:butt;stroke-linejoin:miter;stroke-opacity:1"
       d="m 56.478516,89.458984 c -0.163529,0.01392 -0.359658,0.08384 -0.597657,0.228516 -1.90399,1.15748 -2.285164,0.763333 -3.335937,2.90625 -1.050773,2.142917 0.529606,1.960627 -0.439453,3.453125 -0.451314,0.695093 -0.105668,2.216732 -1.21875,2.541016 -1.113402,0.324576 -3.309118,-0.135297 -3.876315,1.322734 0.999567,0.08024 1.987012,0.06938 2.989596,0.08938 8.55139,-0.02089 16.97895,-2.179856 24.430681,-6.3749 -2.328884,0.04127 -3.574855,-0.936116 -4.497087,-0.644631 -1.077986,0.341027 -2.318612,1.077031 -2.925782,0.625 -0.657887,-0.489789 -1.645101,-0.653444 -1.662109,-1.207031 -0.01607,-0.518438 0.90677,-1.416584 1.257813,-2.152344 0.725918,-1.521449 -7.331579,0.404852 -8.457032,1.142578 -0.984771,0.64551 -0.523265,-2.027127 -1.667968,-1.929688 z"
       transform="matrix(0.26458333,0,0,0.26458333,0,270.54165)"
       id="path830"
       inkscape:connector-curvature="0"
       sodipodi:nodetypes="scsscccccsccss" />
    <path
       style="fill:#c87137;stroke:none;stroke-width:0.26458332px;stroke-linecap:butt;stroke-linejoin:miter;stroke-opacity:1"
       d="m 9.0854934,290.97807 c -0.04756,-0.0375 0.036463,-0.10533 0.029948,-0.17547 -0.00625,-0.0673 -0.076158,-0.1967 -0.068708,-0.27423 0.017409,-0.18095 0.1442553,-0.31344 0.2492314,-0.3922 0.1968139,-0.14766 0.3902198,0.12031 0.6080381,0.0234 0.1416301,-0.063 0.3381031,-0.24923 0.4406951,-0.41486 0.05517,-0.0891 -0.01446,-0.21376 0.08549,-0.21656 0.203064,-0.006 0.359086,0.17219 0.468899,0.38812 0.04475,0.088 0.193702,0.18386 0.139139,0.26669 -0.105391,0.15999 -0.225572,0.0889 -0.304588,0.18417 -0.195108,0.23513 -0.382809,0.54325 -0.584083,0.56418 -0.1658005,0.0172 -0.09274,-0.0504 -0.160429,-0.12894 -0.047756,-0.0554 -0.2360419,-0.12789 -0.3189848,-0.1283 -0.048947,-2.4e-4 -0.064779,0.0856 -0.1122644,0.12486 -0.1470297,0.12152 -0.3214032,0.17914 -0.4723867,0.17914 z"
       id="path835"
       inkscape:connector-curvature="0"
       sodipodi:nodetypes="cssssssssssssssc" />
  </g>
</svg>
