<svg xmlns="http://www.w3.org/2000/svg" width="200mm" height="200mm" viewBox="-5 -5 210 210"><g lc:layername="0" lc:is_locked="false" lc:is_construction="false" fill="none" stroke="#eee" stroke-width="4"><path d="M0 20v160m20 20h160m20-20V20M180 0H20m0 0A20 20 0 0 0 0 20m0 160a20 20 0 0 0 20 20m160 0a20 20 0 0 0 20-20m0-160a20 20 0 0 0-20-20m-40 120V40a20 20 0 0 0-20-20H80a20 20 0 0 0-20 20v120a20 20 0 0 0 20 20h40a20 20 0 0 0 20-20v-40z"/><path d="M80 90v40l30-90H80v50zm40 50V70l-30 90h30v-20z"/></g></svg>