<svg xmlns="http://www.w3.org/2000/svg" width="200mm" height="200mm" viewBox="-5 -5 210 210"><g lc:layername="0" lc:is_locked="false" lc:is_construction="false" fill="none" stroke="#eee" stroke-width="4"><path d="M0 20v160M20 200h160M200 180V20M180 0H20M20 0A20 20 0 0 0 0 20M0 180a20 20 0 0 0 20 20M180 200a20 20 0 0 0 20-20M200 20a20 20 0 0 0-20-20M60 160a20 20 0 0 0 20 20h40a20 20 0 0 0 20-20v-50a20 20 0 0 0-20-20H80V40h40v10h20V40a20 20 0 0 0-20-20H80a20 20 0 0 0-20 20v120z"/><path d="M80 120v40h40v-50H80v10z"/></g></svg>