<svg xmlns="http://www.w3.org/2000/svg" width="1069.012" height="1069.012" viewBox="-5 -5 292.84271247 292.84271247"><g lc:layername="0" lc:is_locked="false" lc:is_construction="false" fill="none" stroke="#eee"><circle cx="141.421" cy="141.421" r="141.421" stroke-width="5"/><circle fill="#fff" cx="141.421" cy="141.421" r="20" stroke-width="5"/><circle fill="#fff" cx="199.883" cy="175.553" r="9.416"/><circle fill="#fff" cx="82.238" cy="135.339" r="9.04"/><path d="M194.068 179.068c-31.628 17.278-79.919 16.193-109.481-2.458-29.563-18.652-30.843-48.843-2.901-68.447 27.941-19.604 76.072-22.285 109.12-6.078 33.047 16.207 40.33 46.063 16.51 67.688" stroke-width="5"/><path d="M86.064 127.15c11.894-17.544 43.88-26.722 73.303-21.035 29.424 5.687 47.19 24.483 40.717 43.074-6.473 18.591-35.186 31.232-65.802 28.97-30.616-2.263-53.672-18.73-52.839-37.738" stroke-width="5"/><path fill="#fff" d="M231.421 151.421v-20h10v-10l20 20-20 20v-10h-10zM161.421 241.421l-20 20-20-20h10v-10h20v10h10zM51.421 131.421h-10v-10l-20 20 20 20v-10h10v-20zM131.421 41.421h-10l20-20 20 20h-10v10h-20v-10z" stroke-width="5"/></g></svg>