<svg xmlns="http://www.w3.org/2000/svg" width="1069.012" height="1069.012" viewBox="-5 -5 292.84271247 292.84271247"><g lc:layername="0" lc:is_locked="false" lc:is_construction="false" fill="none" stroke="#fff"><circle cx="141.421" cy="141.421" r="141.421" stroke-width="5"/><path fill="#fff" d="M225.563 151.421a14.142 14.142 0 1 1-14.142-14.142l-13.368-12.86a14.142 14.142 0 1 1 0-28.285l-20.858-11.287a14.142 14.142 0 1 1-28.285 0h-14.978a14.142 14.142 0 1 1-28.284 0L84.79 96.134a14.142 14.142 0 1 1 0 28.285l-13.369 12.86a14.142 14.142 0 1 1-14.142 14.142H41.421a78.284 78.284 0 0 0 78.285 78.285h21.715a8.284 8.284 0 0 0 5.858-14.143 20 20 0 0 1 14.142-34.142h50a30 30 0 0 0 30-30h-15.858z"/><path fill="#fff" d="M133.932 84.847h14.978a14.142 14.142 0 1 1 28.285 0l20.858 11.287a14.142 14.142 0 1 1 0 28.285l13.368 12.86a14.142 14.142 0 0 1 14.142 14.142h15.858a100 100 0 0 0-200 0H57.28a14.142 14.142 0 0 1 14.142-14.142l13.37-12.86a14.142 14.142 0 1 1 0-28.285l20.857-11.287a14.142 14.142 0 1 1 28.284 0z"/></g></svg>