<svg xmlns="http://www.w3.org/2000/svg" width="1068.971" height="1068.971" viewBox="-5 -5 292.832 292.832"><g lc:layername="0" lc:is_locked="false" lc:is_construction="false" fill="none" stroke="#eee"><circle cx="141.416" cy="141.416" r="141.416" stroke-width="5"/><path fill="#fff" d="M173.806 193.991l21.605 12.99a113.006 113.006 0 0 1-53.995 14.142 113.006 113.006 0 0 1-53.995-14.141l21.605-12.99a57.985 57.985 0 0 0 64.78 0z"/><path fill="#fff" d="M109.026 193.991a3.583 3.583 0 0 1 3.919-5.999l-3.127-17.834a14.478 14.478 0 1 1 0-28.956l-26.254-13.928a19.85 19.85 0 1 0-21.855 32.14 50.515 50.515 0 0 0 25.712 47.568l21.605-12.99zM169.887 187.992a3.583 3.583 0 1 1 3.919 6l21.605 12.99a50.515 50.515 0 0 0 25.712-47.568 19.85 19.85 0 1 0-21.855-32.14l-26.254 13.928a14.478 14.478 0 1 1 0 28.956l-3.127 17.834z"/><path fill="#fff" d="M199.268 127.274l-26.254 13.928a14.478 14.478 0 0 0 0 28.956l-3.127 17.834a52.06 52.06 0 0 1-56.942 0l-3.127-17.834a14.478 14.478 0 0 0 0-28.956l-26.254-13.928a105.884 105.884 0 0 1 53.995-16.712l11.57-51.424 36.87 7.97a14.054 14.054 0 1 1-1.422 6.323l-30.304-6.49-9 43.62a105.884 105.884 0 0 1 53.995 16.713z"/></g></svg>