<svg xmlns="http://www.w3.org/2000/svg" width="1069.012" height="1069.012" viewBox="-5 -5 292.84271247 292.84271247"><g lc:layername="0" lc:is_locked="false" lc:is_construction="false" fill="none" stroke="#fff"><circle cx="141.421" cy="141.421" r="141.421" stroke-width="5"/><path fill="#fff" d="M146.421 106.421h-30v-30h-10v30h-30v10h30v30h10v-30h30v-10zM162.652 142.652l58.77 58.77 10 10-20 20-10-10-58.77-58.77"/><path fill="#fff" d="M161.421 111.421a50 50 0 1 1-100 0h-10a60 60 0 0 0 120 0h-10zM61.421 111.421a50 50 0 1 1 100 0h10a60 60 0 0 0-120 0h10z"/></g></svg>