<?xml version="1.0" encoding="UTF-8" standalone="no"?>
<!-- Created with Inkscape (http://www.inkscape.org/) -->

<svg
   xmlns:dc="http://purl.org/dc/elements/1.1/"
   xmlns:cc="http://creativecommons.org/ns#"
   xmlns:rdf="http://www.w3.org/1999/02/22-rdf-syntax-ns#"
   xmlns:svg="http://www.w3.org/2000/svg"
   xmlns="http://www.w3.org/2000/svg"
   xmlns:sodipodi="http://sodipodi.sourceforge.net/DTD/sodipodi-0.dtd"
   xmlns:inkscape="http://www.inkscape.org/namespaces/inkscape"
   width="235.423"
   height="235.423"
   viewBox="0 0 62.289002 62.289005"
   version="1.1"
   id="svg8"
   inkscape:version="0.92.2 (5c3e80d, 2017-08-06)"
   sodipodi:docname="ring-2.svg">
  <defs
     id="defs2" />
  <sodipodi:namedview
     id="base"
     pagecolor="#ffffff"
     bordercolor="#666666"
     borderopacity="1.0"
     inkscape:pageopacity="0.0"
     inkscape:pageshadow="2"
     inkscape:zoom="2.8284271"
     inkscape:cx="125.31203"
     inkscape:cy="119.23257"
     inkscape:document-units="mm"
     inkscape:current-layer="layer1"
     showgrid="false"
     units="px"
     inkscape:window-width="1920"
     inkscape:window-height="1001"
     inkscape:window-x="-9"
     inkscape:window-y="-9"
     inkscape:window-maximized="1"
     inkscape:snap-bbox="true"
     inkscape:bbox-paths="true"
     inkscape:bbox-nodes="true"
     inkscape:snap-bbox-midpoints="true"
     inkscape:snap-bbox-edge-midpoints="true"
     inkscape:snap-nodes="true"
     inkscape:object-paths="true"
     inkscape:snap-intersection-paths="true"
     inkscape:object-nodes="true"
     inkscape:snap-smooth-nodes="true"
     inkscape:snap-midpoints="true"
     inkscape:snap-global="false"
     showguides="false"
     showborder="true" />
  <metadata
     id="metadata5">
    <rdf:RDF>
      <cc:Work
         rdf:about="">
        <dc:format>image/svg+xml</dc:format>
        <dc:type
           rdf:resource="http://purl.org/dc/dcmitype/StillImage" />
        <dc:title></dc:title>
      </cc:Work>
    </rdf:RDF>
  </metadata>
  <g
     inkscape:label="Layer 1"
     inkscape:groupmode="layer"
     id="layer1"
     transform="translate(0,-234.71098)">
    <g
       id="g96"
       transform="translate(5.8595422,-5.8866687)">
      <g
         id="g3924"
         transform="matrix(-1,0,0,1,17.829528,-13.066566)">
        <path
           id="path821"
           d="m 9.508587,284.81032 v 5.2e-4 c -8.89e-5,1.03639 -9.80278696,1.87637 -17.1157509,1.87638 -0.058398,0 -0.1200673,-9.3e-4 -0.1788003,-0.001 v 1.05265 c 0.060232,8e-5 0.1184462,10e-4 0.1788003,10e-4 11.4150539,1e-5 20.3120499,-1.31181 20.3134889,-2.92954 z"
           style="opacity:1;fill:#d40000;stroke:none;stroke-width:0.21572644;stroke-opacity:1"
           inkscape:connector-curvature="0"
           transform="matrix(-1,0,0,1,-15.241598,-5.1370833e-4)" />
        <path
           id="path821-7"
           d="m 9.8393162,284.81032 v 5.2e-4 c -8.89e-5,1.03639 -9.802787,1.87637 -17.1157509,1.87638 -0.058398,0 -0.1200674,-9.3e-4 -0.1788004,-0.001 v 1.05265 c 0.060232,8e-5 0.1184463,10e-4 0.1788004,10e-4 11.4150538,1e-5 20.3120497,-1.31181 20.3134887,-2.92954 z"
           style="opacity:1;fill:#d40000;stroke:none;stroke-width:0.21572644;stroke-opacity:1"
           inkscape:connector-curvature="0" />
      </g>
      <g
         transform="matrix(1.223222,0,0,1.223222,37.514774,-73.076027)"
         id="g3914"
         style="fill:#0000ff">
        <path
           transform="matrix(-1,0,0,1,-19.158604,4.151604e-4)"
           style="opacity:1;fill:#0000ff;stroke:none;stroke-width:0.21572645;stroke-opacity:1"
           d="m 7.4182518,281.89344 c -8.89e-5,1.03637 -9.2657613,2.39487 -16.5786605,2.39493 v 1.05278 c 11.4148574,-4e-5 20.6691847,-1.82916 20.6706237,-3.44687 v -8.4e-4 z"
           id="path837-8"
           inkscape:connector-curvature="0" />
        <path
           style="opacity:1;fill:#0000ff;stroke:none;stroke-width:0.21572645;stroke-opacity:1"
           d="m 6.5807933,281.89344 c -8.89e-5,1.03637 -9.2657613,2.39487 -16.5786606,2.39493 v 1.05278 c 11.4148575,-4e-5 20.6691843,-1.82916 20.6706233,-3.44687 v -8.4e-4 z"
           id="path837"
           inkscape:connector-curvature="0" />
      </g>
      <g
         transform="matrix(1.2317402,0,0,1.497187,-5.8595422,-135.10581)"
         id="g34">
        <g
           id="g28">
          <path
             style="opacity:1;fill:#00d400;stroke:none;stroke-width:0.26388133;stroke-opacity:1"
             d="m 4.6141947,271.74222 -1.5699284,5.1e-4 c 1.077e-4,1.26772 8.9014437,3.59042 22.2405027,3.59048 v 0.6258 h 0.05219 c -0.01744,1e-5 -0.03423,5.3e-4 -0.05168,5.3e-4 C 11.322132,275.95955 0.0017603,273.72158 0,271.74273 v -5.1e-4 z"
             id="path867-3"
             inkscape:connector-curvature="0" />
          <path
             style="opacity:1;fill:#00d400;stroke:none;stroke-width:0.26388133;stroke-opacity:1"
             d="m 45.955729,271.74171 1.569928,5.2e-4 c -1.07e-4,1.26771 -8.901443,3.59041 -22.240502,3.59047 v 0.6258 h -0.05219 c 0.01744,2e-5 0.03423,5.3e-4 0.05168,5.3e-4 13.963147,1e-5 25.283518,-2.23796 25.285279,-4.2168 v -5.2e-4 z"
             id="path867"
             inkscape:connector-curvature="0" />
        </g>
        <path
           style="opacity:1;fill:#cc00ff;stroke:none;stroke-width:0.26388133;stroke-opacity:1"
           d="m 45.955709,271.74166 1.569929,5.3e-4 c -1.06e-4,1.26771 -8.901443,3.59042 -22.240502,3.59048 v 0.6258 h -5.29e-4 v -0.62529 c -13.339046,-7e-5 -22.2403822,-2.32277 -22.2404899,-3.59049 l 1.5699299,-5.3e-4 H 2.3072111 l -0.015503,5.3e-4 c 0.00176,1.97885 13.1196779,3.84262 22.9934279,3.84262 9.87375,0 22.977208,-1.7675 22.977917,-3.84315 v -5.3e-4 z"
           id="path4077"
           inkscape:connector-curvature="0"
           sodipodi:nodetypes="cccccccccczccc" />
      </g>
    </g>
  </g>
</svg>
