<svg xmlns="http://www.w3.org/2000/svg" width="100" height="100" viewBox="0 0 26.458 26.458"><g transform="translate(0 -270.542)"><circle cx="13.324" cy="283.818" r="13.229" fill="#00f"/><path d="M16.537 274.775c-.118.416-.874.654-1.112 1.072-.157.276.014 1.02-.274.897-.51-.216-1.337-.01-1.992.458-.733.523-1.281 1.316-1.578 1.022-.287-.283-.132-.75-.268-1.02-.496-.973-.785-.265-.877-1.078-.013-.118.164-1.217.372-1.816.154-.443.331-.173.358-.612.046-.742-.618-1.354-.292-1.687.77-.784 1.453-1.319 2.355-1.47 2.383 0 4.619.63 6.55 1.733-.782 1.758-2.99 1.614-3.242 2.5z" fill="#500"/><path d="M9.968 272.954c-.147-.003-.368.064-.456.157-.044.046-.163.451-.348.578-.187.128-.361.368-.332.434.058.133.493-.063.597-.13.105-.066.306-.064.272-.338-.035-.273.987-.026 1.002-.167.009-.085-.28-.433-.485-.56-.134-.083-.192.027-.25.026zM26.553 283.818c0 7.306-5.923 13.23-13.23 13.23-1.6-.715-.29-2.254-.416-2.725-.215-.811-.798-.147-.521-1.06.24-.795-2.127-.643-1.659-1.264.115-.151-.024-.672.08-.791.212-.24.392-.193.502-.267.515-.348.213.344.759-.23.34-.357.804-1.458 1.121-2.078.168-.328.07-1.101-.631-1.237-.147-.028-.35-.003-.552-.033-.146-.022-.288-.093-.42-.14-.348-.125.044-.501-.123-.727-.373-.506-.73-1.5-.885-2.026-.134-.455-.448-.543-.703-.68-.175-.096-.372-.303-.27-.315 1.816-.216 2.046 1.387 2.599 1.348.317-.022.627-.25.81-.542.138-.219.026-.43.283-.243.239.175.073.618.302.834.758.714 1.861 1.27 2.488 1.132.19-.042 1.109-.053 1.9-.854.266-.27.393-1.383.64-1.605.348-.31.566-.228.786-.435.586-.55.385.967.486.961.505-.025.367.455.872.742.721.41 1.684.406 2.192.367.896-.068 1.157-1.314 1.713-1.557.617-.268.481-1.229 1.369-.874.262.105.363.68.508 1.07zM6.44 283.618c.011.165-.204.49-.12.959.057.317-.187.015-.495.31-.74.707-1.801 1.8-2.207 2.07-.303.203-.51.401-.574.983-.022.198.246.415.114.637-.2.337-.31.355-.405.584-.183.44-.272.993-.712 1.569a13.167 13.167 0 0 1-1.947-6.912c0-.943-.013-1.445.342-2.001.354-.555 1.075-1.165 1.413-1.38.547-.349.676-.168.978-.563.347-.455.547-.731.635-.342.09.394.065 1.46.255 1.965.217.58 1.047.716 1.247.789.384.14.29.817.666 1.12.238.193.788-.161.81.212zM20.346 277.59c-.193-.004-.722.04-.788.174-.107.216.274.585-.181.761-.734.284-2.812-.847-3.374-.1-.386.513-.762-.077-.633.344.056.18.27.415.48.754.207.332.37.976.487 1.107.39.437 1.278.445 1.896.435.2-.003.304.283.442.2.446-.27.243-.782.31-1.167.018-.103-.076-.274.025-.337.343-.213.845.227 1.292.402a.587.587 0 0 0 .537-.098c.257-.232.577.496.686.376.18-.198-.115-.704-.18-1.125-.029-.194.186-.37.17-.49a1.407 1.407 0 0 0-.215-.546c-.233-.368-.872-.833-.954-.69zM7.777 292.112c.008.703.761.882.335 1.177-.593.41.444 2.166.155 2.758a13.26 13.26 0 0 1-4.822-3.43c1.115-.21.808-.437 1.268-.413.46.024.464-.407.918.15.75.919 2.138-.974 2.146-.242zM6.227 272.653a13.2 13.2 0 0 0-2.885 2.483c.174.178.365.392.514.719.488 1.07 1.325.188 1.367 1.237.036.897-.601 1.65-.377 2.165.094.215.134.093.309-.007.123-.07.671-.132 1.092-.075.294.04.329-.794.449-.926.321-.354-.048-.389.011-.61.094-.347-.892-1.106-.28-1.597-.02-.155-.364-.577-.3-.837.105-.422.458-.886.022-1.085-.23-.106-.077-.782.078-1.467z" fill="#500"/></g></svg>