<svg xmlns="http://www.w3.org/2000/svg" width="300" height="300" viewBox="0 0 79.375 79.375"><path d="M19.018 39.688c0 1.63 9.25 2.942 20.68 2.942 11.409 0 19.96-1.313 19.96-2.942h-2.857c0 1.037-9.8 1.883-17.103 1.883-7.324 0-17.314-.846-17.314-1.883z" fill="#d40000"/><path d="M14.404 39.688c0 1.99 11.324 4.233 25.294 4.233 13.949 0 25.273-2.244 25.273-4.233h-5.313c0 1.27-11.028 2.942-19.96 2.942-8.953 0-20.68-1.672-20.68-2.942z" fill="#00f"/><path d="M14.404 39.688c0 1.99 11.324 4.233 25.294 4.233 13.949 0 25.273-2.244 25.273-4.233h-4.614 1.566c0 1.27-8.89 3.598-22.225 3.598-13.356 0-22.288-2.328-22.288-3.598z" fill="#0f0"/><path d="M2.953 39.688c0 2.878 16.446 6.138 36.745 6.138 20.278 0 36.724-3.26 36.724-6.138h-6.689 2.265c0 1.862-12.933 5.228-32.3 5.228-19.388 0-32.364-3.387-32.364-5.228z" fill="#f0f"/></svg>