<svg xmlns="http://www.w3.org/2000/svg" width="300" height="300" viewBox="0 0 79.375 79.375"><g fill="#d40000"><path d="M56.982 39.702v.001c0 1.036-9.802 1.876-17.115 1.876h-.18v1.052l.18.001c11.415 0 20.312-1.312 20.313-2.93zM22.393 39.703c0 1.037 9.803 1.877 17.116 1.877l.178-.001v1.052l-.178.001c-11.415 0-20.312-1.311-20.314-2.929z"/></g><g fill="#00f"><path d="M19.408 39.702c0 1.268 11.334 2.93 20.28 2.93v1.287c-13.964 0-25.284-2.237-25.285-4.216v-.001z"/><path d="M59.967 39.701c0 1.268-11.334 2.93-20.28 2.93v1.288c13.964 0 25.284-2.238 25.286-4.217z"/></g><path d="M19.017 39.701h-1.57c0 1.269 8.901 3.591 22.24 3.591v.626h.053-.052c-13.963 0-25.284-2.237-25.285-4.216z" fill="#00d400"/><path d="M60.358 39.7l1.57.001c0 1.268-8.901 3.59-22.24 3.59v.627h-.052.051c13.963 0 25.284-2.238 25.286-4.217z" fill="#00d400"/><path d="M60.358 39.7l1.57.001c0 1.268-8.901 3.59-22.24 3.59v.627-.626c-13.34 0-22.241-2.322-22.241-3.59h1.57-2.323c.002 1.979 13.12 3.843 22.994 3.843 9.873 0 22.977-1.768 22.978-3.844z" fill="#c0f"/></svg>