<svg xmlns="http://www.w3.org/2000/svg" xmlns:lc="http://www.librecad.org" width="200mm" height="200mm" viewBox="-5 -5 210 210"><path d="M0 20v160m20 20h160m20-20V20M180 0H20m0 0A20 20 0 0 0 0 20m0 160a20 20 0 0 0 20 20m160 0a20 20 0 0 0 20-20m0-160a20 20 0 0 0-20-20m-40 160v20H60v-20l40-60 18.823-28.235a23.53 23.53 0 1 0-42.352-14.117H59.804a40.196 40.196 0 1 1 72.353 24.117L130 85l-50 75h60z" lc:layername="0" lc:is_locked="false" lc:is_construction="false" fill="none" stroke="#eee" stroke-width="4"/></svg>