<svg xmlns="http://www.w3.org/2000/svg" width="1069.012" height="1069.012" viewBox="-5 -5 292.843 292.843"><circle r="141.421" cy="141.421" cx="141.421" fill="none" stroke="#eee" stroke-width="5"/><circle r="20" cy="141.421" cx="141.421" fill="#eee" stroke="#eee"/><circle r="9.416" cy="175.553" cx="199.883" fill="#eee" stroke="#eee"/><circle r="9.04" cy="135.339" cx="82.238" fill="#eee" stroke="#eee"/><path d="M194.068 179.068c-31.628 17.278-79.919 16.193-109.481-2.459-29.563-18.651-30.843-48.842-2.901-68.446 27.94-19.604 76.072-22.285 109.12-6.078 33.047 16.207 40.33 46.063 16.51 67.688" fill="none" stroke="#eee" stroke-width="5"/><path d="M86.064 127.15c11.894-17.544 43.88-26.722 73.303-21.035 29.424 5.687 47.19 24.483 40.717 43.074-6.473 18.591-35.186 31.232-65.802 28.97-30.616-2.263-53.672-18.73-52.839-37.738" fill="none" stroke="#eee" stroke-width="5"/><path d="M111.421 221.421l30 20a100 100 0 0 1-100-100h10a90 90 0 0 0 58.4 84.27zM231.421 141.421h10a100 100 0 0 0-100-100l30 20 1.601-4.27a90 90 0 0 1 58.4 84.27z" fill="#eee" stroke="#eee" stroke-width="5"/></svg>