<svg xmlns="http://www.w3.org/2000/svg" width="1069.012" height="1069.012" viewBox="-5 -5 292.843 292.843"><circle r="141.421" cy="141.421" cx="141.421" fill="none" stroke="#eee" stroke-width="5"/><circle cx="71.313" cy="150.418" r="17.992" fill="#eee" stroke="gray" stroke-width=".274"/><circle cx="210.599" cy="150.728" r="17.992" fill="#eee" stroke="gray" stroke-width=".274"/><circle cx="198.191" cy="110.71" r="17.992" fill="#eee" stroke="gray" stroke-width=".274"/><circle cx="160.655" cy="83.721" r="17.992" fill="#eee" stroke="gray" stroke-width=".274"/><circle cx="120.327" cy="83.101" r="17.992" fill="#eee" stroke="#eee" stroke-width=".274"/><circle cx="83.721" cy="109.159" r="17.992" fill="#eee" stroke="gray" stroke-width=".274"/><path d="M225.563 151.421a14.142 14.142 0 1 1-14.142-14.142l-13.368-12.86a14.142 14.142 0 1 1 0-28.285l-20.858-11.287a14.142 14.142 0 1 1-28.285 0h-14.978a14.142 14.142 0 1 1-28.284 0L84.79 96.134a14.142 14.142 0 1 1 0 28.285l-13.369 12.86a14.142 14.142 0 1 1-14.142 14.142H41.421a78.284 78.284 0 0 0 78.285 78.285h21.715a8.284 8.284 0 0 0 5.858-14.143 20 20 0 0 1 14.142-34.142h50a30 30 0 0 0 30-30z" fill="#eee" stroke="#eee"/><path d="M133.932 84.847h14.978a14.142 14.142 0 1 1 28.285 0l20.858 11.287a14.142 14.142 0 1 1 0 28.285l13.368 12.86a14.142 14.142 0 0 1 14.142 14.142h15.858a100 100 0 0 0-200 0H57.28a14.142 14.142 0 0 1 14.142-14.142l13.37-12.86a14.142 14.142 0 1 1 0-28.285l20.857-11.287a14.142 14.142 0 1 1 28.284 0z" fill="#eee" stroke="#eee"/></svg>