<svg xmlns="http://www.w3.org/2000/svg" xmlns:lc="http://www.librecad.org" width="1069.012" height="1069.012" viewBox="-5 -5 292.843 292.843"><g lc:layername="0" lc:is_locked="false" lc:is_construction="false" fill="none" stroke="#eee"><circle cx="141.421" cy="141.421" r="141.421" stroke-width="5"/><path fill="#eee" d="M98.995 141.421a42.426 42.426 0 0 0 84.853 0h57.573v20h-10a30.847 30.847 0 0 0-27.68 47.943l5 8.66-34.64 20-5-8.66a30.847 30.847 0 0 0-55.36 0l-5 8.66-34.64-20 5-8.66a30.847 30.847 0 0 0-27.68-47.943h-10v-20h57.574zM169.1 53.48l5-8.661 34.642 20-5 8.66a30.847 30.847 0 0 0 27.68 47.942h10v20h-57.574a42.426 42.426 0 0 0-84.853 0H41.42v-20h10a30.847 30.847 0 0 0 27.68-47.942l-5-8.66 34.64-20 5 8.66a30.847 30.847 0 0 0 55.36 0z"/></g></svg>