<svg xmlns="http://www.w3.org/2000/svg" width="1076.279" height="1076.279" viewBox="-5 -5 294.765 294.765"><circle r="142.383" cy="142.383" cx="142.383" fill="none" stroke="#eee" stroke-width="5"/><path d="M207.306 76.817a39.114 39.114 0 0 0-66.209 35.997 112.262 112.262 0 0 1-80.993-40.496 39.066 39.066 0 0 0 12.214 52.066 36.001 36.001 0 0 1-17.999-5.142 39.899 39.899 0 0 0 31.497 39.21 61.53 61.53 0 0 1-17.355 1.286 38.714 38.714 0 0 0 36.64 26.355 75.257 75.257 0 0 1-57.21 16.713 111.414 111.414 0 0 0 170.985-99.634 70.843 70.843 0 0 0 18.641-19.927 58.748 58.748 0 0 1-21.855 5.785 37.583 37.583 0 0 0 16.713-21.212 68.545 68.545 0 0 1-25.07 9z" fill="#eee" stroke="#eee"/></svg>