<?xml version="1.0" encoding="UTF-8" standalone="no"?>
<!-- Created with Inkscape (http://www.inkscape.org/) -->

<svg
   xmlns:dc="http://purl.org/dc/elements/1.1/"
   xmlns:cc="http://creativecommons.org/ns#"
   xmlns:rdf="http://www.w3.org/1999/02/22-rdf-syntax-ns#"
   xmlns:svg="http://www.w3.org/2000/svg"
   xmlns="http://www.w3.org/2000/svg"
   xmlns:sodipodi="http://sodipodi.sourceforge.net/DTD/sodipodi-0.dtd"
   xmlns:inkscape="http://www.inkscape.org/namespaces/inkscape"
   width="100"
   height="100"
   viewBox="0 0 26.458333 26.458334"
   version="1.1"
   id="svg8"
   inkscape:version="0.92.2 (5c3e80d, 2017-08-06)"
   sodipodi:docname="Text.svg"
   inkscape:export-filename="C:\Users\Hoove\OneDrive\Art\SolSys\blackhole\logo2.png"
   inkscape:export-xdpi="1195.1597"
   inkscape:export-ydpi="1195.1597">
  <defs
     id="defs2" />
  <sodipodi:namedview
     id="base"
     pagecolor="#ffffff"
     bordercolor="#666666"
     borderopacity="1.0"
     inkscape:pageopacity="0.0"
     inkscape:pageshadow="2"
     inkscape:zoom="4"
     inkscape:cx="4.775702"
     inkscape:cy="27.094996"
     inkscape:document-units="mm"
     inkscape:current-layer="layer1"
     showgrid="false"
     showborder="true"
     inkscape:window-width="1920"
     inkscape:window-height="1001"
     inkscape:window-x="-9"
     inkscape:window-y="-9"
     inkscape:window-maximized="1"
     units="px"
     inkscape:snap-global="false"
     inkscape:snap-bbox="true"
     inkscape:bbox-nodes="true"
     inkscape:bbox-paths="true"
     inkscape:snap-bbox-edge-midpoints="true"
     inkscape:snap-bbox-midpoints="true"
     inkscape:object-paths="true"
     inkscape:object-nodes="true"
     inkscape:snap-intersection-paths="true"
     inkscape:snap-smooth-nodes="true"
     inkscape:snap-midpoints="true" />
  <metadata
     id="metadata5">
    <rdf:RDF>
      <cc:Work
         rdf:about="">
        <dc:format>image/svg+xml</dc:format>
        <dc:type
           rdf:resource="http://purl.org/dc/dcmitype/StillImage" />
        <dc:title />
      </cc:Work>
    </rdf:RDF>
  </metadata>
  <g
     inkscape:label="Layer 1"
     inkscape:groupmode="layer"
     id="layer1"
     transform="translate(0,-270.54165)">
    <text
       xml:space="preserve"
       style="font-style:normal;font-variant:normal;font-weight:normal;font-stretch:normal;font-size:10.58333302px;line-height:1.25;font-family:'Yu Gothic';-inkscape-font-specification:'Yu Gothic';letter-spacing:0px;word-spacing:0px;fill:#000000;fill-opacity:1;stroke:none;stroke-width:0.26458332"
       x="28.574999"
       y="286.15207"
       id="text852"><tspan
         sodipodi:role="line"
         id="tspan850"
         x="28.574999"
         y="296.78708"
         style="font-style:normal;font-variant:normal;font-weight:normal;font-stretch:normal;font-family:'Yu Gothic';-inkscape-font-specification:'Yu Gothic';stroke-width:0.26458332" /></text>
    <g
       aria-label="solsys"
       style="font-style:normal;font-variant:normal;font-weight:normal;font-stretch:normal;font-size:5.94694281px;line-height:1.25;font-family:'Ubuntu Mono';-inkscape-font-specification:'Ubuntu Mono';letter-spacing:0px;word-spacing:0px;fill:#000000;fill-opacity:1;stroke:none;stroke-width:0.14867356"
       id="text844">
      <path
         d="m 6.4692915,284.62717 q 0,-0.14867 -0.1248858,-0.24382 -0.1189388,-0.0951 -0.303294,-0.16652 -0.1784083,-0.0714 -0.3924983,-0.13678 -0.2140899,-0.0714 -0.3984451,-0.17246 -0.1784083,-0.1011 -0.3032941,-0.24977 -0.1189389,-0.14867 -0.1189389,-0.38655 0,-0.33303 0.2676125,-0.55307 0.2735593,-0.22598 0.8504128,-0.22598 0.2259838,0 0.4638615,0.0357 0.2438247,0.0297 0.416286,0.0833 l -0.089204,0.44007 q -0.047576,-0.0238 -0.1308328,-0.0476 -0.083257,-0.0297 -0.1903021,-0.0476 -0.107045,-0.0238 -0.2319308,-0.0357 -0.1189389,-0.0119 -0.2319308,-0.0119 -0.6422698,0 -0.6422698,0.35087 0,0.12489 0.1189388,0.21409 0.1248858,0.0833 0.3092411,0.15462 0.1843552,0.0714 0.3984451,0.14868 0.21409,0.0714 0.3984452,0.17841 0.1843552,0.10704 0.3032941,0.26166 0.1248858,0.14868 0.1248858,0.38061 0,0.37465 -0.2914002,0.5828 -0.2914002,0.20219 -0.9217761,0.20219 -0.2854533,0 -0.523331,-0.0476 -0.2378777,-0.0476 -0.4519677,-0.14273 l 0.095151,-0.44602 q 0.208143,0.0951 0.4341269,0.16057 0.2319307,0.0595 0.4935962,0.0595 0.6720045,0 0.6720045,-0.33898 z"
         style="fill:#774444;fill-opacity:1"
         id="path825" />
      <path
         d="m 10.09098,283.93733 q 0,0.32708 -0.095151,0.59469 -0.089204,0.26167 -0.2557185,0.45197 -0.1665144,0.1903 -0.3984452,0.29734 -0.2319308,0.1011 -0.5054901,0.1011 -0.2676124,0 -0.4995432,-0.1011 -0.2259838,-0.10704 -0.3924982,-0.29734 -0.1665144,-0.1903 -0.2616655,-0.45197 -0.089204,-0.26761 -0.089204,-0.59469 0,-0.32709 0.089204,-0.5947 0.095151,-0.26761 0.2616655,-0.45197 0.1665144,-0.1903 0.3924982,-0.2914 0.2319308,-0.10704 0.4995432,-0.10704 0.2735593,0 0.5054901,0.10704 0.2319308,0.1011 0.3984452,0.2914 0.1665144,0.18436 0.2557185,0.45197 0.095151,0.26761 0.095151,0.5947 z m -0.5054904,0 q 0,-0.46981 -0.2021961,-0.73743 -0.202196,-0.27355 -0.5471187,-0.27355 -0.3389758,0 -0.5411718,0.27355 -0.1962491,0.26762 -0.1962491,0.73743 0,0.46386 0.1962491,0.73742 0.202196,0.26761 0.5411718,0.26761 0.3449227,0 0.5471187,-0.26761 0.2021961,-0.27356 0.2021961,-0.73742 z"
         style="fill:#777744;fill-opacity:1"
         id="path827" />
      <path
         d="m 12.338924,285.38243 q -0.261665,0 -0.434127,-0.0714 -0.172461,-0.0714 -0.273559,-0.21409 -0.101098,-0.14273 -0.142727,-0.35087 -0.04163,-0.21409 -0.04163,-0.4936 v -2.6107 h -0.796891 v -0.41629 h 1.28454 v 3.02699 q 0,0.20815 0.02379,0.33898 0.02973,0.13083 0.08326,0.21409 0.05947,0.0773 0.142727,0.10704 0.08326,0.0297 0.196249,0.0297 0.172461,0 0.321135,-0.0416 0.148673,-0.0416 0.23193,-0.0892 l 0.07136,0.41628 q -0.03568,0.0178 -0.101098,0.0476 -0.06542,0.0238 -0.154621,0.0476 -0.0892,0.0238 -0.196249,0.0416 -0.101098,0.0178 -0.21409,0.0178 z"
         style="fill:#447744;fill-opacity:1"
         id="path829" />
      <path
         d="m 15.389706,284.62717 q 0,-0.14867 -0.124886,-0.24382 -0.118939,-0.0951 -0.303294,-0.16652 -0.178409,-0.0714 -0.392499,-0.13678 -0.21409,-0.0714 -0.398445,-0.17246 -0.178408,-0.1011 -0.303294,-0.24977 -0.118939,-0.14867 -0.118939,-0.38655 0,-0.33303 0.267613,-0.55307 0.273559,-0.22598 0.850413,-0.22598 0.225983,0 0.463861,0.0357 0.243825,0.0297 0.416286,0.0833 l -0.0892,0.44007 q -0.04758,-0.0238 -0.130833,-0.0476 -0.08326,-0.0297 -0.190302,-0.0476 -0.107045,-0.0238 -0.231931,-0.0357 -0.118939,-0.0119 -0.231931,-0.0119 -0.642269,0 -0.642269,0.35087 0,0.12489 0.118939,0.21409 0.124885,0.0833 0.309241,0.15462 0.184355,0.0714 0.398445,0.14868 0.21409,0.0714 0.398445,0.17841 0.184355,0.10704 0.303294,0.26166 0.124886,0.14868 0.124886,0.38061 0,0.37465 -0.2914,0.5828 -0.291401,0.20219 -0.921777,0.20219 -0.285453,0 -0.523331,-0.0476 -0.237877,-0.0476 -0.451967,-0.14273 l 0.09515,-0.44602 q 0.208143,0.0951 0.434127,0.16057 0.23193,0.0595 0.493596,0.0595 0.672005,0 0.672005,-0.33898 z"
         style="fill:#447777;fill-opacity:1"
         id="path831" />
      <path
         d="m 16.579094,285.8344 q 0.05352,0.0297 0.148674,0.0476 0.101098,0.0178 0.184355,0.0178 0.2914,0 0.451968,-0.13084 0.166514,-0.12488 0.303294,-0.41628 -0.333029,-0.63038 -0.624429,-1.34996 -0.2914,-0.72552 -0.481703,-1.4451 h 0.535225 q 0.05947,0.23787 0.13678,0.51738 0.08326,0.27356 0.184355,0.56496 0.101098,0.2914 0.21409,0.58875 0.118939,0.2914 0.249772,0.55901 0.09515,-0.27356 0.178408,-0.54117 0.08326,-0.26762 0.154621,-0.53523 0.07136,-0.27356 0.142726,-0.55306 0.07136,-0.28546 0.148674,-0.60064 h 0.511437 q -0.190302,0.7731 -0.42818,1.49862 -0.231931,0.72553 -0.499543,1.34401 -0.101098,0.23788 -0.220037,0.41034 -0.112992,0.17246 -0.249772,0.28546 -0.136779,0.11299 -0.309241,0.16651 -0.172461,0.0535 -0.392498,0.0535 -0.112992,0 -0.249772,-0.0297 -0.130832,-0.0297 -0.178408,-0.0535 z"
         style="fill:#444477;fill-opacity:1"
         id="path833" />
      <path
         d="m 21.336649,284.62717 q 0,-0.14867 -0.124886,-0.24382 -0.118939,-0.0951 -0.303294,-0.16652 -0.178408,-0.0714 -0.392498,-0.13678 -0.21409,-0.0714 -0.398445,-0.17246 -0.178409,-0.1011 -0.303295,-0.24977 -0.118938,-0.14867 -0.118938,-0.38655 0,-0.33303 0.267612,-0.55307 0.273559,-0.22598 0.850413,-0.22598 0.225984,0 0.463861,0.0357 0.243825,0.0297 0.416286,0.0833 l -0.0892,0.44007 q -0.04758,-0.0238 -0.130833,-0.0476 -0.08326,-0.0297 -0.190302,-0.0476 -0.107045,-0.0238 -0.23193,-0.0357 -0.118939,-0.0119 -0.231931,-0.0119 -0.64227,0 -0.64227,0.35087 0,0.12489 0.118939,0.21409 0.124886,0.0833 0.309241,0.15462 0.184355,0.0714 0.398445,0.14868 0.21409,0.0714 0.398445,0.17841 0.184355,0.10704 0.303294,0.26166 0.124886,0.14868 0.124886,0.38061 0,0.37465 -0.2914,0.5828 -0.2914,0.20219 -0.921776,0.20219 -0.285454,0 -0.523331,-0.0476 -0.237878,-0.0476 -0.451968,-0.14273 l 0.09515,-0.44602 q 0.208143,0.0951 0.434127,0.16057 0.231931,0.0595 0.493596,0.0595 0.672005,0 0.672005,-0.33898 z"
         style="fill:#774477;fill-opacity:1"
         id="path835" />
    </g>
  </g>
</svg>
