<?xml version="1.0" encoding="UTF-8" standalone="no"?>
<!-- Created with Inkscape (http://www.inkscape.org/) -->

<svg
   xmlns:dc="http://purl.org/dc/elements/1.1/"
   xmlns:cc="http://creativecommons.org/ns#"
   xmlns:rdf="http://www.w3.org/1999/02/22-rdf-syntax-ns#"
   xmlns:svg="http://www.w3.org/2000/svg"
   xmlns="http://www.w3.org/2000/svg"
   xmlns:sodipodi="http://sodipodi.sourceforge.net/DTD/sodipodi-0.dtd"
   xmlns:inkscape="http://www.inkscape.org/namespaces/inkscape"
   width="100"
   height="100"
   viewBox="0 0 26.458333 26.458334"
   version="1.1"
   id="svg8"
   inkscape:version="0.92.2 (5c3e80d, 2017-08-06)"
   sodipodi:docname="planet-5.svg">
  <defs
     id="defs2" />
  <sodipodi:namedview
     id="base"
     pagecolor="#ffffff"
     bordercolor="#666666"
     borderopacity="1.0"
     inkscape:pageopacity="0.0"
     inkscape:pageshadow="2"
     inkscape:zoom="8"
     inkscape:cx="18.882437"
     inkscape:cy="59.216886"
     inkscape:document-units="mm"
     inkscape:current-layer="layer1"
     showgrid="false"
     units="px"
     inkscape:window-width="1417"
     inkscape:window-height="1008"
     inkscape:window-x="-7"
     inkscape:window-y="0"
     inkscape:window-maximized="0"
     inkscape:snap-global="true"
     inkscape:snap-bbox="true"
     inkscape:bbox-nodes="true"
     inkscape:bbox-paths="true"
     inkscape:snap-bbox-edge-midpoints="true"
     inkscape:snap-bbox-midpoints="true"
     inkscape:object-paths="true"
     inkscape:snap-intersection-paths="true"
     inkscape:snap-smooth-nodes="true"
     inkscape:snap-midpoints="true" />
  <metadata
     id="metadata5">
    <rdf:RDF>
      <cc:Work
         rdf:about="">
        <dc:format>image/svg+xml</dc:format>
        <dc:type
           rdf:resource="http://purl.org/dc/dcmitype/StillImage" />
        <dc:title />
      </cc:Work>
    </rdf:RDF>
  </metadata>
  <g
     inkscape:label="Layer 1"
     inkscape:groupmode="layer"
     id="layer1"
     transform="translate(0,-270.54165)">
    <circle
       style="fill:#0088aa;stroke:none;stroke-width:0.31274524"
       id="path815"
       cx="13.229167"
       cy="283.77081"
       r="13.229167" />
    <path
       style="fill:#008000;stroke:none;stroke-width:1.18202925"
       d="M 79.054688 24.716797 C 76.995495 24.488022 72.084475 28.531353 69.193359 29.009766 C 65.126471 29.229659 60.661557 30.6817 56.427734 29.464844 C 50.370936 27.724031 34.387199 31.060752 28.519531 32.681641 C 26.85904 33.140324 35.100156 29.905597 33.455078 30.119141 C 21.980213 31.608955 12.052421 36.198186 0 50 C -2.8528099e-007 51.258016 0.047370281 52.505538 0.13867188 53.740234 C 0.17933645 54.290156 10.739401 46.421876 11.179688 46.095703 C 20.509334 39.184761 0.37978877 56.201904 0.43359375 56.609375 C 0.52575413 57.307265 0.63131892 58.000937 0.75195312 58.689453 C 0.80847237 59.012036 7.0615417 54.511911 13.191406 52.730469 C 23.689303 49.679634 36.107895 49.219787 36.634766 49.041016 C 37.642537 48.69859 45.10541 47.956815 45.458984 48.878906 C 45.652058 49.382415 40.800223 50.826018 38.386719 52.076172 C 34.564654 54.055926 23.329435 57.528242 17.964844 59.611328 C 9.6889117 62.824909 1.7020291 62.990672 1.7890625 63.306641 C 2.1628886 64.664058 2.5933928 65.998093 3.0761719 67.306641 C 7.7741976 68.735869 12.377345 68.391504 17.224609 67.375 C 19.320137 66.935554 21.551484 68.498412 23.765625 67.896484 C 24.290828 67.753694 22.500012 67.549249 21.328125 66.974609 C 20.570449 66.603082 20.561492 65.555046 20.892578 65.449219 C 21.766483 65.170176 24.988591 64.711533 27.279297 63.927734 C 30.076759 62.970531 31.841294 61.761727 33.212891 61.470703 C 34.645484 61.166565 37.137641 63.14424 39.222656 62.9375 C 39.951111 62.865198 38.333727 62.442683 37.294922 61.929688 C 36.412881 61.494097 36.34449 60.597575 36.814453 60.501953 C 37.518775 60.35852 39.559907 62.635848 41.619141 64.03125 C 42.920319 64.912976 44.717072 64.827936 45.216797 64.496094 C 45.778404 64.123357 43.790477 63.674739 43.048828 63.492188 C 42.014511 63.237372 40.412207 60.976179 41.53125 60.482422 C 42.645647 59.990705 41.81263 57.292382 43.035156 57.519531 C 44.038651 57.7059 43.805671 56.32085 41.947266 56.5 C 40.394881 56.649556 37.161366 58.009909 35.957031 57.769531 C 35.395483 57.657506 39.510187 54.028773 40.326172 53.521484 C 43.341097 51.647179 59.543756 45.178184 63.642578 50.224609 C 66.332797 53.476137 77.968282 46.814811 78.945312 45.375 C 79.674055 44.301123 70.671775 49.14261 68.056641 46.976562 C 67.044158 46.137923 55.630095 44.918981 54.564453 44.074219 C 51.418148 41.580146 46.422787 41.445084 45.068359 38.970703 C 43.547281 36.19207 55.358554 38.44974 55.550781 35.939453 C 55.566096 35.739478 60.452588 38.78721 64.630859 38.988281 C 69.696745 39.23225 74.307515 36.63469 75.472656 36.236328 C 78.710585 35.129229 82.391756 31.359578 81.353516 31.833984 C 80.035768 32.436139 72.495471 35.979761 71.359375 34.5 C 69.717665 32.361694 76.820389 33.667744 73.833984 30.613281 C 72.926399 29.684991 80.882932 24.919758 79.054688 24.716797 z M 19.244141 45.267578 C 21.047003 45.126313 24.21351 46.371214 26.384766 46.259766 C 28.866201 46.132396 35.518637 46.432296 31.863281 46.701172 C 30.088985 46.831566 22.331748 47.674288 19.583984 48.107422 C 17.284816 48.469879 10.943012 51.275093 10.916016 50.767578 C 10.863552 49.78131 17.002156 46.098271 18.5625 45.419922 C 18.757543 45.335123 18.986589 45.287759 19.244141 45.267578 z "
       transform="matrix(0.26458333,0,0,0.26458333,0,270.54165)"
       id="circle816" />
    <path
       style="fill:#008000;stroke:none;stroke-width:0.31274524"
       d="m 23.239182,277.3566 c -0.184383,0.17292 -0.891875,0.17941 -1.336212,0.4379 -0.705869,0.41063 -1.357596,1.08097 -1.390034,0.96501 -0.116522,-0.41654 1.772636,-1.96117 1.303854,-2.36427 -0.159078,-0.13679 -0.200946,0.35789 -1.017123,0.35645 -1.06006,-0.002 -2.683577,0.72092 -2.024658,0.21966 0.447559,-0.34048 1.874188,-0.90321 2.080046,-1.31278 0.354469,-0.70525 0.81425,-0.94321 0.73701,-2.13878 0.669975,0.54723 1.285307,1.15883 1.836557,1.82538 0.01507,0.0182 -0.03811,0.38258 -0.146142,0.63942 -0.107251,0.25505 -0.332801,0.61332 -0.321347,0.63382 0.02085,0.0373 0.326792,-0.3646 0.465462,-0.58078 0.139635,-0.21769 0.17464,-0.47935 0.191181,-0.4584 0.14038,0.17779 0.276294,0.35926 0.407572,0.54426 -0.729794,0.93808 -0.273658,0.75245 -0.786166,1.23311 z"
       id="circle819"
       inkscape:connector-curvature="0"
       sodipodi:nodetypes="ssssssscssssscs" />
    <path
       style="fill:#008000;stroke:none;stroke-width:0.26458332px;stroke-linecap:butt;stroke-linejoin:miter;stroke-opacity:1"
       d="m 14.471612,285.9493 c 0.840265,-0.12222 1.433461,0.39168 2.340228,0.44268 0.561468,0.0316 1.208142,-0.0786 1.741096,-0.10355 0.327763,-0.0153 0.612516,0.002 0.807988,0.10355 0.243032,0.12678 -0.368154,0.0706 -0.747313,0.12774 -0.217067,0.0327 -0.320532,0.14824 -0.404169,0.23036 -0.07884,0.0774 -0.147431,0.12146 -0.04121,0.1564 0.395207,0.13001 2.081201,-0.36565 2.826879,-0.20715 0.745678,0.1585 0.943558,0.21718 1.406002,0.60471 0.462444,0.38753 -0.633359,-0.28463 -1.321314,-0.25724 -0.687955,0.0274 -1.857679,0.50502 -2.771251,0.46771 -0.913572,-0.0373 -3.091334,-1.54166 -3.133735,-0.86528 -0.02009,0.32051 0.492527,0.66665 1.003506,0.85639 0.567372,0.21068 1.451958,0.0515 0.925847,0.27783 -0.622008,0.26754 -1.115557,-0.24174 -1.718878,-0.14031 -0.603321,0.10143 -1.098013,0.90528 -1.917659,0.68989 -0.586105,-0.15402 0.328735,-0.12598 0.891588,-0.42965 0.198722,-0.10721 0.310175,-0.41267 0.347875,-0.5058 0.144479,-0.35691 0.775214,-0.21892 -0.116931,-0.74835 -1.817825,-0.93583 -2.905342,0.44744 -2.522616,-0.14144 0.382726,-0.58888 1.781992,-0.48612 2.404067,-0.55849 z"
       id="path822"
       inkscape:connector-curvature="0"
       sodipodi:nodetypes="csssssszzzzssszsssczc" />
    <path
       style="fill:#008000;stroke:none;stroke-width:0.31274524"
       d="m 17.760914,290.02409 c -1.305573,1.36469 -4.85385,3.53266 -6.38383,3.867 -2.0263996,0.44282 -2.184863,2.63148 -3.9322234,1.78062 -0.5398027,-0.26286 -1.0590477,-0.56137 -1.554686,-0.89244 -0.1370056,-0.0915 1.5210156,-0.75413 2.7604656,-1.39674 0.8206526,-0.42548 1.3388097,-0.86516 1.331781,-0.97381 -0.00603,-0.0932 -1.1989063,0.91004 -2.8218267,1.16988 -1.284201,0.20561 -2.5113697,0.26297 -2.6147476,0.17295 -0.9470916,-0.82469 -1.7757097,-1.78195 -2.4569023,-2.8429 0.782605,-0.65605 4.5462175,0.61376 5.642093,0.49904 2.2788274,-0.23855 1.7461575,0.36641 3.6572764,0.35745 0.479515,-0.002 1.15483,-1.39061 2.326292,-1.74696 0.538543,-0.16382 0.733034,-0.40327 1.075714,-0.52893 0.170336,-0.0625 0.377317,-0.13927 0.681228,-0.0789 0.186672,0.0371 -0.06803,-0.005 -0.518466,0.18775 -0.50087,0.2145 -1.079757,0.85307 -0.82981,0.75875 0.131913,-0.0498 0.40423,-0.0862 0.636105,-0.18751 0.67888,-0.29657 1.512244,-0.84859 2.363242,-0.97895 0.462441,-0.0708 0.933658,0.15553 1.314843,0.14856 0.232465,-0.0234 0.685362,-0.10637 0.963935,-0.0785 0.233326,0.0234 0.740337,0.41241 0.321838,0.24726 -0.418498,-0.16515 -1.473047,0.0259 -1.962321,0.51638 z"
       id="circle824"
       inkscape:connector-curvature="0"
       sodipodi:nodetypes="cssssssscssssssssscszc" />
    <path
       style="fill:#008000;stroke:none;stroke-width:0.31274524"
       d="m 10.35377,272.71233 c -0.6773274,0.16195 -1.2351526,0.53755 -1.9431463,0.78399 -0.2082947,0.0725 -0.4402683,0.10482 -0.6788064,0.12688 -0.1903248,0.0176 0.9249132,-0.38413 0.7132773,-0.41438 -0.2184856,-0.0312 -0.5712216,0.20349 -1.13219,0.3101 -0.8134593,0.1546 -1.9229425,0.1946 -2.5123838,0.0549 1.6861994,-1.39536 3.9392303,-1.8844 6.1762252,-2.30641 0.799387,-0.1508 1.409204,-0.72578 2.252421,-0.72578 0.67055,0 1.329444,0.0499 1.973184,0.14616 0.09518,0.0142 -1.124766,0.17911 -1.971072,0.43143 -1.116514,0.33289 -1.943943,0.77513 -1.820483,0.80003 0.0847,0.0171 1.217018,-0.61036 2.365719,-0.75297 1.205205,-0.14962 2.511964,-0.26945 2.599535,-0.24809 0.513566,0.12531 1.015384,0.2806 1.503493,0.46391 -3.009404,0.55975 -6.035837,0.97395 -7.525773,1.33021 z"
       id="circle817"
       inkscape:connector-curvature="0"
       sodipodi:nodetypes="csssscssssssscsc" />
    <path
       style="fill:#008000;stroke:none;stroke-width:0.31274524"
       d="m 26.458334,283.77081 c 0,0.32895 -0.012,0.6551 -0.0356,0.97802 -0.01477,0.20209 -0.783315,-0.35875 -1.645358,-0.62501 -0.6076,-0.18766 -1.394788,-0.12912 -1.4159,0.0101 -0.01975,0.13021 0.955727,0.33971 1.521068,0.79579 0.805681,0.64997 1.289852,1.59615 1.248833,1.77717 -0.20148,0.88914 -0.492518,1.74429 -0.863125,2.55546 -1.19711,0.91705 -2.798884,1.80701 -3.853951,1.61049 -0.13953,-0.026 0.92208,-0.14189 1.922636,-0.81938 0.708757,-0.47991 1.337445,-1.45582 1.706404,-1.92986 0.438109,-0.56288 -0.857608,-0.67356 -0.892183,-1.13757 -0.07376,-0.98994 -1.339773,-2.14352 -2.660589,-2.38395 -1.005295,-0.183 -2.209307,0.49692 -1.966795,0.22708 0.913757,-1.01672 2.512185,-0.61666 3.196823,-1.01497 0.841667,-0.48968 2.745553,-0.19486 3.737741,-0.0434 z"
       id="circle820"
       inkscape:connector-curvature="0"
       sodipodi:nodetypes="cssssscssssssscc" />
    <path
       style="fill:#008000;stroke:none;stroke-width:0.26458332px;stroke-linecap:butt;stroke-linejoin:miter;stroke-opacity:1"
       d="m 15.068124,273.16863 c -0.466379,0.32476 -0.943847,0.86545 -1.644512,1.05331 -1.741947,0.46704 -4.8954364,-0.2401 -6.6416478,0.46772 -0.191052,0.0774 -0.6669763,0.16369 -1.0560629,0.36499 -0.3613559,0.18695 -0.5776693,0.11308 -0.7356398,0.20884 -0.1297743,0.0787 0.2417836,0.16973 0.6817475,0.0446 0.4399638,-0.12512 -0.3114401,0.70362 -0.5041899,0.85288 -0.2445897,0.194 -0.2791966,0.55112 -0.5256858,0.79169 -0.3390221,0.3309 -0.8361617,0.50674 -1.1814881,0.83399 -0.5543128,0.52531 -0.9260347,1.18006 -1.1921951,1.53318 -0.3222121,0.42749 0.8265266,-0.48216 1.5172142,-1.19488 0.3683443,-0.3801 0.8589775,-0.38049 1.1547238,-0.61255 0.5746719,-0.45093 2.2977743,-0.0253 3.3411875,-0.0439 0.2508329,-0.004 0.4610496,-0.10143 0.5532844,-0.18936 0.053303,-0.0508 -0.2607128,0.0117 -0.4306321,0.0214 -0.086909,0.005 -0.4939868,-0.12041 -0.012861,-0.14235 0.4811258,-0.0219 0.8693234,-1.45286 1.8049651,-1.53332 0.935642,-0.0805 3.701211,2.40088 4.443356,1.21608 0.742145,-1.1848 4.943777,-1.4354 4.256267,-2.05798 -0.05672,-0.0514 -0.340359,0.28693 -0.520943,0.24402 -0.204408,-0.0486 -0.316041,-0.47667 -0.576881,-0.46671 -0.466816,0.0178 -0.875373,0.34149 -1.150766,0.49478 -0.148863,0.0829 -0.894771,0.27788 -0.990941,0.22462 -0.08087,-0.0448 0.354701,-0.17841 0.483109,-0.23901 0.134444,-0.0634 0.312756,-0.16906 0.259421,-0.299 -0.199748,-0.48655 -1.09307,-0.67662 -0.779093,-1.22999 0.222349,-0.39189 0.689715,-0.54199 1.049336,-0.6096 0.234278,-0.044 0.924996,0.15128 0.413506,-0.17372 -0.606062,-0.38509 -1.709191,0.22957 -2.014579,0.44039 z"
       id="path823"
       inkscape:connector-curvature="0"
       sodipodi:nodetypes="csssszcsssssssszzzsssssssssscc" />
    <path
       style="fill:#008000;stroke:none;stroke-width:0.31274524"
       d="m 23.200785,292.46465 c -0.223892,0.25659 -0.457526,0.50445 -0.700327,0.74302 -0.1117,0.10975 -1.584651,0.52448 -1.92949,0.51314 -0.344839,-0.0113 -2.143176,0.0388 -2.40088,0.36208 -0.09957,0.12491 -0.39116,0.32604 -0.731782,0.31874 -0.433207,-0.009 -1.02106,-0.12561 -0.87542,-0.0457 0.0825,0.0452 0.19655,0.27826 0.472469,0.30726 0.344648,0.0362 0.945346,0.25119 1.24459,0.0573 0.720524,-0.46675 1.721907,-0.64045 1.99497,-0.60793 0.592569,0.0706 1.031332,0.13678 0.961149,0.19022 -0.398128,0.30315 -0.813963,0.58423 -1.245682,0.84143 -0.49243,0.29338 -0.620041,0.0554 -1.784628,0.53615 -1.434455,0.59216 -1.173065,0.78845 -1.923717,0.96577 -0.980011,0.23149 -2.002135,0.35399 -3.05287,0.35399 -0.08555,0 0.124035,-0.32331 0.691778,-0.48899 0.795214,-0.23206 2.003518,-0.25967 1.92011,-0.33522 -0.07991,-0.0724 -1.003955,-0.0856 -1.955026,0.11903 -0.861184,0.18529 -1.785183,0.65812 -1.881498,0.64928 -0.967388,-0.0888 -1.904628,-0.28174 -2.8004158,-0.56753 6.2146068,-0.25309 4.3569098,-1.62142 4.7807628,-2.0352 0.587348,-0.57338 3.249024,-2.14766 3.921506,-1.91029 0.124732,0.044 -0.381034,0.15519 -0.679557,0.37897 -0.241445,0.181 -0.406364,0.30514 -0.346149,0.29078 0.793855,-0.18934 2.199347,-0.84014 2.538445,-0.77066 0.339098,0.0695 1.201889,-0.66817 0.888671,-0.14035 -0.313217,0.52782 1.70195,-0.36728 2.892991,0.27474 z"
       id="circle825"
       inkscape:connector-curvature="0"
       sodipodi:nodetypes="cszssssssssssssssscsssszzcc" />
    <path
       style="fill:#008000;stroke:none;stroke-width:0.31274524"
       d="m 25.566801,280.39393 c -0.897329,-0.93202 -1.220729,0.47018 -2.055295,0.82016 -0.129793,0.0544 0.137115,-0.42671 -0.161592,-0.55418 -0.400072,-0.17072 -1.150025,-0.17093 -1.748508,0.14836 -0.308258,0.16445 -0.614034,0.9997 -0.647475,0.43684 -0.05212,-0.87729 1.050321,-0.91043 1.761474,-0.96067 0.803332,-0.0567 0.722882,-2.05784 2.505944,-2.09918 0.09033,0.16651 0.193966,0.36477 0.293077,0.61868 0.03985,0.10208 0.08045,0.21168 0.121831,0.32917 0.03681,0.10449 0.07423,0.21521 0.11231,0.33243 0.06107,0.18802 0.122113,0.39927 0.186614,0.62179 5.19e-4,0.27857 -0.0363,0.46603 -0.122811,0.6067 -0.395415,0.64296 -0.158441,0.0536 -0.140178,-0.1415 0.01659,-0.17721 -0.03077,-0.27831 -0.105391,-0.1586 z"
       id="circle828"
       inkscape:connector-curvature="0"
       sodipodi:nodetypes="cssssscssscssc" />
  </g>
</svg>
