<svg xmlns="http://www.w3.org/2000/svg" width="100" height="100" viewBox="0 0 26.458333 26.458334"><g transform="translate(0 -270.542)"><ellipse cx="13.229" cy="283.771" rx="13.229" ry="13.229" fill="#0cf"/><path d="M4.86 286.31c-.242-.002-.495.032-.756.107-.974.278-2.198 1.627-2.927 2.77a13.23 13.23 0 0 0 2.56 3.797l.006.007a13.23 13.23 0 0 0 .962.896l.004.003a13.23 13.23 0 0 0 2.554 1.672c.466-1.391.87-5.336.695-6.301-.224-1.245-1.405-2.947-3.098-2.952zM13.23 270.542a13.23 13.23 0 0 0-8.223 2.865 13.23 13.23 0 0 0-.002.002 13.23 13.23 0 0 0-.987.867l-.013.012a13.23 13.23 0 0 0-.886.952l-.015.017A13.23 13.23 0 0 0 0 283.771c2.603-3.39 5.25-1.035 6.413-5.88.871-3.629 7.81-6.195 8.612-7.211a13.23 13.23 0 0 0-1.796-.138zM21.4 273.385c-1.057 1.514-.999 6.511-3.55 6.511-6.23 0-8.363.46-7.35 4.065.174.623 2.094 1.706 2.332 2.505.406 1.356 3.657.015 3.236 1.094-.861 2.21.82 1.217 1.616.303 1.663-1.912 4.487-4.69 4.833-3.902 1.58 3.597-1.192 3.277-1.222 5.468-.024 1.758.555 3.04 2.606 2.136a13.23 13.23 0 0 0 2.557-7.794 13.23 13.23 0 0 0-5.058-10.386z" fill="#c87137"/></g></svg>