<?xml version="1.0" encoding="UTF-8" standalone="no"?>
<!-- Created with Inkscape (http://www.inkscape.org/) -->

<svg
   xmlns:dc="http://purl.org/dc/elements/1.1/"
   xmlns:cc="http://creativecommons.org/ns#"
   xmlns:rdf="http://www.w3.org/1999/02/22-rdf-syntax-ns#"
   xmlns:svg="http://www.w3.org/2000/svg"
   xmlns="http://www.w3.org/2000/svg"
   xmlns:sodipodi="http://sodipodi.sourceforge.net/DTD/sodipodi-0.dtd"
   xmlns:inkscape="http://www.inkscape.org/namespaces/inkscape"
   width="100"
   height="100"
   viewBox="0 0 26.458333 26.458334"
   version="1.1"
   id="svg8"
   inkscape:version="0.92.2 (5c3e80d, 2017-08-06)"
   sodipodi:docname="planet-1-ink.svg">
  <defs
     id="defs2" />
  <sodipodi:namedview
     id="base"
     pagecolor="#ffffff"
     bordercolor="#666666"
     borderopacity="1.0"
     inkscape:pageopacity="0.0"
     inkscape:pageshadow="2"
     inkscape:zoom="4"
     inkscape:cx="53.012692"
     inkscape:cy="76.026856"
     inkscape:document-units="mm"
     inkscape:current-layer="layer1"
     showgrid="false"
     showborder="true"
     inkscape:window-width="1920"
     inkscape:window-height="1017"
     inkscape:window-x="-8"
     inkscape:window-y="-8"
     inkscape:window-maximized="1"
     units="px" />
  <metadata
     id="metadata5">
    <rdf:RDF>
      <cc:Work
         rdf:about="">
        <dc:format>image/svg+xml</dc:format>
        <dc:type
           rdf:resource="http://purl.org/dc/dcmitype/StillImage" />
        <dc:title></dc:title>
      </cc:Work>
    </rdf:RDF>
  </metadata>
  <g
     inkscape:label="Layer 1"
     inkscape:groupmode="layer"
     id="layer1"
     transform="translate(0,-270.54165)">
    <ellipse
       id="path3699"
       cx="13.229167"
       cy="283.77084"
       style="fill:#00ccff;stroke-width:0.05399659"
       rx="13.229167"
       ry="13.229161" />
    <path
       style="fill:#c87137;stroke-width:0.05399659"
       d="m 4.8595889,286.30908 c -0.2419086,-7.9e-4 -0.4943108,0.0329 -0.7558472,0.10757 -0.974063,0.27803 -2.1979315,1.62735 -2.9264682,2.76944 a 13.229166,13.229162 0 0 0 2.5588276,3.79811 c 0.00238,0.002 0.00478,0.005 0.00717,0.007 a 13.229166,13.229162 0 0 0 0.9617091,0.8959 c 0.00124,0.001 0.00246,0.002 0.00369,0.003 a 13.229166,13.229162 0 0 0 2.5546087,1.67178 c 0.466163,-1.39116 0.8694518,-5.33591 0.6952062,-6.30093 -0.2247694,-1.24484 -1.40554,-2.94651 -3.0988982,-2.95242 z"
       id="circle3709"
       inkscape:connector-curvature="0" />
    <path
       style="fill:#c87137;stroke-width:0.05399659"
       d="m 13.229167,270.54166 a 13.229166,13.229162 0 0 0 -8.2222478,2.86561 13.229166,13.229162 0 0 0 -0.00201,0.002 13.229166,13.229162 0 0 0 -0.9871255,0.86722 c -0.00412,0.004 -0.00822,0.008 -0.012338,0.012 a 13.229166,13.229162 0 0 0 -0.8865145,0.95159 c -0.00489,0.006 -0.00978,0.0116 -0.01466,0.0174 A 13.229166,13.229162 0 0 0 2.032406e-7,283.77082 C 2.6026378,280.3819 5.2504329,282.73603 6.413151,277.89089 c 0.8708348,-3.62884 7.808973,-6.19484 8.611931,-7.21129 a 13.229166,13.229162 0 0 0 -1.795915,-0.13794 z"
       id="circle3718"
       inkscape:connector-curvature="0" />
    <path
       style="fill:#c87137;stroke-width:0.05399659"
       d="m 21.39995,273.38523 c -1.057066,1.51365 -0.998793,6.51091 -3.550804,6.51091 -6.229267,10e-6 -8.3617068,0.46043 -7.349629,4.06447 0.174982,0.62311 2.094011,1.70688 2.332796,2.5053 0.405579,1.35611 3.656584,0.0146 3.235578,1.09448 -0.861289,2.20921 0.820415,1.21698 1.616101,0.30246 1.663165,-1.91154 4.486749,-4.68991 4.833013,-3.90199 1.58072,3.59696 -1.192041,3.27677 -1.222096,5.46863 -0.0241,1.75771 0.555428,3.04032 2.606179,2.13551 1.656715,-2.26148 2.552194,-4.99079 2.557245,-7.79418 -0.0057,-4.05406 -1.869998,-7.88166 -5.058383,-10.38559 z"
       id="circle3725"
       inkscape:connector-curvature="0"
       sodipodi:nodetypes="csssssssccc" />
  </g>
</svg>
