<svg xmlns="http://www.w3.org/2000/svg" width="100" height="100" viewBox="0 0 26.458333 26.458333"><g transform="translate(0 -270.542)"><circle cx="13.229" cy="283.771" r="13.229" fill="navy"/><path d="M14.155 289.724c.583.666 2.093.24 3.278.775.308.138.433.808.612.923.508.323-.651.198-.824.506-1.46 2.61-2.173 2.305-2.031 2.611.243.529.783.21.678.707-.216 1.014-.96 1.754-2.639 1.754-3.092 0-5.937-1.06-8.189-2.839-.381-.381-.65-.664-.735-.999-.052-.205.078-.561.12-.679.065-.184.176.025.392-.133.296-.215.574-.572.915-.944.505-.551.164-1.347.352-1.656.272-.446.475-1.285.772-1.279 1.667.034.866.598 1.806.347 1.085-.29.572-.43 1.352-.625 2.733-.686 3.559.865 4.141 1.53z" fill="#c87137"/><path d="M16.803 294.18c-.055-.07-.343.206-.388.364-.045.157-.14.89.025 1 .165.11.798-.224.826-.38.03-.157-.337-.376-.38-.513-.043-.137-.027-.4-.083-.471zM4.052 274.243a13.235 13.235 0 0 0-3.707 6.52c-.258 1.296.529 2.6 1.463 2.248.67-.287 1.193-.367 1.618-.333.191.016-.001.253.154.307.168.057.681-.066.818.016.805.484 1.136 1.343 1.949 1.4.62.042 1.204-.52 1.956-.873.432-.203 1.04-.055 1.267-.51.245-.49.074-1.626-.471-3.024-.344-.882-1.46-.802-1.883-1.46-.038-.058-.213-.934.127-1.334.303-.354 1.106-.213 1.358-.58.288-.42.277-.602.245-.864-.02-.16-.433.09-.648.027-.42-.122-.559.037-.842.101-.464.106-.426-.126-.568-.373-.58-1.002-2.042-1.224-2.836-1.268zM17.982 271.425c-.936 1.543 2.636 1.795 2.881 2.528.25.743-.861 1.426-2.01 2.432-1.15 1.006-4.351 1.437-5.099 3.18-.747 1.745 1.155.172 1.076.656-.078.483-.865.806-.772 2.034.093 1.228 1.222 2.568 1.754 2.362.396-.153.404-2.463.948-4.15.093-.29.532-.429.645-.655.113-.227-.1-.542.091-.714 1.49-1.337 4.871-.134 6.127-1.17.39-.32.743-.598 1.006-.87a13.26 13.26 0 0 0-6.647-5.633z" fill="#c87137"/><path d="M17.648 281.081c-.054.14.255.31.417.33.097.013-.279.634-.033.593.167-.027.985-.692 1.02-.765.083-.18-.555-.38-.5-.761.057-.381-.56-.177-.698-.053-.139.125-.152.517-.206.656zM24.576 280.856c-.451.078-.515 3.132-.765 3.532-.265.427-.85.736-1.157.678-.307-.058-1.248.703-1.158 1.14.09.439.802 1.356.943 1.969.141.612-.919 1.673-.81 2.364.083.531.36.962.893 1.206.161.074.307.597.455.468.15-.132.404-.256.475-.454.316-.883.942-1.79 1.352-2.113a.708.708 0 0 1 .355-.157c.444-.92.771-1.888.992-2.885.024-.55.018-1.078-.012-1.439-.037-.444-.55-1.262-.597-2.025-.055-.886-.55-2.04-.87-2.258a.129.129 0 0 0-.096-.026zM13.23 270.542c-.576.005-1.154.032-1.724.112.065.303.083.163.199.504.118.35-.453.6.14.679.594.079 1.141-.444 1.438-.796.293-.345.298-.117.518-.487-.19-.014-.382-.007-.572-.012z" fill="#c87137"/></g></svg>