<?xml version="1.0" encoding="UTF-8" standalone="no"?>
<!-- Created with Inkscape (http://www.inkscape.org/) -->

<svg
   xmlns:dc="http://purl.org/dc/elements/1.1/"
   xmlns:cc="http://creativecommons.org/ns#"
   xmlns:rdf="http://www.w3.org/1999/02/22-rdf-syntax-ns#"
   xmlns:svg="http://www.w3.org/2000/svg"
   xmlns="http://www.w3.org/2000/svg"
   xmlns:sodipodi="http://sodipodi.sourceforge.net/DTD/sodipodi-0.dtd"
   xmlns:inkscape="http://www.inkscape.org/namespaces/inkscape"
   width="100mm"
   height="100mm"
   viewBox="0 0 99.999996 99.999996"
   version="1.1"
   id="svg8"
   inkscape:version="0.92.2 (unknown)"
   sodipodi:docname="planet-2.svg">
  <defs
     id="defs2" />
  <sodipodi:namedview
     id="base"
     pagecolor="#ffffff"
     bordercolor="#666666"
     borderopacity="1.0"
     inkscape:pageopacity="0.0"
     inkscape:pageshadow="2"
     inkscape:zoom="1"
     inkscape:cx="157.80172"
     inkscape:cy="197.5346"
     inkscape:document-units="mm"
     inkscape:current-layer="layer1"
     showgrid="false"
     units="mm"
     inkscape:snap-bbox="true"
     inkscape:bbox-nodes="true"
     inkscape:snap-bbox-edge-midpoints="true"
     inkscape:snap-bbox-midpoints="true"
     inkscape:bbox-paths="true"
     inkscape:object-paths="true"
     inkscape:snap-intersection-paths="true"
     inkscape:snap-smooth-nodes="true"
     inkscape:snap-midpoints="true"
     inkscape:snap-object-midpoints="true"
     inkscape:snap-center="true"
     inkscape:window-width="1366"
     inkscape:window-height="711"
     inkscape:window-x="0"
     inkscape:window-y="0"
     inkscape:window-maximized="1" />
  <metadata
     id="metadata5">
    <rdf:RDF>
      <cc:Work
         rdf:about="">
        <dc:format>image/svg+xml</dc:format>
        <dc:type
           rdf:resource="http://purl.org/dc/dcmitype/StillImage" />
        <dc:title></dc:title>
      </cc:Work>
    </rdf:RDF>
  </metadata>
  <g
     inkscape:label="Layer 1"
     inkscape:groupmode="layer"
     id="layer1"
     transform="translate(0,-197)">
    <circle
       id="path3699"
       cx="50"
       cy="247"
       style="stroke-width:0.26540202;fill:#318e00;fill-opacity:1"
       r="50" />
    <path
       style="fill:#000042;fill-opacity:1;stroke-width:0.26540205"
       d="m 100,247 c 0,2.35571 -0.162911,4.67337 -0.478081,6.94233 -0.40489,2.91487 -1.061062,5.74935 -1.945938,8.48088 -0.674975,2.08359 -8.308083,-10.26282 -15.623945,-2.87991 -2.883886,2.91032 -12.143817,-1.0817 -12.43277,-8.37084 -0.330512,-8.33752 -3.868098,-8.43582 -7.496012,-10.04252 -8.798007,-3.89641 -17.111432,3.88242 -11.751511,6.12847 12.050181,5.0496 0.92953,13.26887 -0.214212,15.50931 -5.812221,11.38539 -0.563242,16.18014 4.253233,13.21815 3.082827,-1.89585 14.672992,17.27012 21.476535,0.94126 5.189762,-12.45571 13.72127,0.73316 13.11721,1.4832 C 79.738393,289.74918 65.715957,297 50,297 c -8.706789,0 -16.893789,-2.22547 -24.023204,-6.13861 -1.765051,-0.96879 -2.632955,-7.34716 2.011275,-10.01573 1.772593,-1.01853 3.930604,-5.08168 0.806175,-9.72898 -3.169295,-4.71403 -6.66759,-2.2279 -13.46695,-5.35407 -5.26038,-2.41859 -10.0927254,4.30446 -12.1620972,-1.21676 C 1.1189814,259.08642 0,253.17389 0,247 c 0,-2.48039 3.9947405,6.94766 7.5301655,0.2982 6.1520335,-11.57081 0.600479,-10.42405 2.0920698,-14.00411 3.1478937,-7.55546 11.0851477,-0.42305 14.0006047,10.18497 2.894252,10.53087 20.242692,-8.20339 13.874983,-12.7976 -11.510589,-8.30474 8.858287,-9.66651 10.139126,-12.45071 5.631589,-12.24156 -7.277441,-16.76231 -10.769774,-11.35433 -4.184704,6.48014 -14.801255,-1.42435 -12.69903,-2.69531 C 31.70731,199.62311 40.547324,197 50,197 c 5.759021,0 11.283316,0.99482 16.439207,2.76532 1.066254,0.36615 -6.642353,1.31724 -6.256976,9.56757 0.670788,14.36055 3.618094,5.5651 8.522895,9.4561 5.502839,4.36543 -6.556515,13.44007 10.015548,12.96997 3.376837,-0.0958 4.075082,-2.03565 2.862343,-5.2875 -1.380409,-3.70145 1.004311,-3.96351 2.290314,-3.28122 5.979803,3.1726 7.66293,-4.60458 4.069274,-6.10823 -1.278868,-0.5351 -1.080157,-3.69751 -0.185392,-2.85303 0.02572,0.0243 0.05201,0.0519 0.07886,0.0829 C 95.415291,223.07694 100,234.50306 100,247 Z"
       id="path3699-3"
       inkscape:connector-curvature="0"
       sodipodi:nodetypes="sssssssssscsssssssssssssssssssssssss" />
  </g>
</svg>
