<svg xmlns="http://www.w3.org/2000/svg" width="100mm" height="100mm" viewBox="0 0 99.999996 99.999996"><g transform="translate(0 -197)"><circle cx="50" cy="247" r="50" fill="#318e00"/><path d="M100 247a50.44 50.44 0 0 1-.478 6.942 49.692 49.692 0 0 1-1.946 8.481c-.675 2.084-8.308-10.263-15.624-2.88-2.884 2.91-12.144-1.081-12.433-8.37-.33-8.338-3.868-8.436-7.496-10.043-8.798-3.896-17.111 3.882-11.751 6.128 12.05 5.05.93 13.27-.214 15.51-5.813 11.385-.564 16.18 4.253 13.218 3.083-1.896 14.673 17.27 21.476.941 5.19-12.456 13.722.733 13.118 1.483C79.738 289.75 65.716 297 50 297c-8.707 0-16.894-2.225-24.023-6.139-1.765-.968-2.633-7.347 2.011-10.015 1.773-1.019 3.93-5.082.806-9.73-3.169-4.713-6.667-2.227-13.467-5.353-5.26-2.419-10.092 4.304-12.162-1.217A49.892 49.892 0 0 1 0 247c0-2.48 3.995 6.948 7.53.298 6.152-11.57.6-10.424 2.092-14.004 3.148-7.555 11.085-.423 14 10.185 2.895 10.53 20.244-8.203 13.876-12.798-11.51-8.304 8.858-9.666 10.139-12.45 5.632-12.242-7.277-16.763-10.77-11.355-4.185 6.48-14.801-1.424-12.699-2.695C31.708 199.623 40.548 197 50 197c5.759 0 11.283.995 16.44 2.765 1.065.366-6.643 1.318-6.258 9.568.671 14.36 3.618 5.565 8.523 9.456 5.503 4.365-6.556 13.44 10.016 12.97 3.377-.096 4.075-2.036 2.862-5.288-1.38-3.701 1.004-3.963 2.29-3.28 5.98 3.172 7.663-4.605 4.07-6.109-1.28-.535-1.08-3.697-.186-2.853.026.024.052.052.08.083C95.414 223.077 100 234.503 100 247z" fill="#000042"/></g></svg>