<?xml version="1.0" encoding="UTF-8" standalone="no"?>
<!-- Created with Inkscape (http://www.inkscape.org/) -->

<svg
   xmlns:dc="http://purl.org/dc/elements/1.1/"
   xmlns:cc="http://creativecommons.org/ns#"
   xmlns:rdf="http://www.w3.org/1999/02/22-rdf-syntax-ns#"
   xmlns:svg="http://www.w3.org/2000/svg"
   xmlns="http://www.w3.org/2000/svg"
   xmlns:sodipodi="http://sodipodi.sourceforge.net/DTD/sodipodi-0.dtd"
   xmlns:inkscape="http://www.inkscape.org/namespaces/inkscape"
   width="100"
   height="100"
   viewBox="0 0 26.458333 26.458334"
   version="1.1"
   id="svg8"
   inkscape:version="0.92.2 (5c3e80d, 2017-08-06)"
   sodipodi:docname="planet-4.svg">
  <defs
     id="defs2" />
  <sodipodi:namedview
     id="base"
     pagecolor="#ffffff"
     bordercolor="#666666"
     borderopacity="1.0"
     inkscape:pageopacity="0.0"
     inkscape:pageshadow="2"
     inkscape:zoom="2.8284271"
     inkscape:cx="75.272607"
     inkscape:cy="45.002411"
     inkscape:document-units="mm"
     inkscape:current-layer="layer1"
     showgrid="false"
     units="px"
     inkscape:window-width="1920"
     inkscape:window-height="1017"
     inkscape:window-x="-8"
     inkscape:window-y="-8"
     inkscape:window-maximized="1"
     inkscape:object-nodes="true"
     inkscape:snap-global="true"
     inkscape:snap-bbox="true"
     inkscape:bbox-nodes="true"
     inkscape:bbox-paths="true"
     inkscape:snap-bbox-edge-midpoints="true"
     inkscape:snap-bbox-midpoints="true"
     inkscape:object-paths="true"
     inkscape:snap-intersection-paths="true"
     inkscape:snap-smooth-nodes="true" />
  <metadata
     id="metadata5">
    <rdf:RDF>
      <cc:Work
         rdf:about="">
        <dc:format>image/svg+xml</dc:format>
        <dc:type
           rdf:resource="http://purl.org/dc/dcmitype/StillImage" />
        <dc:title></dc:title>
      </cc:Work>
    </rdf:RDF>
  </metadata>
  <g
     inkscape:label="Layer 1"
     inkscape:groupmode="layer"
     id="layer1"
     transform="translate(0,-270.54165)">
    <circle
       style="fill:#00aad4;stroke:none;stroke-width:0.28186664"
       id="path815"
       cx="13.229167"
       cy="283.77081"
       r="13.229167" />
    <path
       style="fill:#008033;stroke:none;stroke-width:1.06532276"
       d="m 46.896484,55.019531 c -0.845608,-0.04783 -1.437372,2.434233 -1.642578,10.712891 -0.462134,18.64388 -2.236689,14.953273 -2.902344,20.138672 -1.409903,10.98308 2.740243,1.417361 7.64844,14.128895 6.407839,-0.0096 12.761205,-1.223423 18.70047,-3.628755 2.667746,-4.959759 -5.529766,-6.054403 -5.335238,-11.041156 0.09893,-2.535836 1.75397,-5.296557 2.285157,-7.949219 0.240774,-1.202381 -0.196687,-3.028725 -0.332032,-3.669921 -0.390236,-1.848794 -3.294644,1.979932 -3.845703,0.207031 -0.6613,-2.127572 0.336445,-6.698923 -0.511718,-8.732422 -2.29733,-5.508019 -8.245562,-1.692037 -10.896485,-5.695313 -1.22115,-1.844107 -2.32236,-4.422878 -3.167969,-4.470703 z"
       transform="matrix(0.26458333,0,0,0.26458333,0,270.54165)"
       id="circle817"
       inkscape:connector-curvature="0"
       sodipodi:nodetypes="ssscccscsccs" />
    <path
       style="fill:#008033;stroke:none;stroke-width:0.26121825px;stroke-linecap:butt;stroke-linejoin:miter;stroke-opacity:1"
       d="m 11.074952,285.01794 c 0.285529,0.25831 0.167152,-0.75469 0.313283,-1.41968 0.08904,-0.4052 0.56803,-0.75759 0.49594,-1.18786 -0.03807,-0.22721 0.286752,-0.90616 0.16681,-1.13817 -0.239821,-0.4639 -1.586039,-0.91167 -2.1001933,-1.16375 -0.5148021,-0.25239 -0.1976247,-0.30885 -0.5740664,-0.41087 -0.9404409,-0.25486 -1.7815641,0.85198 -2.0971396,0.65481 -0.3155754,-0.19717 0.060759,-0.57552 -0.6838501,-1.12253 -0.475239,-0.34912 -0.4660639,-1.2943 -0.9811895,-2.03496 -0.2919772,-0.41981 0.060524,-0.9114 -0.6332915,-0.75199 -0.5317443,0.12217 -0.7856453,-0.45971 -1.1327705,0.237 -0.1265058,0.2539 0.1199827,0.64932 0.010715,0.9851 -0.4071664,1.25123 -1.4618982,3.26642 -1.6899785,4.70518 -0.1485252,0.93691 0.5350736,1.20696 0.6009192,1.74335 0.187107,1.52421 0.9413704,2.00822 1.6605886,2.56977 0.3130736,0.24445 0.3423708,0.9964 0.7784761,1.03169 0.8910732,0.0721 0.9777052,0.18055 0.9132847,-0.26098 -0.039538,-0.27098 -0.1359749,-0.95321 -0.1382548,-1.37605 -0.00189,-0.35092 0.8989814,-0.77554 0.9170567,-1.45043 0.00379,-0.14145 0.1583955,-1.03049 -0.010357,-1.23853 -0.2085799,-0.25714 -0.5952151,0.35529 -0.8221831,0.0558 -0.5173229,-0.68269 -1.7231835,-0.62594 -1.3610362,-1.15557 0.6751013,-0.98731 1.2235668,-0.18479 2.2527409,-0.11295 1.0291742,0.0718 2.5514369,-0.20593 3.0089398,0.46772 0.4111255,0.75704 0.8200275,2.11559 1.1055565,2.3739 z"
       id="path823"
       inkscape:connector-curvature="0"
       sodipodi:nodetypes="zssssszssssssssssssssszcz" />
    <path
       style="fill:#008033;stroke:none;stroke-width:0.26458332px;stroke-linecap:butt;stroke-linejoin:miter;stroke-opacity:1"
       d="m 9.6467597,286.35932 c -0.1892188,0.0743 -0.2129058,0.32541 -0.2397078,0.57296 -0.017581,0.16238 -0.1993455,0.32438 -0.1328146,0.49722 0.034894,0.0906 0.2652366,0.23513 0.3491356,0.27452 0.09599,0.0451 0.1682958,-0.0858 0.2710918,-0.11529 0.1584153,-0.0455 0.3409683,-0.0274 0.4187973,-0.13027 0.155794,-0.20584 -0.05532,-0.16144 -0.173411,-0.20726 -0.1633573,-0.0634 -0.2428593,-0.1731 -0.3001563,-0.28969 -0.09871,-0.20082 0.1921453,-0.60883 0.05846,-0.74251 -0.133681,-0.13368 -0.06218,0.066 -0.2514,0.14032 z"
       id="path825"
       inkscape:connector-curvature="0"
       sodipodi:nodetypes="zssssssszz" />
    <path
       style="fill:#008033;stroke:none;stroke-width:0.28186664"
       d="m 22.670391,276.83867 c 0.314849,-0.80182 -0.691451,-0.60803 -0.653618,-1.04772 0.08179,-0.95058 -3.472498,0.67486 -3.709301,0.98228 -0.149672,0.19431 -1.370325,0.98726 -1.562662,0.8625 -0.884608,-0.57382 -2.312897,2.38413 -3.127079,1.67629 -0.149541,-0.13001 0.110107,-0.43038 -0.242854,-1.00592 -0.298157,-0.48617 -1.208706,-1.21606 -1.386246,-1.72274 -0.138507,-0.39529 0.301638,-0.56063 0.167895,-0.8982 -0.238648,-0.60234 -0.493954,-0.90046 -0.646195,-1.04412 -0.315717,-0.29792 -0.17517,0.0344 -0.546279,0.17028 -0.537947,0.19703 -1.5773707,0.27282 -1.8514508,-0.14928 -0.1422091,-0.21901 0.3425239,0.003 0.8032957,-0.35201 0.2385891,-0.18406 0.1870671,-0.53792 0.3956261,-0.81796 0.334588,-0.44926 0.870126,-0.83865 0.825002,-1.01045 -0.331565,-1.2624 0.0044,-0.72869 0.363863,-0.92306 0.450209,-0.24341 1.122325,-0.52327 1.728779,-1.0169 5.322015,0 9.910026,3.14265 12.009535,7.67344 -0.139582,0.21845 -0.220737,0.65513 -0.506076,0.63065 -0.368026,-0.0316 -0.965997,-0.56697 -1.31703,-0.56705 -0.724039,-1.6e-4 -1.193613,0.36884 -1.485236,0.0325 -0.158859,-0.18322 0.05458,-0.31911 0.137776,-0.51854 0.167663,-0.4019 0.450703,-0.84704 0.602255,-0.95396 z"
       id="circle827"
       inkscape:connector-curvature="0"
       sodipodi:nodetypes="cssssssssssssssccsssscc" />
    <path
       style="fill:#008033;stroke:none;stroke-width:0.26458332px;stroke-linecap:butt;stroke-linejoin:miter;stroke-opacity:1"
       d="m 17.950991,293.02884 c -0.04534,0.22665 -0.426352,0.56893 -0.345466,0.70121 0.08089,0.13228 0.427721,-0.0336 0.641165,0.0854 0.213443,0.11901 0.552034,-0.7026 0.449619,-0.93555 -0.102415,-0.23295 -0.180447,-0.43527 -0.329261,-0.39356 -0.11317,0.0317 -0.370713,0.31585 -0.416057,0.5425 z"
       id="path830"
       inkscape:connector-curvature="0"
       sodipodi:nodetypes="zzzzsz" />
    <path
       style="fill:#008033;stroke:none;stroke-width:0.99999994px;stroke-linecap:butt;stroke-linejoin:miter;stroke-opacity:1"
       d="m 99.557028,56.64087 c -0.9466,0.68558 -1.906143,0.52462 -3.322054,1.667923 -1.844535,1.489402 -4.202161,4.320892 -5.645101,5.222455 -1.799298,1.124218 -2.100099,0.09232 -3.134795,1.318361 -1.123607,1.331375 -0.07496,1.474282 0.306779,2.704878 0.404379,1.303576 0.167265,3.682651 -0.255998,4.644732 -0.254117,0.577616 -1.274019,0.941466 -1.440201,1.469609 -1.208008,3.839156 0.574541,6.63953 1.611782,9.200762 6.433462,-7.38718 10.581326,-16.519221 11.879588,-26.22872 z"
       transform="matrix(0.26458333,0,0,0.26458333,0,270.54165)"
       id="path832"
       inkscape:connector-curvature="0"
       sodipodi:nodetypes="csscscscc" />
    <path
       style="fill:#008033;stroke:none;stroke-width:0.26458332px;stroke-linecap:butt;stroke-linejoin:miter;stroke-opacity:1"
       d="m 23.338859,286.45613 c 0.4486,0.0428 0.396189,-0.18283 0.393741,-0.70286 -0.0023,-0.47867 0.312396,-0.93368 0.25945,-1.23191 -0.02971,-0.16732 -0.176132,-0.24206 -0.24375,-0.46179 -0.156245,-0.50773 -0.432483,-1.06305 -0.821111,-1.40177 -0.06862,-0.0598 -0.06064,-0.22501 -0.142301,-0.26137 -0.744225,-0.33135 -1.926957,0.91074 -2.745052,0.69453 -0.48691,-0.12868 -1.02725,-0.42998 -1.272104,-0.85437 -0.07662,-0.13281 0.244326,-0.29019 0.225911,-0.43656 -0.02161,-0.17178 -0.387098,-0.31957 -0.57438,-0.2635 -0.156012,0.0467 -0.285444,0.41971 -0.482893,0.63791 -0.147966,0.16352 -0.380266,0.16321 -0.437659,0.29504 -0.214032,0.49161 0.273668,1.08138 0.430286,1.62231 0.05313,0.1835 -0.252606,0.2993 -0.204265,0.48745 0.219315,0.85359 0.945877,1.58354 1.726084,2.24194 0.216007,0.18229 0.263379,0.94211 0.514606,0.99094 1.158644,0.22518 2.511923,-1.43819 3.373437,-1.35599 z"
       id="path837"
       inkscape:connector-curvature="0"
       sodipodi:nodetypes="sssssssssssssssss" />
    <path
       style="fill:#008033;stroke:none;stroke-width:2.14715219px;stroke-linecap:butt;stroke-linejoin:miter;stroke-opacity:1"
       d="m 16.013672,80.902344 c -0.825304,0.05076 -1.836843,0.260522 -2.154297,0.265625 -0.929719,0.01842 -0.978443,1.092362 -1.5957,1.633997 2.282392,2.626146 4.84252,5.013299 7.619227,7.10993 0.87383,-1.098183 -0.109342,-2.705137 -0.826261,-4.400177 -0.568058,-1.343018 -0.209669,-1.811209 -1.357422,-3.044922 -0.279946,-0.300851 -0.175236,-1.423613 -0.955078,-1.548828 -0.201202,-0.03222 -0.455368,-0.03254 -0.730469,-0.01563 z"
       transform="matrix(0.26458333,0,0,0.26458333,0,270.54165)"
       id="path839"
       inkscape:connector-curvature="0"
       sodipodi:nodetypes="cccccccc" />
  </g>
</svg>
