<?xml version="1.0" encoding="UTF-8" standalone="no"?>
<!-- Created with Inkscape (http://www.inkscape.org/) -->

<svg
   xmlns:dc="http://purl.org/dc/elements/1.1/"
   xmlns:cc="http://creativecommons.org/ns#"
   xmlns:rdf="http://www.w3.org/1999/02/22-rdf-syntax-ns#"
   xmlns:svg="http://www.w3.org/2000/svg"
   xmlns="http://www.w3.org/2000/svg"
   xmlns:sodipodi="http://sodipodi.sourceforge.net/DTD/sodipodi-0.dtd"
   xmlns:inkscape="http://www.inkscape.org/namespaces/inkscape"
   width="100"
   height="100"
   viewBox="0 0 26.458333 26.458333"
   version="1.1"
   id="svg8"
   inkscape:version="0.92.2 (5c3e80d, 2017-08-06)"
   sodipodi:docname="planet.svg">
  <defs
     id="defs2" />
  <sodipodi:namedview
     id="base"
     pagecolor="#ffffff"
     bordercolor="#666666"
     borderopacity="1.0"
     inkscape:pageopacity="0.0"
     inkscape:pageshadow="2"
     inkscape:zoom="4"
     inkscape:cx="55.216542"
     inkscape:cy="49.578541"
     inkscape:document-units="mm"
     inkscape:current-layer="layer1"
     showgrid="false"
     units="px"
     inkscape:snap-bbox="true"
     inkscape:bbox-paths="true"
     inkscape:snap-bbox-edge-midpoints="true"
     inkscape:snap-bbox-midpoints="true"
     inkscape:bbox-nodes="true"
     inkscape:object-paths="true"
     inkscape:snap-global="true"
     inkscape:window-width="1920"
     inkscape:window-height="1017"
     inkscape:window-x="-8"
     inkscape:window-y="-8"
     inkscape:window-maximized="1"
     showguides="false" />
  <metadata
     id="metadata5">
    <rdf:RDF>
      <cc:Work
         rdf:about="">
        <dc:format>image/svg+xml</dc:format>
        <dc:type
           rdf:resource="http://purl.org/dc/dcmitype/StillImage" />
        <dc:title></dc:title>
      </cc:Work>
    </rdf:RDF>
  </metadata>
  <g
     inkscape:label="Layer 1"
     inkscape:groupmode="layer"
     id="layer1"
     transform="translate(0,-270.54167)">
    <circle
       id="path12"
       cx="13.229167"
       cy="283.77084"
       style="stroke-width:0.05612374;fill:#000080"
       r="13.229167" />
    <path
       style="fill:#c87137;stroke-width:0.05612374"
       d="m 14.155209,289.72396 c 0.582605,0.66587 2.093267,0.2405 3.278034,0.77456 0.308137,0.1389 0.43233,0.80868 0.611842,0.92302 0.507754,0.32341 -0.651098,0.19803 -0.82368,0.50645 -1.460869,2.61075 -2.173193,2.30503 -2.031873,2.61137 0.243835,0.52858 0.783802,0.20959 0.678219,0.70624 -0.215604,1.01418 -0.960641,1.75441 -2.638584,1.75441 -3.092236,0 -5.9366772,-1.06093 -8.1891784,-2.83866 -0.3814401,-0.38144 -0.650087,-0.66467 -0.7352278,-0.99915 -0.052187,-0.20502 0.078222,-0.5615 0.1200833,-0.67912 0.065358,-0.18364 0.1761213,0.0247 0.3926318,-0.13279 0.2954814,-0.21498 0.5733696,-0.57226 0.9146277,-0.94443 0.5051709,-0.55092 0.1636997,-1.34643 0.3519788,-1.65568 0.2716833,-0.44624 0.4744308,-1.28502 0.7715423,-1.27902 1.6676179,0.0337 0.8659736,0.59766 1.8065826,0.34664 1.084949,-0.28953 0.5718913,-0.42923 1.3520717,-0.62492 2.733013,-0.68551 3.558325,0.8652 4.14093,1.53107 z"
       id="circle3734"
       inkscape:connector-curvature="0"
       sodipodi:nodetypes="csssssscsssssssszc" />
    <path
       style="fill:#c87137;stroke:none;stroke-width:0.26458332px;stroke-linecap:butt;stroke-linejoin:miter;stroke-opacity:1"
       d="m 16.803463,294.1797 c -0.05543,-0.0704 -0.343608,0.2067 -0.388607,0.36381 -0.045,0.15711 -0.140218,0.89044 0.02481,1.00045 0.165028,0.11001 0.797882,-0.22387 0.826823,-0.38034 0.02894,-0.15647 -0.337271,-0.37612 -0.380339,-0.51263 -0.04307,-0.13651 -0.02726,-0.40085 -0.08269,-0.47129 z"
       id="path3737"
       inkscape:connector-curvature="0"
       sodipodi:nodetypes="czzzzzc" />
    <path
       style="fill:#c87137;stroke-width:0.21212122"
       d="M 15.312825,13.988917 C 8.340411,20.719087 3.4816955,29.273949 1.3033918,38.632693 c -0.9758722,4.898731 1.9987776,9.825044 5.5305926,8.496213 2.528393,-1.084224 4.5078036,-1.387959 6.1139616,-1.258019 0.723037,0.05849 -0.0046,0.954873 0.583225,1.157496 0.63414,0.218602 2.5739,-0.247331 3.089411,0.06247 3.043357,1.82895 4.295673,5.077098 7.367699,5.288053 2.34514,0.161109 4.549786,-1.959351 7.392109,-3.296351 1.634684,-0.768938 3.932901,-0.206439 4.79133,-1.928651 0.924339,-1.854443 0.277966,-6.146495 -1.782723,-11.428659 -1.300619,-3.333878 -5.518902,-3.030789 -7.117165,-5.519743 -0.140748,-0.219185 -0.804398,-3.530009 0.482978,-5.03845 1.142744,-1.338972 4.178906,-0.807924 5.130872,-2.193914 1.089861,-1.586754 1.047041,-2.27423 0.92571,-3.265366 -0.07433,-0.607201 -1.636264,0.340158 -2.448356,0.103189 -1.586459,-0.46293 -2.112801,0.137747 -3.184655,0.382203 -1.752738,0.399745 -1.608264,-0.479324 -2.14684,-1.410988 -2.188909,-3.78652 -7.716248,-4.625634 -10.718716,-4.793259 z"
       transform="matrix(0.26458333,0,0,0.26458333,0,270.54167)"
       id="circle4544"
       inkscape:connector-curvature="0"
       sodipodi:nodetypes="cccssscssssssssssc" />
    <path
       style="fill:#c87137;stroke:none;stroke-width:0.99999994px;stroke-linecap:butt;stroke-linejoin:miter;stroke-opacity:1"
       d="m 67.964655,3.3387855 c -3.53797,5.8302826 9.959905,6.7850395 10.888861,9.5557455 0.940509,2.805166 -3.25675,5.389806 -7.601563,9.191407 -4.344812,3.801599 -16.442015,5.429081 -19.267578,12.021484 -2.825563,6.592403 4.362853,0.648153 4.066406,2.474609 -0.296428,1.826419 -3.269839,3.049327 -2.917969,7.689453 0.351875,4.640126 4.619426,9.706242 6.628907,8.927735 1.495109,-0.579251 1.526886,-9.311274 3.582031,-15.689453 0.352063,-1.0927 2.012779,-1.616833 2.4375,-2.470704 0.428179,-0.860862 -0.377547,-2.04982 0.345703,-2.699218 5.628344,-5.053418 18.410441,-0.507582 23.15625,-4.419922 1.473811,-1.214978 2.809108,-2.262994 3.802146,-3.290213 C 87.359805,14.913904 78.487039,7.395649 67.964655,3.3387855 Z"
       transform="matrix(0.26458333,0,0,0.26458333,0,270.54167)"
       id="path4547"
       inkscape:connector-curvature="0"
       sodipodi:nodetypes="csssccccccscc" />
    <path
       sodipodi:nodetypes="zssszzz"
       inkscape:connector-curvature="0"
       id="path4549"
       d="m 17.648098,281.08134 c -0.05434,0.1392 0.255292,0.30926 0.417338,0.33046 0.09666,0.0126 -0.279232,0.63281 -0.03328,0.59266 0.166345,-0.0272 0.984998,-0.69283 1.019035,-0.76532 0.0843,-0.17953 -0.554499,-0.38022 -0.498568,-0.7614 0.05593,-0.38118 -0.560129,-0.1767 -0.698714,-0.0523 -0.138585,0.1244 -0.151475,0.5167 -0.205811,0.6559 z"
       style="fill:#c87137;stroke:none;stroke-width:0.26458332px;stroke-linecap:butt;stroke-linejoin:miter;stroke-opacity:1" />
    <path
       style="fill:#c87137;stroke:none;stroke-width:0.99999994px;stroke-linecap:butt;stroke-linejoin:miter;stroke-opacity:1"
       d="m 92.884766,38.984375 c -1.705308,0.29461 -1.947272,11.835727 -2.888672,13.347656 -1.00416,1.612725 -3.215078,2.780995 -4.375,2.5625 -1.159922,-0.218456 -4.715642,2.657861 -4.375,4.3125 0.340649,1.65464 3.028131,5.12322 3.5625,7.4375 0.534364,2.314281 -3.471831,6.324373 -3.0625,8.9375 0.314192,2.005758 1.363489,3.636024 3.376953,4.556641 0.609709,0.278929 1.160075,2.25714 1.71875,1.767578 0.566018,-0.495987 1.528476,-0.964797 1.796875,-1.714844 1.194349,-3.337512 3.558866,-6.763398 5.107422,-7.984375 0.534455,-0.421398 1.000894,-0.552345 1.342564,-0.596514 1.677626,-3.475918 2.914976,-7.133428 3.751032,-10.901379 0.08936,-2.081095 0.06551,-4.074524 -0.04672,-5.439607 -0.138142,-1.680227 -2.078127,-4.769912 -2.25586,-7.654297 -0.206437,-3.349946 -2.081204,-7.710135 -3.291015,-8.533203 -0.127335,-0.08663 -0.247641,-0.117297 -0.361328,-0.09766 z"
       id="path4558"
       inkscape:connector-curvature="0"
       sodipodi:nodetypes="cscccscccscccccc"
       transform="matrix(0.26458333,0,0,0.26458333,0,270.54167)" />
    <path
       style="fill:#c87137;stroke:none;stroke-width:0.99999994px;stroke-linecap:butt;stroke-linejoin:miter;stroke-opacity:1"
       d="m 50,0 c -2.174896,0.01991234 -4.35837,0.12326507 -6.512195,0.42592568 0.243717,1.14441252 0.314055,0.61432552 0.750476,1.90415242 0.446657,1.32 -1.711983,2.2646232 0.53125,2.5644531 2.243233,0.2997166 4.312835,-1.6779979 5.435547,-3.0058593 C 51.309772,0.5822707 51.329377,1.4442268 52.160535,0.04672549 51.443292,-0.00456864 50.718788,0.02031212 50,0 Z"
       transform="matrix(0.26458333,0,0,0.26458333,0,270.54167)"
       id="path4563"
       inkscape:connector-curvature="0"
       sodipodi:nodetypes="ccccccc" />
  </g>
</svg>
