<svg xmlns="http://www.w3.org/2000/svg" width="100" height="100" viewBox="0 0 26.458 26.458"><g transform="translate(0 -270.542)"><path d="M15.431 272.547c.03-.221 1.192.315 2.022.307.83-.008.223.06.598.147s1.159-.085 1.669.228c.394.242-.165-.078-.43-.05-.11.011-.169.174-.215.22-.048.048.454.222.792.666.476.624.55.445.987.728.292.189 1.032.302.706.3-.54-.004-1.32-.27-1.812-.84-.492-.571-.859-.647-1.084-.735-.226-.088-.237.06-.674-.121-.437-.18-.458.064-.727-.02-.27-.084-1.862-.608-1.832-.83zM7.514 293.227c-.66-.186-1.31-.44-1.895-.655-.584-.215-.728-.864-1.188-1.245-.239-.197-.633-.825-1.05-1.234-.148-.144-.896-.5-.393-.3 1.047.416.973 1.134 1.368 1.24.395.104-.523-1.118-.777-1.458-.255-.34-.606-.393-.718-.904-.06-.276.045.078.276.361.197.243.505.385.683.582.387.426.962 1.308 1.501 1.839.54.53 1.18.984 1.549 1.278.368.295 1.304.682.644.496z" fill="#849999"/><ellipse cx="13.302" cy="283.771" rx="11.444" ry="11.444" fill="#849999"/><path d="M20.661 275.786c.338-.289.328-.205.837.17.27.197.66.74.87.912.31.255.717.504.93.8.204.28.4.49.629 1.006.136.306.11.838.222 1.338.273 1.22.866 2.652.988 3.12.173.66-.434.526-.188.373.247-.153-.19-1.385-.373-.886s1.202 2.419.358 4.349c-.395.904.32-.418.095-1.408-.208-.917-.66-2.073-.817-3.035-.105-.646-.09-1.214-.243-1.558-.72-1.612-2.365-2.581-2.842-3.507-.478-.927-.982-1.232-.466-1.674z" fill="#849999"/><path d="M21.402 276.891c.113-.153.776.743 1.409 1.09.632.346.144.14.393.364.25.225.913.429 1.173.88.2.35-.093-.129-.306-.22-.087-.038-.203.02-.257.036-.056.016.487.228.484.711-.002.192-.085.467.004.645.137.27.381.42.135.28-.408-.233-.249-.226-.39-.863-.14-.637-.454-.658-.589-.82-.135-.162-.203-.056-.461-.377-.258-.322-.373-.147-.544-.324-.17-.178-1.163-1.248-1.05-1.402zM18.912 274.575c.119-.229 1.322.666 1.639.806.316.14.744.664 1.001.905.258.24.459-.103.572.5l.03.17c.035.255-.133-.31-.405-.421-.312-.127-.527-.18-.701-.424-.175-.244-.513-.122-.76-.294-.248-.171-1.494-1.012-1.376-1.242z" fill="#b9cccc"/><path d="M2.113 282.503c-.229.01.148-1.287.022-2.14-.126-.855.028-.242.063-.644.035-.403-.25-1.179-.007-1.763.189-.451-.056.185.01.453.028.11.201.141.255.18.055.04.16-.509.56-.94.564-.607.372-.65.596-1.153.15-.336.159-1.12.203-.783.073.557-.085 1.411-.592 2.024s-.531 1.005-.589 1.254c-.057.249.094.232-.026.717-.12.484.13.46.083.753-.046.294-.35 2.032-.578 2.042zM23.693 288.218c.208.068-.513 1.07-.65 1.854-.14.784-.097.2-.247.538s-.122 1.108-.513 1.534c-.302.33.105-.141.124-.396.008-.106-.139-.19-.175-.243-.038-.053-.293.39-.78.63-.685.338-.525.44-.874.802-.233.242-.472.92-.413.613.099-.51.492-1.199 1.128-1.561.635-.363.772-.696.897-.893.125-.197-.016-.233.235-.614.25-.38.019-.443.147-.683.128-.24.912-1.648 1.12-1.58zM17.745 293.912c.137.423.064.381-.478.707-.286.172-.939.324-1.178.451-.354.188-.635.082-.99.166-.338.08-.736.343-1.3.355-.335.008-.792 0-1.296-.088-1.232-.218-2.782-.223-3.261-.29-.675-.094-.318-.603-.272-.317.046.287 1.352.358.962-.003-.39-.36-2.695.179-4.151-1.344-.682-.713.262.456 1.262.63.927.161 2.168.189 3.116.415.636.151 1.155.384 1.531.375 1.765-.044 3.293-1.188 4.332-1.272 1.038-.084 1.514-.431 1.723.215z" fill="#849999"/><ellipse ry="11.084" rx="11.084" cy="283.771" cx="13.302" fill="#b9cccc"/><path d="M23.583 283.906c.257-.025.156 1.472.21 1.813.054.342-.156.985-.219 1.332-.063.347.335.33-.11.751-.058.055-.1.093-.129.118-.194.167.19-.28.136-.568-.062-.331-.133-.541-.023-.82.11-.279-.175-.497-.165-.798.01-.3.043-1.804.3-1.828zM20.45 291.324c.137.106-.716.663-1.063 1.214-.347.55-.135.124-.352.337-.218.213-.436.797-.862 1.012-.33.165.123-.078.216-.264.039-.077-.01-.182-.021-.23-.012-.051-.231.425-.675.404-.175-.008-.424-.093-.591-.02-.254.112-.403.324-.263.11.232-.355.218-.213.81-.315.59-.102.624-.38.779-.495.155-.114.06-.179.367-.397.307-.218.151-.327.322-.472.17-.145 1.198-.99 1.334-.884z" fill="#e7ffff"/><path d="M8.7 292.545c-.214.39-.234.308-.843.138-.322-.09-.88-.46-1.137-.546-.38-.128-.849-.217-1.153-.417-.29-.191-.548-.319-.944-.72-.235-.238-.4-.745-.68-1.172-.689-1.045-1.75-2.175-2.03-2.569-.395-.556.22-.645.044-.415-.177.23.668 1.228.663.697-.006-.532-1.981-1.837-1.875-3.94.05-.986-.151.503.41 1.35.52.784 1.351 1.704 1.839 2.549.326.566.513 1.103.779 1.37 1.244 1.253 3.125 1.578 3.9 2.275.774.697 1.353.804 1.027 1.4z" fill="#b9cccc"/><path d="M13.478 272.544c.038-.298-.011-.13.496-.296.215-.07.668.071.85.062.272-.013.59-.074.83-.023.23.048.424.065.773.218.207.092.436.37.72.57.692.487 1.64.934 1.914 1.113.387.252.022.461.075.272.054-.188-.725-.607-.59-.274.136.333 1.703.665 2.158 2.015.213.633-.03-.354-.593-.748-.522-.365-1.274-.738-1.79-1.148-.346-.276-.597-.567-.83-.67-1.094-.48-2.365-.422-3.06-.686-.695-.264-1.963-.38-.953-.404 1.01-.024 0 0 0 0z" fill="#849999"/><ellipse cx="13.302" cy="283.771" rx="10.506" ry="10.506" fill="#e7ffff"/><ellipse ry="9.7" rx="9.7" cy="283.771" cx="13.302"/><path d="M13.779 273.618c-.021-.171.976.038 1.61-.105.636-.144.184.007.488.01.305.004.872-.255 1.325-.105.35.116-.142-.031-.34.034-.081.027-.121.136-.148.178-.027.044.465-.137.763.191.119.13.235.366.405.432.258.101.513.057.263.109-.415.086-.305-.004-.795-.35-.49-.347-.71-.173-.9-.202-.19-.029-.17.084-.541.021s-.338.124-.562.106c-.223-.018-1.547-.148-1.568-.319z" fill="#e7ffff"/><path d="M2.452 283.047c-.169-.034.346-.913.412-1.56.065-.648.065-.172.165-.46.1-.288.034-.907.32-1.29.221-.295-.075.125-.076.333 0 .086.09.159.122.197.033.04.017-.484.423-.663.161-.07.421-.106.539-.246.177-.213.216-.469.186-.215-.05.421-.1.288-.584.643-.484.354-.39.618-.477.79-.088.171.025.187-.152.519s.01.36-.078.566c-.088.206-.63 1.42-.8 1.386z" fill="#b9cccc"/><path d="M2.073 284.549c-.255-.033.021-.628.044-.973.01-.157.137-.446.23-.738.035-.112.021-.28.06-.359.08-.165.166-.034.217-.154.139-.324-.253-.395.274-.708a4.13 4.13 0 0 1 .151-.086c.227-.12-.247.23-.258.524-.012.336.01.557-.158.804-.17.248-.021.676-.098.967-.034.13-.154.312-.195.742-.051.53-.085 1.177-.091 1.139z" fill="#849999"/><path d="M5.813 275.767c.384-.736.658-1.138 1.273-2.067.615-.929 1.354-.553 1.976-.967.323-.215 1.281-.451 1.934-.803.231-.124.872-.902.497-.363-.78 1.12-1.78.747-2.001 1.19-.222.444 1.673-.201 2.2-.38.525-.179.666-.588 1.408-.524.4.034-.12.024-.562.196-.378.147-.636.468-.946.61-.673.306-2.023.664-2.871 1.117-.849.452-1.606 1.06-2.09 1.396-.483.336-1.203 1.331-.818.595z" fill="#b9cccc"/><path d="M11.607 294c-.684.045-1.383.025-2.005.017-.623-.007-.976-.57-1.537-.775-.29-.107-.872-.567-1.402-.812-.188-.086-1.012-.171-.47-.151 1.125.041 1.296.742 1.703.71.408-.034-.867-.879-1.22-1.113-.354-.235-.702-.168-.98-.612-.148-.24.07.059.382.248.267.163.604.194.838.32.508.271 1.345.91 2.03 1.23.686.32 1.442.532 1.887.686.446.155 1.457.207.774.252z" fill="#e7ffff"/><path d="M2.966 280.861c-.016-.685.259-1.242.4-1.962.098-.5.22-.626.348-.937.056-.137.223-.39.238-.573.027-.352.529-.88.796-1.399.095-.183.216-1.004.172-.464-.09 1.123-.798 1.264-.783 1.672.016.409.915-.828 1.165-1.171.25-.343.198-.694.654-.951.245-.14-.062.066-.265.37-.174.26-.22.595-.355.823-.294.496-.968 1.304-1.317 1.975-.35.671-.595 1.417-.768 1.855-.174.439-.27 1.447-.285.762zM19.056 274.886c.613.307 1.205.678 1.739.999.533.32.553.986.933 1.446.197.24.466.93.8 1.41.117.169.785.66.329.368-.95-.605-.743-1.296-1.112-1.474-.368-.178.304 1.196.49 1.577.187.382.521.5.536 1.023.007.282-.03-.085-.203-.407-.149-.275-.424-.472-.562-.7-.3-.49-.7-1.465-1.13-2.087-.429-.623-.974-1.188-1.28-1.547-.306-.358-1.153-.915-.54-.608z" fill="#b9cccc"/><path d="M5.511 276.84c-.201-.16.913-1.165 1.112-1.447.199-.283.797-.6 1.084-.804.287-.206-.011-.47.602-.462.08 0 .136.002.174.005.256.015-.331.068-.493.313-.186.28-.28.481-.554.604-.273.124-.22.48-.437.688-.217.209-1.287 1.265-1.488 1.104z" fill="#e7ffff"/><path d="M14.695 294.573c.05.106.315.203-.607.29-.209.02-.334.084-.546.112a6.719 6.719 0 0 1-1.092.044c-.068-.007-1.018-.277-.852-.43.216-.197 1.56-.294 1.398-.352-.111-.04-.28-.032-.357-.074-.162-.087-.028-.168-.146-.223-.319-.15-.404.239-.697-.3a4.134 4.134 0 0 1-.08-.154c-.113-.231.221.255.513.277.336.025.557.01.798.188s.675.046.963.133c.129.04.307.165.734.223.528.07 1.174.129 1.135.133z" fill="#b9cccc"/><path d="M5.456 290.252c-.112.131-.63-.747-1.163-1.119-.534-.372-.117-.14-.32-.367-.203-.228-.777-.472-.971-.908-.15-.337.072.126.253.228.075.042.183-.002.232-.01.05-.01-.414-.251-.373-.693.016-.175.112-.42.047-.59-.1-.259-.305-.417-.097-.267.343.248.203.227.277.823.074.595.35.64.458.8.106.161.176.07.38.386.203.317.319.167.456.344.137.177.934 1.242.821 1.373zM7.845 275.472c-.162-.21-.113-.202.126-.494.126-.154.463-.37.571-.49.162-.178.393-.237.576-.356.174-.112.364-.258.678-.379.187-.071.55-.086.851-.138.737-.125 1.434-.528 1.717-.587.398-.083.3.275.216.123-.083-.151-.832.071-.54.196.292.124 1.48-.643 2.605-.08.527.263-.24-.204-.837-.1-.553.096-1.257.33-1.835.394-.388.043-.727.016-.937.098-.983.38-1.261.793-1.828 1.05-.567.256-1.115 1.085-1.363.763z" fill="#e7ffff"/></g></svg>