<svg xmlns="http://www.w3.org/2000/svg" width="300" height="300" viewBox="0 0 79.375 79.375"><g fill="#d40000"><path d="M56.982 39.689c0 1.036-9.803 1.876-17.115 1.876h-.18v1.052l.18.001c11.415 0 20.312-1.312 20.313-2.93zM22.393 39.69c0 1.036 9.803 1.876 17.116 1.876l.178-.001v1.053h-.178c-11.416 0-20.313-1.311-20.314-2.929z"/></g><g fill="#00f"><path d="M19.408 39.688c0 1.268 11.334 2.93 20.28 2.93v1.287c-13.964 0-25.284-2.237-25.285-4.216z"/><path d="M59.967 39.688c0 1.267-11.334 2.929-20.28 2.93v1.287c13.964 0 25.284-2.238 25.285-4.216v-.001z"/></g><g fill="#00d400"><path d="M14.226 39.688l-1.933.001c0 1.898 10.964 5.376 27.394 5.376v.937h.065-.064c-17.2 0-31.143-3.35-31.145-6.313z"/><path d="M65.149 39.688h1.933c0 1.898-10.964 5.376-27.394 5.376v.937h-.065.064c17.2 0 31.143-3.35 31.145-6.313z"/></g><path d="M65.148 39.688h1.934c0 1.898-10.964 5.376-27.394 5.376v.937-.936c-16.431 0-27.395-3.478-27.395-5.376h1.933-2.861c.003 2.963 16.16 5.753 28.323 5.753 12.162 0 28.302-2.646 28.303-5.754z" fill="#c0f"/></svg>