<svg xmlns="http://www.w3.org/2000/svg" width="100" height="100" viewBox="0 0 26.458333 26.458334"><g transform="translate(0 -270.542)"><ellipse cx="13.229" cy="283.771" rx="13.229" ry="13.229" fill="#0cf"/><path d="M4.86 286.31c-.242-.002-.495.032-.756.107-.561.16-2 .629-2.585 1.256-.43.46-.047 1.038-.356 1.522a13.232 13.232 0 0 0 2.573 3.79l.007.006c.306.315.627.614.962.896l.004.003c.784.654 1.637 1.23 2.55 1.686.084-.249-.158-.825-.029-1.202.169-.49.713-.83.79-1.426.028-.224.653-.424.722-.64.188-.58-.306-.042-.355-.666-.015-.189-.648-.205-.684-.408-.132-.736.306-1.695.255-1.973-.084-.47.202-1.238-.19-1.67-.47-.519-1.671-.677-2.356-.912-.254-.087-.267-.37-.552-.37zM13.23 270.542a13.23 13.23 0 0 0-8.223 2.865l-.002.002c-.343.273-.673.562-.987.867l-.013.012c-.31.303-.606.62-.886.952l-.015.017A13.23 13.23 0 0 0 0 283.771c.512-.667 1.025-1.11 1.529-1.432.246-.156.226 0 .49-.004.215-.003.545-.625.748-.708 1.53-.621 2.92-.71 3.646-3.736.114-.474.623-.454.725-.97.146-.748-.385-.923.065-1.513.196-.257.738.259 1.004.029.444-.384.978-1.742 1.48-2.105.928-.67 2.559-.76 3.422-1.114 1.263-.519 1.635-1.194 1.919-1.553a13.257 13.257 0 0 0-1.799-.123zM21.41 273.374c-.365.521-.728-.218-1.112 1.993-.213 1.23-1.448 2.118-2.029 3.117-.255.438.146 1.263-.42 1.412-.894.235-1.664.086-2.507.146-.806.059-1.69.33-2.27.343-1.37.027-2.028-.361-2.395.055-.315.359.308.958.442 1.847.022.147-.627.632-.812 1.014-.15.309.154.521.193.66.052.186.352.092.87-.016.185-.039.534.38 1.022.223.63-.203 1.428-.995 1.717-1.06.951-.214.579.141.688.505.405 1.356 1.692 2.868 1.27 3.947-.355.913 1.033 1.373 1.303 1.424.385.073-.153-.584.314-1.121.518-.596.703-1.441 1.337-2.071.253-.252.785.105 1.056-.113.342-.275.237-1.226.533-1.49.767-.688 1.766-.549 1.907-.228.104.237.446-.035.515.17.129.386-.06 1.209-.037 1.5.149 1.896-1.676 2.023-1.7 3.799-.003.215.295.517.312.715.025.293-.316.64-.207.868.183.385.385.882.702 1.12.212.158.779-.428 1.197-.505.378-.07.235.11.615-.056a13.236 13.236 0 0 0 2.544-7.801 13.243 13.243 0 0 0-5.049-10.397z" fill="#c87137"/><path d="M10.178 275.164c.05.277.122-.061.487.118.134.065.283.388.532.546.233.149.565.129.75.299.155.142-.036.32.16.419.234.117.635.34 1.106.367.327.02.722-.154.97-.114.423.067.401.326.671.26.656-.165.8-.182.984-.787.05-.164-.514-.232-.542-.489-.027-.25.158-.07.152-.36-.005-.296-.582-.803-.73-1.166-.107-.261.248-.42.075-.5-.723-.33-1.504 1.016-2.101 1.34-.135.073-.08-.24-.205-.276a2.6 2.6 0 0 1-1-.522c-.263-.205-.073-.23-.36-.422-.287-.19-.454-.084-.586.056-.183.192-.118.582-.197.807-.033.108-.216.148-.165.424zM14.943 294.211a.376.376 0 0 0-.158.06c-.504.307-.604.202-.882.77-.279.566.14.518-.117.913-.12.184-.028.587-.322.672-.295.086-.876-.035-1.026.35.265.022.526.019.791.024a13.24 13.24 0 0 0 6.464-1.687c-.616.011-.946-.247-1.19-.17-.285.09-.613.285-.774.165-.174-.13-.435-.173-.44-.32-.004-.136.24-.374.333-.569.192-.402-1.94.107-2.237.303-.261.17-.139-.537-.442-.511zM9.085 290.978c-.047-.037.037-.105.03-.175-.006-.068-.076-.197-.068-.275.017-.18.144-.313.249-.392.197-.147.39.12.608.024.142-.063.338-.25.44-.415.056-.09-.014-.214.086-.217.203-.006.36.172.47.388.044.088.193.184.138.267-.105.16-.225.089-.304.184-.195.235-.383.543-.584.564-.166.018-.093-.05-.16-.129-.049-.055-.237-.128-.32-.128-.049 0-.065.086-.112.125a.759.759 0 0 1-.473.18z" fill="#c87137"/></g></svg>