<?xml version="1.0" encoding="UTF-8" standalone="no"?>
<!-- Created with Inkscape (http://www.inkscape.org/) -->

<svg
   xmlns:dc="http://purl.org/dc/elements/1.1/"
   xmlns:cc="http://creativecommons.org/ns#"
   xmlns:rdf="http://www.w3.org/1999/02/22-rdf-syntax-ns#"
   xmlns:svg="http://www.w3.org/2000/svg"
   xmlns="http://www.w3.org/2000/svg"
   xmlns:sodipodi="http://sodipodi.sourceforge.net/DTD/sodipodi-0.dtd"
   xmlns:inkscape="http://www.inkscape.org/namespaces/inkscape"
   width="100"
   height="100"
   viewBox="0 0 26.458333 26.458334"
   version="1.1"
   id="svg8"
   inkscape:version="0.92.2 (5c3e80d, 2017-08-06)"
   sodipodi:docname="blackholePurple.svg"
   inkscape:export-filename="C:\Users\hoove_000\Desktop\Art\Planets\planet-1-ink.png"
   inkscape:export-xdpi="96"
   inkscape:export-ydpi="96">
  <defs
     id="defs2" />
  <sodipodi:namedview
     id="base"
     pagecolor="#ffffff"
     bordercolor="#666666"
     borderopacity="1.0"
     inkscape:pageopacity="0.0"
     inkscape:pageshadow="2"
     inkscape:zoom="5.6568542"
     inkscape:cx="-11.076812"
     inkscape:cy="50.670492"
     inkscape:document-units="mm"
     inkscape:current-layer="layer1"
     showgrid="false"
     showborder="true"
     inkscape:window-width="1920"
     inkscape:window-height="1001"
     inkscape:window-x="-9"
     inkscape:window-y="-9"
     inkscape:window-maximized="1"
     units="px"
     inkscape:snap-global="false"
     inkscape:snap-bbox="true"
     inkscape:bbox-nodes="true"
     inkscape:bbox-paths="true"
     inkscape:snap-bbox-edge-midpoints="true"
     inkscape:snap-bbox-midpoints="true"
     inkscape:object-paths="true"
     inkscape:object-nodes="true"
     inkscape:snap-intersection-paths="true"
     inkscape:snap-smooth-nodes="true"
     inkscape:snap-midpoints="true" />
  <metadata
     id="metadata5">
    <rdf:RDF>
      <cc:Work
         rdf:about="">
        <dc:format>image/svg+xml</dc:format>
        <dc:type
           rdf:resource="http://purl.org/dc/dcmitype/StillImage" />
        <dc:title />
      </cc:Work>
    </rdf:RDF>
  </metadata>
  <g
     inkscape:label="Layer 1"
     inkscape:groupmode="layer"
     id="layer1"
     transform="translate(0,-270.54165)">
    <path
       sodipodi:nodetypes="czzsssssszzzzzc"
       inkscape:connector-curvature="0"
       id="path4574"
       d="m 15.431117,272.54745 c 0.03039,-0.22147 1.191812,0.31457 2.021925,0.3068 0.830109,-0.008 0.222977,0.0595 0.598016,0.14663 0.375017,0.0871 1.158582,-0.0844 1.668909,0.22859 0.394449,0.24187 -0.164978,-0.0789 -0.429879,-0.0507 -0.109553,0.0115 -0.168809,0.17462 -0.2151,0.22084 -0.04781,0.0478 0.453774,0.22172 0.792012,0.66552 0.475863,0.62436 0.550305,0.44442 0.987272,0.72759 0.291561,0.18896 1.031972,0.30233 0.705911,0.29995 -0.540082,-0.004 -1.321092,-0.27019 -1.81259,-0.84045 -0.491481,-0.57026 -0.858301,-0.64573 -1.083717,-0.73419 -0.225438,-0.0885 -0.236446,0.0596 -0.673745,-0.12104 -0.437269,-0.18057 -0.457665,0.0638 -0.727471,-0.0199 -0.269862,-0.0838 -1.861258,-0.6081 -1.831544,-0.82964 z"
       style="fill:#a881b3;fill-opacity:1;stroke:none;stroke-width:0.30750868px;stroke-linecap:butt;stroke-linejoin:miter;stroke-opacity:1" />
    <path
       style="fill:#a881b3;stroke:none;stroke-width:0.19701198px;stroke-linecap:butt;stroke-linejoin:miter;stroke-opacity:1;fill-opacity:1"
       d="M 7.5140554,293.22699 C 6.8544867,293.04056 6.2031165,292.78754 5.619004,292.5723 5.034791,292.35735 4.8906426,291.70758 4.4307935,291.32704 4.1921357,291.1295 3.7984786,290.50155 3.3806936,290.09323 c -0.1475776,-0.14422 -0.896093,-0.50057 -0.3926379,-0.30048 1.0467077,0.41606 0.9733292,1.13397 1.3682728,1.2393 0.3949634,0.10527 -0.5230102,-1.11752 -0.777729,-1.45713 -0.2547153,-0.33962 -0.6054641,-0.39308 -0.7176437,-0.90433 -0.060445,-0.27542 0.045023,0.0784 0.2758446,0.36177 0.1976883,0.24259 0.5047941,0.38469 0.683379,0.5813 0.3871434,0.42623 0.9620276,1.30803 1.501016,1.83885 0.538989,0.53081 1.1801276,0.98407 1.5484212,1.27861 0.3682989,0.29454 1.3040067,0.68229 0.6444212,0.49591 z"
       id="path4570"
       inkscape:connector-curvature="0"
       sodipodi:nodetypes="czssszzssszzzc" />
    <ellipse
       id="ellipse4536"
       cx="13.302329"
       cy="283.77084"
       style="fill:#a881b3;stroke-width:0.04671089;fill-opacity:1"
       rx="11.444169"
       ry="11.444162" />
    <path
       style="fill:#a881b3;stroke:none;stroke-width:0.23978378px;stroke-linecap:butt;stroke-linejoin:miter;stroke-opacity:1;fill-opacity:1"
       d="m 20.661478,275.78634 c 0.33766,-0.28917 0.327681,-0.20555 0.836671,0.16877 0.269149,0.19793 0.660486,0.7415 0.869921,0.91325 0.310034,0.25425 0.716984,0.50355 0.930611,0.79869 0.20359,0.28127 0.399541,0.49183 0.628279,1.00656 0.136146,0.30637 0.109678,0.83836 0.22164,1.33802 0.273543,1.2207 0.866221,2.65286 0.988804,3.12082 0.172757,0.65949 -0.43446,0.52564 -0.187927,0.37278 0.246532,-0.15284 -0.190228,-1.38514 -0.373469,-0.88625 -0.18324,0.4989 1.202435,2.41859 0.358231,4.34884 -0.395273,0.90379 0.319915,-0.41779 0.09502,-1.40783 -0.208416,-0.91748 -0.660685,-2.07313 -0.81739,-3.0353 -0.105108,-0.64536 -0.08959,-1.21349 -0.243365,-1.55759 -0.720266,-1.61177 -2.364489,-2.58159 -2.841918,-3.50759 -0.477429,-0.92602 -0.981309,-1.23112 -0.465102,-1.67318 z"
       id="path4532"
       inkscape:connector-curvature="0"
       sodipodi:nodetypes="csssssszzsssszzc" />
    <path
       sodipodi:nodetypes="czzsssssszzzzzc"
       inkscape:connector-curvature="0"
       id="path4578"
       d="m 21.402362,276.89125 c 0.11276,-0.15373 0.775583,0.74255 1.408205,1.08939 0.632619,0.3468 0.144824,0.13945 0.393724,0.36416 0.2489,0.22471 0.912869,0.42886 1.172386,0.88065 0.200581,0.34918 -0.09295,-0.12935 -0.305326,-0.22065 -0.08782,-0.0378 -0.203752,0.021 -0.257608,0.0366 -0.05595,0.0152 0.487301,0.2274 0.483809,0.71079 -0.0011,0.19152 -0.08488,0.46653 0.0049,0.64444 0.136065,0.26977 0.380609,0.41978 0.134308,0.27946 -0.407916,-0.23238 -0.248704,-0.22543 -0.38912,-0.86247 -0.140409,-0.63704 -0.454389,-0.65766 -0.589297,-0.81985 -0.134908,-0.16219 -0.203515,-0.0557 -0.461567,-0.37714 -0.258022,-0.32135 -0.373006,-0.14648 -0.543507,-0.32404 -0.1705,-0.17755 -1.163634,-1.24737 -1.050873,-1.4011 z"
       style="fill:#c8b5cd;fill-opacity:1;stroke:none;stroke-width:0.26496729px;stroke-linecap:butt;stroke-linejoin:miter;stroke-opacity:1" />
    <path
       sodipodi:nodetypes="czzssszzzc"
       inkscape:connector-curvature="0"
       id="path4580"
       d="m 18.912282,274.57542 c 0.118467,-0.22908 1.322055,0.66565 1.638273,0.80523 0.316209,0.13956 0.744118,0.66404 1.001643,0.90504 0.257522,0.24101 0.458533,-0.10313 0.571373,0.49983 0.01465,0.0779 0.02434,0.13362 0.02963,0.17128 0.03558,0.25394 -0.132604,-0.31135 -0.404152,-0.42176 -0.311833,-0.12674 -0.526846,-0.18082 -0.701494,-0.42447 -0.17465,-0.24365 -0.512882,-0.122 -0.76023,-0.29339 -0.247351,-0.17142 -1.493493,-1.01268 -1.375036,-1.24176 z"
       style="fill:#cccccc;fill-opacity:1;stroke:none;stroke-width:0.23978378px;stroke-linecap:butt;stroke-linejoin:miter;stroke-opacity:1"
       inkscape:transform-center-x="0.046772169" />
    <path
       sodipodi:nodetypes="czzsssssszzzzzc"
       inkscape:connector-curvature="0"
       id="path4554"
       d="m 2.1127452,282.50328 c -0.2284957,0.01 0.1484415,-1.28686 0.022199,-2.14091 -0.1262408,-0.85404 0.028446,-0.24088 0.063148,-0.64361 0.034653,-0.40271 -0.2505798,-1.17829 -0.00664,-1.76252 0.1885527,-0.45158 -0.056379,0.18472 0.010032,0.45245 0.02746,0.11071 0.2008161,0.14144 0.2541894,0.18052 0.055225,0.0405 0.1597161,-0.50895 0.5606762,-0.94023 0.5640874,-0.60674 0.3713349,-0.64993 0.5956529,-1.15302 0.1496693,-0.33567 0.1588358,-1.11985 0.2029268,-0.78337 0.073037,0.55731 -0.0851,1.41182 -0.5921931,2.0246 -0.5070935,0.61276 -0.5311996,1.00485 -0.588576,1.25364 -0.057375,0.2488 0.093967,0.23258 -0.026445,0.71689 -0.120416,0.48428 0.1298593,0.45973 0.08353,0.75345 -0.046306,0.29372 -0.3500835,2.03145 -0.5785332,2.04211 z"
       style="fill:#a881b3;fill-opacity:1;stroke:none;stroke-width:0.31803671px;stroke-linecap:butt;stroke-linejoin:miter;stroke-opacity:1" />
    <path
       style="fill:#a881b3;fill-opacity:1;stroke:none;stroke-width:0.29814523px;stroke-linecap:butt;stroke-linejoin:miter;stroke-opacity:1"
       d="m 23.692579,288.21833 c 0.207995,0.068 -0.5122,1.06875 -0.65043,1.85343 -0.138233,0.78468 -0.09647,0.19984 -0.246217,0.53826 -0.149693,0.33841 -0.122136,1.10822 -0.513143,1.53421 -0.302201,0.32926 0.105005,-0.14166 0.124248,-0.39664 0.0079,-0.10545 -0.138562,-0.19029 -0.174951,-0.24218 -0.03767,-0.0536 -0.293218,0.38882 -0.780058,0.62919 -0.684909,0.33818 -0.524649,0.44037 -0.874116,0.80242 -0.233172,0.24157 -0.472341,0.9201 -0.412815,0.61285 0.09858,-0.50893 0.492155,-1.19862 1.127693,-1.56116 0.635534,-0.36252 0.772638,-0.69525 0.897398,-0.89225 0.124769,-0.19702 -0.0158,-0.23369 0.234854,-0.61426 0.250684,-0.38055 0.01887,-0.44317 0.146931,-0.68291 0.12806,-0.23977 0.912439,-1.64833 1.120594,-1.58096 z"
       id="path4564"
       inkscape:connector-curvature="0"
       sodipodi:nodetypes="czzsssssszzzzzc" />
    <path
       style="fill:#a881b3;fill-opacity:1;stroke:none;stroke-width:0.23978378px;stroke-linecap:butt;stroke-linejoin:miter;stroke-opacity:1"
       d="m 17.745047,293.91189 c 0.136822,0.42299 0.0635,0.38156 -0.477973,0.70715 -0.286412,0.17199 -0.938677,0.32396 -1.177832,0.45111 -0.35403,0.18823 -0.635536,0.082 -0.990245,0.16535 -0.337978,0.0796 -0.73639,0.343 -1.29951,0.35584 -0.335152,0.008 -0.792565,5.5e-4 -1.296779,-0.0886 -1.231887,-0.21771 -2.7818363,-0.22226 -3.2609103,-0.28937 -0.675162,-0.0945 -0.3177751,-0.60337 -0.2716523,-0.31698 0.046097,0.28638 1.3515516,0.35787 0.9617175,-0.003 -0.3898151,-0.36125 -2.6951223,0.1782 -4.1513507,-1.34421 -0.68185,-0.71285 0.2623504,0.45614 1.2626369,0.62988 0.9269269,0.16128 2.1676726,0.18868 3.1159659,0.4146 0.636058,0.15154 1.154403,0.38468 1.531174,0.37525 1.764845,-0.0439 3.293064,-1.18792 4.331527,-1.27185 1.038485,-0.0837 1.514061,-0.43153 1.723244,0.21509 z"
       id="path4568"
       inkscape:connector-curvature="0"
       sodipodi:nodetypes="csssssszzsssszzc" />
    <ellipse
       ry="11.084487"
       rx="11.084493"
       style="fill:#c8b5cd;stroke-width:0.04524283;fill-opacity:1"
       cy="283.77084"
       cx="13.302329"
       id="ellipse4534" />
    <path
       style="fill:#e5d2ea;stroke:none;stroke-width:0.23978378px;stroke-linecap:butt;stroke-linejoin:miter;stroke-opacity:1;fill-opacity:1"
       d="m 23.583059,283.9057 c 0.256733,-0.0244 0.155995,1.47193 0.209811,1.81337 0.05381,0.34143 -0.155519,0.98513 -0.218746,1.33212 -0.06323,0.34699 0.334932,0.32971 -0.110957,0.75099 -0.0576,0.0545 -0.09916,0.0928 -0.127975,0.11763 -0.19425,0.16738 0.190004,-0.28004 0.135845,-0.56813 -0.0622,-0.33082 -0.133166,-0.54086 -0.02285,-0.8196 0.110314,-0.27874 -0.175078,-0.49727 -0.164851,-0.79803 0.01023,-0.30077 0.04299,-1.80394 0.29973,-1.82835 z"
       id="path4538"
       inkscape:connector-curvature="0"
       sodipodi:nodetypes="czzssszzzc" />
    <path
       style="fill:#e5d2ea;stroke:none;stroke-width:0.23978378px;stroke-linecap:butt;stroke-linejoin:miter;stroke-opacity:1;fill-opacity:1"
       d="m 20.450883,291.32401 c 0.135931,0.10609 -0.716864,0.66331 -1.06404,1.2139 -0.347175,0.55059 -0.1346,0.12383 -0.352183,0.3372 -0.217582,0.21337 -0.435262,0.79714 -0.861722,1.01159 -0.329613,0.16575 0.122951,-0.078 0.216438,-0.26377 0.03864,-0.0768 -0.01027,-0.18221 -0.02161,-0.23079 -0.01175,-0.0503 -0.230948,0.42558 -0.674392,0.40464 -0.175707,-0.008 -0.424265,-0.0928 -0.591625,-0.0194 -0.253784,0.11123 -0.402616,0.32347 -0.262605,0.10931 0.231895,-0.3547 0.218248,-0.21317 0.809271,-0.31472 0.591023,-0.10155 0.624292,-0.3804 0.779296,-0.49456 0.155006,-0.11416 0.06046,-0.1792 0.36717,-0.39714 0.306709,-0.21793 0.151486,-0.32678 0.32221,-0.47207 0.170724,-0.14529 1.197866,-0.99027 1.333797,-0.88418 z"
       id="path4540"
       inkscape:connector-curvature="0"
       sodipodi:nodetypes="czzsssssszzzzzc" />
    <path
       sodipodi:nodetypes="csssssszzsssszzc"
       inkscape:connector-curvature="0"
       id="path4544"
       d="m 8.6994258,292.54502 c -0.2134314,0.38997 -0.2336978,0.30823 -0.8422387,0.13833 -0.3217885,-0.0898 -0.8802075,-0.45968 -1.1368795,-0.54616 -0.3799636,-0.12804 -0.8488143,-0.21713 -1.1530826,-0.41754 -0.2899769,-0.19099 -0.5477735,-0.31855 -0.9439165,-0.71897 -0.2357457,-0.23837 -0.3993763,-0.74525 -0.6809101,-1.17294 -0.6879197,-1.04485 -1.7492296,-2.17445 -2.0295268,-2.56871 -0.3950621,-0.55561 0.2202521,-0.6454 0.043793,-0.41517 -0.1764662,0.23022 0.6682424,1.2281 0.663017,0.69665 -0.00524,-0.53145 -1.98074997,-1.83632 -1.87450568,-3.94042 0.049734,-0.98518 -0.15130899,0.50398 0.40949498,1.3503 0.5194572,0.78446 1.351783,1.70502 1.8389453,2.5494 0.3267576,0.56636 0.5133605,1.10321 0.7790012,1.37057 1.2441874,1.25243 3.1252573,1.5774 3.8995662,2.27445 0.7743281,0.69705 1.3535792,0.80401 1.0273218,1.40016 z"
       style="fill:#c8b5cd;stroke:none;stroke-width:0.23978378px;stroke-linecap:butt;stroke-linejoin:miter;stroke-opacity:1;fill-opacity:1" />
    <path
       sodipodi:nodetypes="csssssszzsssszzc"
       inkscape:connector-curvature="0"
       id="path4562"
       d="m 13.478105,272.54408 c 0.03759,-0.29841 -0.01122,-0.1292 0.495792,-0.29606 0.214686,-0.0707 0.66806,0.071 0.851032,0.0623 0.270961,-0.0132 0.588126,-0.0739 0.829369,-0.0232 0.229887,0.0483 0.423782,0.0648 0.772484,0.21835 0.207544,0.0915 0.436244,0.37 0.719589,0.56932 0.692222,0.48696 1.64046,0.93467 1.914697,1.1133 0.386482,0.25171 0.02149,0.46087 0.07543,0.27218 0.05395,-0.18869 -0.725291,-0.60721 -0.590149,-0.27401 0.135152,0.33322 1.70229,0.66441 2.157432,2.01513 0.213104,0.63246 -0.0298,-0.35475 -0.592742,-0.7483 -0.521689,-0.36473 -1.273832,-0.73781 -1.789947,-1.14843 -0.346176,-0.27541 -0.596814,-0.56702 -0.830337,-0.66941 -1.093832,-0.47964 -2.364264,-0.42216 -3.059648,-0.68634 -0.695384,-0.26418 -1.963498,-0.38076 -0.953041,-0.40428 1.010457,-0.0235 3.9e-5,-5.5e-4 3.9e-5,-5.5e-4 z"
       style="fill:#a881b3;fill-opacity:1;stroke:none;stroke-width:0.16222537px;stroke-linecap:butt;stroke-linejoin:miter;stroke-opacity:1" />
    <ellipse
       id="path3699"
       cx="13.302329"
       cy="283.77084"
       style="fill:#e5d2ea;stroke-width:0.04288;fill-opacity:1"
       rx="10.505603"
       ry="10.505598" />
    <ellipse
       ry="9.7002239"
       rx="9.7002277"
       style="fill:#000000;stroke-width:0.03959275"
       cy="283.77084"
       cx="13.302329"
       id="ellipse16" />
    <path
       sodipodi:nodetypes="czzsssssszzzzzc"
       inkscape:connector-curvature="0"
       id="path4542"
       d="m 13.779042,273.61817 c -0.02102,-0.17115 0.975915,0.0383 1.610796,-0.10524 0.634875,-0.14355 0.182733,0.007 0.487458,0.0108 0.304727,0.003 0.871557,-0.2555 1.324682,-0.10539 0.350219,0.11603 -0.142102,-0.0318 -0.339571,0.0333 -0.08165,0.0269 -0.121627,0.13608 -0.148016,0.17838 -0.02728,0.0439 0.464295,-0.13741 0.762907,0.19108 0.118411,0.13007 0.234234,0.36572 0.404434,0.43225 0.258062,0.10091 0.513399,0.0562 0.262934,0.10851 -0.414826,0.0866 -0.305058,-0.004 -0.794623,-0.35006 -0.489565,-0.34633 -0.710342,-0.17278 -0.900659,-0.20174 -0.190319,-0.029 -0.169483,0.0839 -0.540458,0.0209 -0.370949,-0.063 -0.338244,0.1238 -0.561691,0.10572 -0.223453,-0.018 -1.54718,-0.14749 -1.568208,-0.31864 z"
       style="fill:#e5d2ea;stroke:none;stroke-width:0.23978378px;stroke-linecap:butt;stroke-linejoin:miter;stroke-opacity:1;fill-opacity:1" />
    <path
       sodipodi:nodetypes="czzsssssszzzzzc"
       inkscape:connector-curvature="0"
       id="path4546"
       d="m 2.4523793,283.04717 c -0.1689723,-0.0344 0.3459608,-0.91334 0.411263,-1.56096 0.065294,-0.64762 0.06524,-0.17087 0.1649436,-0.45883 0.099617,-0.288 0.034228,-0.90758 0.3203546,-1.28967 0.2211394,-0.29532 -0.075281,0.12464 -0.076145,0.3326 -3.436e-4,0.086 0.090426,0.15852 0.1222394,0.19695 0.03296,0.0398 0.01699,-0.48391 0.4233007,-0.66284 0.1608441,-0.0712 0.4211408,-0.10608 0.5382201,-0.24639 0.1775979,-0.2127 0.2162159,-0.46902 0.1863126,-0.21494 -0.049439,0.42089 -0.1002808,0.28814 -0.5840817,0.64251 -0.4837666,0.35439 -0.3892106,0.61884 -0.4770781,0.79012 -0.087825,0.17131 0.025772,0.18736 -0.1516097,0.51918 -0.1774047,0.3318 0.010086,0.36004 -0.077958,0.56621 -0.088087,0.20614 -0.6307448,1.42045 -0.7997002,1.3861 z"
       style="fill:#c8b5cd;fill-opacity:1;stroke:none;stroke-width:0.23978378px;stroke-linecap:butt;stroke-linejoin:miter;stroke-opacity:1" />
    <path
       sodipodi:nodetypes="cssssssszsssc"
       inkscape:connector-curvature="0"
       id="path4552"
       d="m 2.0732672,284.54904 c -0.2557277,-0.0333 0.020817,-0.62815 0.043717,-0.97305 0.010397,-0.15659 0.1370422,-0.44646 0.2293359,-0.73754 0.035775,-0.11283 0.021676,-0.2805 0.060299,-0.35919 0.081194,-0.16543 0.1666625,-0.0342 0.2178184,-0.15422 0.1382772,-0.32447 -0.2538698,-0.39553 0.2740247,-0.70797 0.068231,-0.0405 0.1172049,-0.0686 0.1507864,-0.0865 0.226411,-0.12037 -0.2471452,0.23118 -0.2579253,0.52411 -0.012374,0.3364 0.010468,0.55692 -0.1586655,0.80442 -0.1691332,0.24751 -0.020877,0.67566 -0.097257,0.96674 -0.034202,0.13034 -0.1539357,0.31256 -0.1953952,0.74232 -0.051132,0.53002 -0.085493,1.17711 -0.091353,1.13844 z"
       style="fill:#a881b3;fill-opacity:1;stroke:none;stroke-width:0.23978378px;stroke-linecap:butt;stroke-linejoin:miter;stroke-opacity:1" />
    <path
       style="fill:#c8b5cd;stroke:none;stroke-width:0.26458332px;stroke-linecap:butt;stroke-linejoin:miter;stroke-opacity:1;fill-opacity:1"
       d="m 5.8125651,275.76717 c 0.3846173,-0.73581 0.6583489,-1.13799 1.2733073,-2.06706 0.6149584,-0.92907 1.3543977,-0.55306 1.9761066,-0.96738 0.3226765,-0.21504 1.281322,-0.45068 1.934494,-0.80244 0.230714,-0.12425 0.871556,-0.90223 0.496365,-0.36338 -0.780046,1.12032 -1.7794483,0.74758 -2.000911,1.19063 -0.2214627,0.44305 1.673199,-0.20158 2.199349,-0.38034 0.52615,-0.17876 0.666266,-0.58802 1.408294,-0.52432 0.399743,0.0343 -0.119019,0.0243 -0.561315,0.19595 -0.378719,0.14701 -0.635857,0.46782 -0.946198,0.60949 -0.672779,0.30712 -2.0229749,0.66516 -2.8713249,1.11738 -0.84835,0.45222 -1.6061049,1.06031 -2.0896124,1.39616 -0.4835075,0.33585 -1.203172,1.33112 -0.8185546,0.59531 z"
       id="path4548"
       inkscape:connector-curvature="0"
       sodipodi:nodetypes="zzssszzssszzz" />
    <path
       sodipodi:nodetypes="czssszzssszzzc"
       inkscape:connector-curvature="0"
       id="path4550"
       d="m 11.606547,293.99981 c -0.683924,0.0451 -1.382414,0.0247 -2.0048759,0.0174 -0.6224619,-0.007 -0.9757891,-0.57104 -1.5364894,-0.77571 -0.2910122,-0.10626 -0.872151,-0.56622 -1.4025132,-0.81115 -0.1873375,-0.0865 -1.0119551,-0.17175 -0.4705661,-0.15172 1.125594,0.0417 1.2967499,0.74276 1.7041691,0.70982 0.407419,-0.033 -0.8669003,-0.87799 -1.2206016,-1.11275 -0.3537012,-0.23477 -0.702111,-0.16774 -0.9789472,-0.61195 -0.1491475,-0.2393 0.068666,0.0588 0.3810259,0.24857 0.2674835,0.16242 0.6044394,0.19353 0.8385322,0.31902 0.5074817,0.27206 1.3443649,0.91057 2.0299376,1.23035 0.6855733,0.31978 1.4414456,0.53229 1.8870866,0.68657 0.445643,0.15427 1.457165,0.20645 0.773241,0.2516 z"
       style="fill:#e5d2ea;stroke:none;stroke-width:0.19701198px;stroke-linecap:butt;stroke-linejoin:miter;stroke-opacity:1;fill-opacity:1" />
    <path
       style="fill:#c8b5cd;stroke:none;stroke-width:0.19701198px;stroke-linecap:butt;stroke-linejoin:miter;stroke-opacity:1;fill-opacity:1"
       d="m 2.965815,280.86108 c -0.015379,-0.68523 0.2588612,-1.24161 0.4003542,-1.9624 0.098101,-0.49974 0.22059,-0.626 0.3475367,-0.93653 0.056151,-0.13735 0.2234004,-0.39063 0.237807,-0.57311 0.027813,-0.35228 0.5291218,-0.87983 0.7968372,-1.39906 0.094547,-0.18341 0.215508,-1.00355 0.1719979,-0.46354 -0.090507,1.12272 -0.7983364,1.26329 -0.7831048,1.67175 0.015285,0.40847 0.9147807,-0.82797 1.1646702,-1.17115 0.2499022,-0.34319 0.1980516,-0.69417 0.6538595,-0.95147 0.2455466,-0.13862 -0.061736,0.0661 -0.2648706,0.36988 -0.1738744,0.26018 -0.2195788,0.59547 -0.3551112,0.8239 -0.2938257,0.49519 -0.9680557,1.30358 -1.317287,1.97463 -0.3492313,0.67105 -0.594345,1.41698 -0.7678216,1.85551 -0.1734631,0.43853 -0.2694937,1.44683 -0.2849193,0.76159 z"
       id="path4556"
       inkscape:connector-curvature="0"
       sodipodi:nodetypes="cssssszzssszzzc" />
    <path
       style="fill:#c8b5cd;stroke:none;stroke-width:0.19701198px;stroke-linecap:butt;stroke-linejoin:miter;stroke-opacity:1;fill-opacity:1"
       d="m 19.056207,274.88606 c 0.612812,0.307 1.205057,0.67787 1.738347,0.99898 0.533437,0.32087 0.552967,0.98616 0.933151,1.4463 0.197305,0.23885 0.466001,0.92957 0.799649,1.40911 0.117864,0.16937 0.786118,0.65997 0.329208,0.36888 -0.949922,-0.60527 -0.742999,-1.29662 -1.111127,-1.47426 -0.368163,-0.17759 0.303787,1.19587 0.490179,1.57728 0.18639,0.38141 0.520854,0.4998 0.535006,1.02302 0.0076,0.28188 -0.0295,-0.0854 -0.202981,-0.40714 -0.148606,-0.2754 -0.42355,-0.47266 -0.562028,-0.69931 -0.300189,-0.49136 -0.699203,-1.46546 -1.128893,-2.08806 -0.429686,-0.62261 -0.974275,-1.18823 -1.280683,-1.54672 -0.30642,-0.35847 -1.152636,-0.91508 -0.539802,-0.60813 z"
       id="path4558"
       inkscape:connector-curvature="0"
       sodipodi:nodetypes="czssszzssszzzc" />
    <path
       sodipodi:nodetypes="czzssszzzc"
       inkscape:connector-curvature="0"
       id="path4560"
       d="m 5.5109649,276.84074 c -0.2013103,-0.16119 0.9125762,-1.16538 1.1116047,-1.44798 0.1990286,-0.2826 0.7973833,-0.59904 1.0843111,-0.80417 0.2869277,-0.20511 -0.010968,-0.46985 0.602409,-0.46194 0.079303,5.7e-4 0.1357818,0.002 0.1737642,0.005 0.255971,0.0153 -0.3313454,0.0688 -0.4929936,0.31335 -0.1856193,0.28081 -0.2808711,0.48101 -0.5540991,0.60434 -0.2732269,0.12335 -0.2204379,0.47891 -0.437131,0.68772 -0.2167047,0.20882 -1.286545,1.26524 -1.4878681,1.10406 z"
       style="fill:#e5d2ea;fill-opacity:1;stroke:none;stroke-width:0.23978378px;stroke-linecap:butt;stroke-linejoin:miter;stroke-opacity:1" />
    <path
       style="fill:#c8b5cd;fill-opacity:1;stroke:none;stroke-width:0.23978378px;stroke-linecap:butt;stroke-linejoin:miter;stroke-opacity:1"
       d="m 14.69547,294.57269 c 0.05023,0.10677 0.314695,0.20377 -0.607403,0.29064 -0.208763,0.0197 -0.334193,0.0838 -0.546187,0.11209 -0.40521,0.054 -0.955342,0.0579 -1.091721,0.0438 -0.06789,-0.007 -1.018209,-0.27685 -0.851987,-0.42941 0.215952,-0.1982 1.560406,-0.29502 1.397967,-0.35322 -0.111424,-0.0399 -0.279507,-0.032 -0.356716,-0.0736 -0.162318,-0.0873 -0.02802,-0.16781 -0.146066,-0.22336 -0.319139,-0.15017 -0.404641,0.23908 -0.697361,-0.30001 -0.03795,-0.0697 -0.06422,-0.11965 -0.08086,-0.15387 -0.111921,-0.23071 0.22189,0.25551 0.514222,0.27712 0.335712,0.0248 0.556927,0.0101 0.798007,0.18828 0.241091,0.17816 0.674427,0.0459 0.962485,0.13291 0.128988,0.039 0.306658,0.16539 0.734593,0.2227 0.527769,0.0707 1.173147,0.12893 1.134287,0.13336 z"
       id="path4566"
       inkscape:connector-curvature="0"
       sodipodi:nodetypes="csssssssssszsssc" />
    <path
       sodipodi:nodetypes="czzsssssszzzzzc"
       inkscape:connector-curvature="0"
       id="path4572"
       d="m 5.4562751,290.25222 c -0.1122827,0.13086 -0.6293336,-0.74687 -1.163222,-1.11922 -0.5338882,-0.37235 -0.1174512,-0.1402 -0.3204963,-0.36744 -0.2030441,-0.22725 -0.7760855,-0.47178 -0.970516,-0.90774 -0.1502782,-0.33695 0.072211,0.12644 0.2534433,0.22844 0.07493,0.0421 0.1824933,-0.002 0.2315371,-0.0108 0.050789,-0.009 -0.4144047,-0.25045 -0.3729124,-0.69244 0.016141,-0.17515 0.1123865,-0.41951 0.046831,-0.59009 -0.099335,-0.25867 -0.3044407,-0.41719 -0.097008,-0.26739 0.3435587,0.2481 0.2028143,0.2279 0.2768314,0.823 0.074018,0.59509 0.3510233,0.64127 0.4578686,0.8014 0.1068454,0.16013 0.1762005,0.0687 0.3796756,0.38521 0.2034638,0.31649 0.3193989,0.16648 0.4566116,0.34376 0.1372116,0.17728 0.933623,1.24252 0.8213401,1.37339 z"
       style="fill:#e5d2ea;fill-opacity:1;stroke:none;stroke-width:0.23978378px;stroke-linecap:butt;stroke-linejoin:miter;stroke-opacity:1" />
    <path
       sodipodi:nodetypes="csssssszzsssszzc"
       inkscape:connector-curvature="0"
       id="path4576"
       d="m 7.8448215,275.47223 c -0.1621223,-0.21026 -0.1125537,-0.20174 0.1263083,-0.49385 0.1263039,-0.15447 0.462507,-0.37122 0.5713656,-0.49087 0.1611489,-0.17712 0.3924742,-0.2368 0.5750561,-0.35517 0.1740016,-0.11281 0.3640602,-0.2583 0.6780775,-0.37896 0.1869044,-0.0718 0.550167,-0.0865 0.851615,-0.13798 0.736461,-0.12574 1.433431,-0.52887 1.716299,-0.58764 0.398644,-0.0828 0.300196,0.27524 0.216581,0.12351 -0.0836,-0.15172 -0.831984,0.0711 -0.540043,0.19559 0.291946,0.12458 1.479404,-0.64304 2.604805,-0.0804 0.52694,0.26346 -0.239381,-0.20362 -0.836775,-0.0998 -0.553611,0.0962 -1.256751,0.33051 -1.835432,0.39447 -0.388141,0.0429 -0.726522,0.0162 -0.93647,0.0974 -0.983404,0.38019 -1.2614542,0.79327 -1.8283933,1.04964 -0.566951,0.25637 -1.1151618,1.08544 -1.363001,0.76399 z"
       style="fill:#e5d2ea;fill-opacity:1;stroke:none;stroke-width:0.14320554px;stroke-linecap:butt;stroke-linejoin:miter;stroke-opacity:1" />
  </g>
</svg>
